<?xml version="1.0" standalone="no"?>
<!DOCTYPE svg PUBLIC "-//W3C//DTD SVG 20010904//EN"
 "http://www.w3.org/TR/2001/REC-SVG-20010904/DTD/svg10.dtd">
<svg version="1.0" xmlns="http://www.w3.org/2000/svg"
 width="523.000000pt" height="523.000000pt" viewBox="0 0 523.000000 523.000000"
 preserveAspectRatio="xMidYMid meet">
<metadata>
Created by potrace 1.14, written by Peter Selinger 2001-2017
</metadata>
<g transform="translate(0.000000,523.000000) scale(0.100000,-0.100000)"
fill="#000000" stroke="none">
<path d="M4483 4654 c-132 -35 -196 -86 -338 -269 -16 -22 -57 -73 -90 -114
-33 -42 -116 -148 -185 -236 -69 -88 -131 -167 -137 -175 -10 -12 -369 -468
-511 -649 -27 -35 -112 -143 -135 -171 -7 -8 -52 -67 -102 -130 -49 -63 -95
-122 -102 -130 -13 -16 -129 -164 -168 -215 -13 -16 -68 -86 -122 -155 -54
-69 -121 -154 -148 -190 -28 -36 -52 -67 -55 -70 -3 -3 -30 -36 -60 -75 -30
-38 -57 -72 -60 -75 -3 -3 -22 -27 -44 -55 -55 -71 -110 -119 -175 -153 -188
-99 -425 -59 -569 97 -37 40 -183 274 -446 715 -89 150 -156 221 -256 269
-186 91 -386 59 -551 -89 -130 -117 -174 -177 -209 -291 -15 -50 -19 -84 -16
-151 5 -103 24 -168 68 -239 39 -61 1360 -1393 1434 -1446 145 -103 342 -113
505 -25 49 25 310 283 1535 1512 812 814 1505 1512 1541 1549 58 62 86 108
124 207 9 22 14 73 13 140 0 89 -5 116 -27 173 -33 85 -63 125 -197 256 -114
113 -145 135 -233 170 -72 29 -207 36 -284 15z"/>
</g>
</svg>
