<?xml version="1.0" standalone="no"?>
<!DOCTYPE svg PUBLIC "-//W3C//DTD SVG 20010904//EN"
 "http://www.w3.org/TR/2001/REC-SVG-20010904/DTD/svg10.dtd">
<svg version="1.0" xmlns="http://www.w3.org/2000/svg"
 width="912.000000pt" height="912.000000pt" viewBox="0 0 912.000000 912.000000"
 preserveAspectRatio="xMidYMid meet">
<metadata>
Created by potrace 1.14, written by Peter Selinger 2001-2017
</metadata>
<g transform="translate(0.000000,912.000000) scale(0.100000,-0.100000)"
fill="#000000" stroke="none">
<path d="M7870 8104 c-36 -8 -74 -16 -85 -18 -57 -11 -157 -63 -273 -141 -28
-19 -127 -120 -162 -165 -19 -25 -37 -47 -40 -50 -3 -3 -21 -25 -40 -50 -19
-25 -38 -46 -42 -48 -5 -2 -8 -9 -8 -16 0 -6 -9 -18 -20 -26 -11 -8 -20 -18
-20 -23 0 -5 -6 -14 -12 -21 -7 -7 -24 -27 -38 -45 -14 -18 -30 -38 -35 -44
-6 -7 -26 -32 -45 -57 -19 -25 -37 -47 -40 -50 -3 -3 -28 -34 -55 -70 -57 -75
-58 -77 -86 -110 -12 -14 -42 -52 -67 -85 -25 -33 -50 -64 -56 -70 -7 -5 -23
-26 -36 -45 -13 -19 -27 -37 -30 -40 -3 -3 -37 -45 -75 -95 -71 -91 -86 -110
-118 -147 -9 -12 -32 -41 -50 -66 -17 -24 -41 -54 -52 -66 -11 -12 -40 -49
-64 -82 -25 -32 -47 -61 -51 -64 -3 -3 -21 -25 -40 -50 -19 -25 -37 -47 -40
-50 -3 -3 -53 -66 -111 -140 -57 -74 -112 -144 -121 -155 -9 -11 -49 -60 -88
-110 -93 -118 -106 -135 -129 -165 -88 -112 -147 -186 -153 -188 -5 -2 -8 -10
-8 -18 0 -8 -4 -14 -8 -14 -4 0 -26 -24 -47 -52 -22 -29 -42 -55 -45 -58 -3
-3 -46 -57 -95 -120 -49 -63 -92 -117 -95 -120 -3 -3 -27 -34 -55 -70 -27 -36
-57 -74 -67 -85 -9 -11 -70 -87 -134 -170 -65 -82 -121 -151 -126 -153 -4 -2
-8 -7 -8 -12 0 -5 -9 -19 -20 -32 -11 -12 -59 -72 -106 -133 -48 -60 -90 -111
-95 -113 -5 -2 -9 -8 -9 -14 0 -6 -9 -20 -20 -32 -16 -17 -157 -195 -294 -371
-13 -16 -70 -88 -126 -160 -57 -71 -139 -175 -182 -230 -43 -55 -84 -107 -91
-115 -7 -9 -39 -49 -71 -90 -103 -131 -192 -208 -308 -269 -42 -22 -79 -37
-82 -34 -3 4 -6 1 -6 -5 0 -7 -3 -11 -7 -10 -5 1 -33 -5 -63 -14 -132 -39
-300 -41 -455 -3 -5 1 -23 7 -38 13 -16 7 -30 12 -33 12 -14 0 -154 74 -154
81 0 5 -6 9 -13 9 -15 0 -74 48 -139 114 -55 56 -143 186 -243 358 -24 41 -97
163 -173 286 -45 74 -82 135 -82 137 0 2 -17 30 -38 62 -54 85 -60 95 -78 131
-9 17 -20 32 -25 32 -5 0 -9 5 -9 10 0 17 -228 390 -282 461 -125 165 -299
272 -518 316 -70 15 -272 8 -345 -11 -76 -19 -275 -111 -275 -126 0 -6 -6 -10
-12 -10 -7 0 -29 -15 -48 -33 -19 -17 -71 -63 -115 -102 -44 -38 -89 -79 -100
-90 -33 -35 -105 -122 -105 -129 0 -3 -15 -29 -32 -58 -18 -29 -34 -57 -36
-63 -1 -5 -13 -41 -26 -80 -36 -101 -38 -117 -41 -255 -1 -102 2 -142 21 -217
36 -144 103 -271 198 -371 23 -24 557 -559 1187 -1188 691 -691 1171 -1163
1210 -1191 70 -49 192 -109 239 -118 3 0 30 -7 60 -15 113 -30 356 -15 465 29
51 20 163 77 187 96 14 11 40 31 57 44 34 26 5258 5245 5304 5299 15 17 27 36
27 42 0 5 4 10 9 10 11 0 100 177 113 226 27 106 37 191 34 292 -2 59 -5 107
-6 107 -2 0 -4 9 -5 21 -6 57 -64 206 -108 275 -54 88 -83 120 -257 292 -219
215 -286 263 -455 326 -103 38 -298 50 -415 25z"/>
</g>
</svg>
