<?xml version="1.0" standalone="no"?>
<!DOCTYPE svg PUBLIC "-//W3C//DTD SVG 20010904//EN"
 "http://www.w3.org/TR/2001/REC-SVG-20010904/DTD/svg10.dtd">
<svg version="1.0" xmlns="http://www.w3.org/2000/svg"
 width="523.000000pt" height="523.000000pt" viewBox="0 0 523.000000 523.000000"
 preserveAspectRatio="xMidYMid meet">
<metadata>
Created by potrace 1.14, written by Peter Selinger 2001-2017
</metadata>
<g transform="translate(0.000000,523.000000) scale(0.100000,-0.100000)"
fill="#000000" stroke="none">
<path d="M4453 4649 c-147 -46 -86 25 -1223 -1421 -569 -725 -1053 -1335
-1074 -1357 -74 -76 -212 -131 -326 -131 -70 0 -159 23 -224 58 -107 57 -154
118 -410 546 -264 439 -289 472 -412 532 -141 70 -292 69 -435 -3 -94 -47
-265 -213 -302 -294 -71 -153 -63 -332 20 -479 34 -58 1379 -1410 1448 -1454
81 -53 132 -68 236 -74 119 -6 206 17 295 78 73 49 3060 3047 3109 3120 49 73
75 164 75 264 0 171 -46 259 -223 434 -136 133 -191 169 -288 191 -72 17 -197
12 -266 -10z"/>
</g>
</svg>
