<svg width="311" height="355" viewBox="0 0 311 355" fill="none" xmlns="http://www.w3.org/2000/svg">
<path d="M8.33036 133.125H302.67C307.251 133.125 311 136.869 311 141.445V321.719C311 340.093 296.075 355 277.679 355H33.3214C14.9252 355 0 340.093 0 321.719V141.445C0 136.869 3.74866 133.125 8.33036 133.125ZM311 102.617V77.6562C311 59.2822 296.075 44.375 277.679 44.375H244.357V8.32031C244.357 3.74414 240.608 0 236.027 0H208.259C203.677 0 199.929 3.74414 199.929 8.32031V44.375H111.071V8.32031C111.071 3.74414 107.323 0 102.741 0H74.9732C70.3915 0 66.6429 3.74414 66.6429 8.32031V44.375H33.3214C14.9252 44.375 0 59.2822 0 77.6562V102.617C0 107.193 3.74866 110.938 8.33036 110.938H302.67C307.251 110.938 311 107.193 311 102.617Z" fill="white"/>
</svg>
