<svg width="362" height="368" viewBox="0 0 362 368" fill="none" xmlns="http://www.w3.org/2000/svg">
<path d="M10.5 153.5V357.5H128V244H230.5V357.5L349.5 360V153.5L177.5 14.5L10.5 153.5Z" fill="white"/>
<path d="M10 153.5L3.54965 145.858L0 148.855V153.5H10ZM180 10L186.348 2.27353C182.62 -0.789571 177.237 -0.753842 173.55 2.35847L180 10ZM344.652 158.226C348.919 161.733 355.22 161.116 358.726 156.848C362.233 152.581 361.616 146.28 357.348 142.774L344.652 158.226ZM361.5 151.5C361.5 145.977 357.023 141.5 351.5 141.5C345.977 141.5 341.5 145.977 341.5 151.5H361.5ZM351.5 358V368C357.023 368 361.5 363.523 361.5 358H351.5ZM230 358H220C220 363.523 224.477 368 230 368V358ZM230 241.5H240C240 235.977 235.523 231.5 230 231.5V241.5ZM10 358H0C0 363.523 4.47715 368 10 368L10 358ZM131.5 358V368C137.023 368 141.5 363.523 141.5 358H131.5ZM131.5 241.5V231.5C125.977 231.5 121.5 235.977 121.5 241.5H131.5ZM16.4504 161.142L186.45 17.6415L173.55 2.35847L3.54965 145.858L16.4504 161.142ZM173.652 17.7265L344.652 158.226L357.348 142.774L186.348 2.27353L173.652 17.7265ZM341.5 151.5V358H361.5V151.5H341.5ZM351.5 348H230V368H351.5V348ZM240 358V241.5H220V358H240ZM230 231.5H181.5V251.5H230V231.5ZM181.5 231.5H180V251.5H181.5V231.5ZM0 153.5V358H20V153.5H0ZM10 368H131.5V348H10V368ZM141.5 358V241.5H121.5V358H141.5ZM131.5 251.5H180V231.5H131.5V251.5Z" fill="white"/>
</svg>
