<svg width="512" height="512" viewBox="0 0 512 512" fill="none" xmlns="http://www.w3.org/2000/svg">
<path d="M336 32H301.248C294.656 13.376 276.864 0 256 0C235.136 0 217.344 13.376 210.72 32H176C167.168 32 160 39.168 160 48V112C160 120.832 167.168 128 176 128H336C344.832 128 352 120.832 352 112V48C352 39.168 344.832 32 336 32Z" fill="white"/>
<path d="M416 64H384V112C384 138.464 362.464 160 336 160H176C149.536 160 128 138.464 128 112V64H96C78.368 64 64 78.368 64 96V480C64 497.952 78.048 512 96 512H416C433.952 512 448 497.952 448 480V96C448 78.048 433.952 64 416 64ZM251.328 347.328L187.328 411.328C184.192 414.432 180.096 416 176 416C171.904 416 167.808 414.432 164.672 411.328L132.672 379.328C126.432 373.088 126.432 362.944 132.672 356.704C138.912 350.464 149.056 350.464 155.296 356.704L176 377.376L228.672 324.704C234.912 318.464 245.056 318.464 251.296 324.704C257.536 330.944 257.568 341.056 251.328 347.328ZM251.328 219.328L187.328 283.328C184.192 286.432 180.096 288 176 288C171.904 288 167.808 286.432 164.672 283.328L132.672 251.328C126.432 245.088 126.432 234.944 132.672 228.704C138.912 222.464 149.056 222.464 155.296 228.704L176 249.376L228.672 196.704C234.912 190.464 245.056 190.464 251.296 196.704C257.536 202.944 257.568 213.056 251.328 219.328ZM368 384H304C295.168 384 288 376.832 288 368C288 359.168 295.168 352 304 352H368C376.832 352 384 359.168 384 368C384 376.832 376.832 384 368 384ZM368 256H304C295.168 256 288 248.832 288 240C288 231.168 295.168 224 304 224H368C376.832 224 384 231.168 384 240C384 248.832 376.832 256 368 256Z" fill="white"/>
</svg>
