<svg width="172" height="172" viewBox="0 0 172 172" fill="none" xmlns="http://www.w3.org/2000/svg">
<path d="M122.927 108.176H115.158L112.405 105.521C122.042 94.3099 127.844 79.7553 127.844 63.9222C127.844 28.6175 99.227 0 63.9222 0C28.6175 0 0 28.6175 0 63.9222C0 99.227 28.6175 127.844 63.9222 127.844C79.7553 127.844 94.3099 122.042 105.521 112.405L108.176 115.158V122.927L157.347 172L172 157.347L122.927 108.176V108.176ZM63.9222 108.176C39.4351 108.176 19.6684 88.4094 19.6684 63.9222C19.6684 39.4351 39.4351 19.6684 63.9222 19.6684C88.4094 19.6684 108.176 39.4351 108.176 63.9222C108.176 88.4094 88.4094 108.176 63.9222 108.176Z" fill="white"/>
</svg>
