<svg width="194" height="194" viewBox="0 0 194 194" fill="none" xmlns="http://www.w3.org/2000/svg">
<rect width="194" height="194" rx="97" fill="#449DD1"/>
<g clip-path="url(#clip0)">
<path d="M99.0209 66.4966C78.1714 66.4966 59.264 77.9035 45.3122 96.4315C44.1738 97.9494 44.1738 100.07 45.3122 101.588C59.264 120.138 78.1714 131.545 99.0209 131.545C119.87 131.545 138.778 120.138 152.73 101.61C153.868 100.092 153.868 97.9717 152.73 96.4538C138.778 77.9035 119.87 66.4966 99.0209 66.4966ZM100.516 121.924C86.6764 122.795 75.2471 111.388 76.1177 97.5253C76.832 86.096 86.096 76.832 97.5252 76.1177C111.365 75.2471 122.795 86.6541 121.924 100.517C121.187 111.923 111.923 121.187 100.516 121.924ZM99.8245 111.343C92.3687 111.812 86.2076 105.673 86.6987 98.2173C87.0782 92.0562 92.0785 87.0782 98.2396 86.6764C105.695 86.2076 111.856 92.3464 111.365 99.8022C110.964 105.986 105.963 110.964 99.8245 111.343Z" fill="#FFFAFB"/>
</g>
<defs>
<clipPath id="clip0">
<rect width="109.125" height="109.125" fill="white" transform="translate(44.4584 44.4583)"/>
</clipPath>
</defs>
</svg>
