<svg width="196" height="196" viewBox="0 0 196 196" fill="none" xmlns="http://www.w3.org/2000/svg">
<g clip-path="url(#clip0)">
<path d="M26.3995 112.461C11.8431 112.461 0 124.304 0 138.861V169.6C0 184.157 11.8431 196 26.3999 196C40.9567 196 52.7994 184.157 52.7994 169.6V138.861C52.7994 124.304 40.9563 112.461 26.3995 112.461ZM37.4865 169.6C37.4865 175.714 32.513 180.687 26.3995 180.687C20.2864 180.687 15.3125 175.714 15.3125 169.6V138.861C15.3125 132.747 20.2864 127.774 26.3999 127.774C32.5134 127.774 37.4869 132.747 37.4865 138.861V169.6V169.6Z" fill="white"/>
<path d="M98 0C83.4432 0 71.6001 11.8431 71.6001 26.3999V169.6C71.6001 184.157 83.4432 196 98 196C112.557 196 124.4 184.157 124.4 169.6V26.3999C124.4 11.8431 112.557 0 98 0ZM109.087 169.6C109.087 175.714 104.114 180.688 98 180.688C91.8865 180.688 86.9126 175.714 86.9126 169.6V26.3999C86.9126 20.286 91.8865 15.3125 98 15.3125C104.114 15.3125 109.087 20.286 109.087 26.3999V169.6Z" fill="white"/>
<path d="M169.6 56.2306C155.044 56.2306 143.201 68.0737 143.201 82.6305V169.6C143.201 184.157 155.044 196 169.601 196C184.157 196 196 184.157 196 169.601V82.6305C196 68.0737 184.157 56.2306 169.6 56.2306ZM180.688 169.601C180.688 175.714 175.714 180.688 169.6 180.688C163.487 180.688 158.513 175.714 158.513 169.601V82.6305C158.513 76.5166 163.487 71.5431 169.601 71.5431C175.714 71.5431 180.688 76.5166 180.688 82.6305V169.601Z" fill="white"/>
</g>
<defs>
<clipPath id="clip0">
<rect width="196" height="196" fill="white"/>
</clipPath>
</defs>
</svg>
