<svg width="400" height="403" viewBox="0 0 400 403" fill="none" xmlns="http://www.w3.org/2000/svg">
<path d="M309.869 344.047C312.212 346.39 312.218 350.197 309.8 352.462C289.218 371.744 264.456 386.056 237.415 394.259C208.459 403.043 177.783 404.55 148.105 398.647C118.427 392.743 90.6632 379.612 67.2724 360.416C43.8816 341.219 25.5861 316.551 14.0063 288.595C2.42658 260.639 -2.07991 230.258 0.886021 200.145C3.85196 170.031 14.1988 141.114 31.01 115.954C47.8211 90.7942 70.5778 70.1688 97.2641 55.9046C122.185 42.5842 149.814 35.1951 178.003 34.2757C181.315 34.1676 184.002 36.8641 184.002 40.1779L184.002 215.695C184.002 217.286 184.634 218.812 185.76 219.937L309.869 344.047Z" fill="white"/>
<path d="M393.004 184.002C396.318 184.002 399.015 181.315 398.907 178.003C398.185 155.886 393.479 134.063 384.998 113.588C375.751 91.2634 362.198 70.9792 345.111 53.893C328.025 36.8068 307.741 23.2533 285.417 14.0063C264.942 5.52533 243.119 0.819273 221.001 0.0978161C217.689 -0.0102178 215.002 2.68629 215.002 6L215.002 178.002C215.002 181.316 217.688 184.002 221.002 184.002H393.004Z" fill="white"/>
<path d="M340.867 335.867C343.21 338.21 347.017 338.216 349.282 335.798C364.411 319.648 376.515 300.889 384.996 280.415C393.477 259.94 398.183 238.116 398.904 215.999C399.012 212.687 396.316 210 393.002 210H229.485C224.14 210 221.463 216.463 225.243 220.243L340.867 335.867Z" fill="white"/>
</svg>
