<svg width="488" height="487" viewBox="0 0 488 487" fill="none" xmlns="http://www.w3.org/2000/svg">
<path d="M263 0C254.709 0 248 6.709 248 15V226C248 234.291 254.709 241 263 241H473C481.291 241 488 234.291 488 226C488 101.928 387.072 0 263 0Z" fill="white"/>
<path d="M226 55C226 43.9543 217.028 34.9081 206.025 35.8843C168.374 39.2249 132.047 51.9697 100.441 73.0879C63.2756 97.9211 34.3086 133.217 17.2032 174.514C0.0978085 215.81 -4.37774 261.251 4.34252 305.09C13.0628 348.93 34.5872 389.199 66.1939 420.806C97.8005 452.413 138.07 473.937 181.91 482.657C225.749 491.378 271.19 486.902 312.486 469.797C353.783 452.691 389.079 423.724 413.912 386.559C435.03 354.953 447.775 318.626 451.116 280.975C452.092 269.972 443.046 261 432 261L246 261C234.954 261 226 252.046 226 241L226 55Z" fill="white"/>
</svg>
