<svg width="32" height="32" viewBox="0 0 32 32" fill="none" xmlns="http://www.w3.org/2000/svg">
<g clip-path="url(#clip0)">
<path d="M32 15.5229C32 6.94985 25.0501 0 16.477 0C7.90395 0 0.954102 6.94985 0.954102 15.5229C0.954102 23.2708 6.63058 29.6928 14.0516 30.8573V20.01H10.1102V15.5229H14.0516V12.103C14.0516 8.2126 16.3691 6.06365 19.9148 6.06365C21.6126 6.06365 23.3896 6.36683 23.3896 6.36683V10.1869H21.4323C19.504 10.1869 18.9025 11.3836 18.9025 12.6124V15.5229H23.2077L22.5195 20.01H18.9025V30.8573C26.3235 29.6928 32 23.2708 32 15.5229Z" fill="white"/>
</g>
<defs>
<clipPath id="clip0">
<rect width="31.0459" height="31.0459" fill="white" transform="translate(0.954102)"/>
</clipPath>
</defs>
</svg>
