<svg width="31" height="31" viewBox="0 0 31 31" fill="none" xmlns="http://www.w3.org/2000/svg">
<g clip-path="url(#clip0)">
<path fill-rule="evenodd" clip-rule="evenodd" d="M21.756 8.45772C20.1556 6.93136 18.0199 6.09983 15.81 6.134C11.7663 6.134 8.33203 8.86207 7.1075 12.5356C6.45823 14.4606 6.45823 16.5452 7.1075 18.4702H7.11318C8.34339 22.1381 11.772 24.8662 15.8157 24.8662C17.9031 24.8662 19.6951 24.3322 21.084 23.3892V23.3854C22.7186 22.3033 23.8349 20.6003 24.1823 18.6753H15.8101V12.7065H30.4301C30.6124 13.7431 30.6978 14.8024 30.6978 15.8561C30.6978 20.5705 29.013 24.5563 26.0815 27.2559L26.0845 27.2582C23.5159 29.6275 19.9905 31.0001 15.81 31.0001C9.94949 31.0001 4.59013 27.6968 1.95886 22.4627C-0.239546 18.083 -0.239541 12.9229 1.95887 8.54319C4.59014 3.30343 9.94949 6.79644e-05 15.81 6.79644e-05C19.6601 -0.0454951 23.3792 1.40113 26.1813 4.0324L21.756 8.45772Z" fill="white"/>
</g>
<defs>
<clipPath id="clip0">
<rect width="31" height="31" fill="white"/>
</clipPath>
</defs>
</svg>
