<svg width="32" height="32" viewBox="0 0 32 32" fill="none" xmlns="http://www.w3.org/2000/svg">
<g clip-path="url(#clip0)">
<path d="M15.5229 2.79534C19.6705 2.79534 20.1616 2.81353 21.7927 2.8863C23.3087 2.953 24.1273 3.20767 24.673 3.4199C25.3946 3.69882 25.916 4.03839 26.4557 4.57805C27.0014 5.12378 27.3349 5.63919 27.6138 6.36077C27.8261 6.90649 28.0808 7.73115 28.1475 9.241C28.2202 10.8782 28.2384 11.3693 28.2384 15.5108C28.2384 19.6583 28.2202 20.1495 28.1475 21.7806C28.0808 23.2965 27.8261 24.1151 27.6138 24.6609C27.3349 25.3824 26.9954 25.9039 26.4557 26.4436C25.91 26.9893 25.3946 27.3228 24.673 27.6017C24.1273 27.814 23.3026 28.0686 21.7927 28.1353C20.1556 28.2081 19.6644 28.2263 15.5229 28.2263C11.3754 28.2263 10.8842 28.2081 9.25313 28.1353C7.73721 28.0686 6.91862 27.814 6.37289 27.6017C5.65132 27.3228 5.12985 26.9832 4.59018 26.4436C4.04445 25.8978 3.71095 25.3824 3.43202 24.6609C3.2198 24.1151 2.96512 23.2905 2.89842 21.7806C2.82566 20.1434 2.80747 19.6523 2.80747 15.5108C2.80747 11.3633 2.82566 10.8721 2.89842 9.241C2.96512 7.72509 3.2198 6.90649 3.43202 6.36077C3.71095 5.63919 4.05052 5.11772 4.59018 4.57805C5.13591 4.03233 5.65132 3.69882 6.37289 3.4199C6.91862 3.20767 7.74328 2.953 9.25313 2.8863C10.8842 2.81353 11.3754 2.79534 15.5229 2.79534ZM15.5229 0C11.3087 0 10.7812 0.0181909 9.12579 0.0909547C7.47648 0.163718 6.34258 0.430519 5.36026 0.812529C4.33551 1.21273 3.46841 1.74027 2.60737 2.60737C1.74027 3.46841 1.21273 4.33551 0.812529 5.3542C0.430519 6.34258 0.163718 7.47041 0.0909547 9.11972C0.0181909 10.7812 0 11.3087 0 15.5229C0 19.7372 0.0181909 20.2647 0.0909547 21.9201C0.163718 23.5694 0.430519 24.7033 0.812529 25.6856C1.21273 26.7104 1.74027 27.5775 2.60737 28.4385C3.46841 29.2995 4.33551 29.8331 5.3542 30.2273C6.34258 30.6093 7.47041 30.8761 9.11973 30.9489C10.7751 31.0216 11.3026 31.0398 15.5169 31.0398C19.7311 31.0398 20.2586 31.0216 21.914 30.9489C23.5633 30.8761 24.6972 30.6093 25.6795 30.2273C26.6982 29.8331 27.5653 29.2995 28.4264 28.4385C29.2874 27.5775 29.821 26.7104 30.2152 25.6917C30.5972 24.7033 30.864 23.5755 30.9367 21.9261C31.0095 20.2708 31.0277 19.7432 31.0277 15.529C31.0277 11.3148 31.0095 10.7872 30.9367 9.13185C30.864 7.48254 30.5972 6.34864 30.2152 5.36633C29.8331 4.33551 29.3056 3.46841 28.4385 2.60737C27.5775 1.74633 26.7104 1.21273 25.6917 0.818592C24.7033 0.436583 23.5755 0.169782 21.9261 0.0970184C20.2647 0.0181909 19.7372 0 15.5229 0Z" fill="white"/>
<path d="M15.5229 7.54932C11.1207 7.54932 7.54919 11.1208 7.54919 15.523C7.54919 19.9252 11.1207 23.4967 15.5229 23.4967C19.9251 23.4967 23.4966 19.9252 23.4966 15.523C23.4966 11.1208 19.9251 7.54932 15.5229 7.54932ZM15.5229 20.6953C12.6669 20.6953 10.3506 18.379 10.3506 15.523C10.3506 12.667 12.6669 10.3507 15.5229 10.3507C18.3789 10.3507 20.6952 12.667 20.6952 15.523C20.6952 18.379 18.3789 20.6953 15.5229 20.6953Z" fill="white"/>
<path d="M25.6735 7.23386C25.6735 8.26468 24.8367 9.0954 23.812 9.0954C22.7812 9.0954 21.9504 8.25861 21.9504 7.23386C21.9504 6.20304 22.7872 5.37231 23.812 5.37231C24.8367 5.37231 25.6735 6.2091 25.6735 7.23386Z" fill="white"/>
</g>
<defs>
<clipPath id="clip0">
<rect width="31.0459" height="31.0459" fill="white"/>
</clipPath>
</defs>
</svg>
