<svg width="33" height="32" viewBox="0 0 33 32" fill="none" xmlns="http://www.w3.org/2000/svg">
<g clip-path="url(#clip0)">
<path d="M10.7438 28.1354C22.4563 28.1354 28.8644 18.4293 28.8644 10.0148C28.8644 9.7419 28.8583 9.46297 28.8462 9.19011C30.0927 8.28862 31.1685 7.17199 32.0229 5.8927C30.862 6.40923 29.6293 6.74657 28.3672 6.8932C29.6961 6.09658 30.6912 4.84513 31.1679 3.37083C29.9177 4.11178 28.5504 4.63445 27.1247 4.91645C26.1641 3.89575 24.894 3.21993 23.5108 2.99347C22.1275 2.76701 20.7082 3.00252 19.4723 3.6636C18.2363 4.32468 17.2526 5.3745 16.6731 6.65075C16.0937 7.927 15.9508 9.3586 16.2665 10.7242C13.735 10.5972 11.2583 9.93954 8.99721 8.79394C6.73609 7.64834 4.74097 6.04035 3.14117 4.07421C2.32806 5.4761 2.07925 7.13498 2.4453 8.71372C2.81135 10.2925 3.76479 11.6726 5.11185 12.5736C4.10056 12.5415 3.11142 12.2692 2.22616 11.7793V11.8581C2.22526 13.3293 2.73386 14.7554 3.66551 15.894C4.59716 17.0325 5.89436 17.8134 7.3366 18.1037C6.3998 18.36 5.41659 18.3973 4.46304 18.2128C4.87002 19.478 5.66184 20.5846 6.728 21.3782C7.79417 22.1717 9.08147 22.6126 10.4103 22.6393C8.15437 24.4113 5.36768 25.3725 2.49903 25.3679C1.99029 25.3671 1.48206 25.336 0.977051 25.2745C3.8913 27.1442 7.28134 28.1372 10.7438 28.1354Z" fill="white"/>
</g>
<defs>
<clipPath id="clip0">
<rect width="31.0459" height="31.0459" fill="white" transform="translate(0.977051)"/>
</clipPath>
</defs>
</svg>
