<svg width="394" height="131" viewBox="0 0 394 131" fill="none" xmlns="http://www.w3.org/2000/svg">
<g filter="url(#filter0_d)">
<rect x="10" y="10" width="374" height="111" rx="10" fill="white"/>
</g>
<path d="M30.1546 22.6018C30.4207 21.7829 31.5793 21.7829 31.8454 22.6018L33.2701 26.9866C33.3891 27.3528 33.7304 27.6008 34.1155 27.6008H38.7259C39.587 27.6008 39.945 28.7027 39.2484 29.2088L35.5185 31.9188C35.2069 32.1451 35.0766 32.5463 35.1956 32.9126L36.6203 37.2974C36.8863 38.1163 35.949 38.7973 35.2524 38.2912L31.5225 35.5812C31.2109 35.3549 30.7891 35.3549 30.4775 35.5812L26.7476 38.2912C26.051 38.7973 25.1137 38.1163 25.3797 37.2974L26.8044 32.9126C26.9234 32.5463 26.7931 32.1451 26.4815 31.9188L22.7516 29.2088C22.055 28.7027 22.413 27.6008 23.2741 27.6008H27.8845C28.2696 27.6008 28.6109 27.3528 28.7299 26.9866L30.1546 22.6018Z" fill="#F2BD00"/>
<path d="M52.1546 22.6018C52.4207 21.7829 53.5793 21.7829 53.8454 22.6018L55.2701 26.9866C55.3891 27.3528 55.7304 27.6008 56.1155 27.6008H60.7259C61.587 27.6008 61.945 28.7027 61.2484 29.2088L57.5185 31.9188C57.2069 32.1451 57.0766 32.5463 57.1956 32.9126L58.6203 37.2974C58.8863 38.1163 57.949 38.7973 57.2524 38.2912L53.5225 35.5812C53.2109 35.3549 52.7891 35.3549 52.4775 35.5812L48.7476 38.2912C48.051 38.7973 47.1137 38.1163 47.3797 37.2974L48.8044 32.9126C48.9234 32.5463 48.7931 32.1451 48.4815 31.9188L44.7516 29.2088C44.055 28.7027 44.413 27.6008 45.2741 27.6008H49.8845C50.2696 27.6008 50.6109 27.3528 50.7299 26.9866L52.1546 22.6018Z" fill="#F2BD00"/>
<path d="M74.1546 22.6018C74.4207 21.7829 75.5793 21.7829 75.8454 22.6018L77.2701 26.9866C77.3891 27.3528 77.7304 27.6008 78.1155 27.6008H82.7259C83.587 27.6008 83.945 28.7027 83.2484 29.2088L79.5185 31.9188C79.2069 32.1451 79.0766 32.5463 79.1956 32.9126L80.6203 37.2974C80.8863 38.1163 79.949 38.7973 79.2524 38.2912L75.5225 35.5812C75.2109 35.3549 74.7891 35.3549 74.4775 35.5812L70.7476 38.2912C70.051 38.7973 69.1137 38.1163 69.3797 37.2974L70.8044 32.9126C70.9234 32.5463 70.7931 32.1451 70.4815 31.9188L66.7516 29.2088C66.055 28.7027 66.413 27.6008 67.2741 27.6008H71.8845C72.2696 27.6008 72.6109 27.3528 72.7299 26.9866L74.1546 22.6018Z" fill="#F2BD00"/>
<path d="M96.1546 22.6018C96.4207 21.7829 97.5793 21.7829 97.8454 22.6018L99.2701 26.9866C99.3891 27.3528 99.7304 27.6008 100.115 27.6008H104.726C105.587 27.6008 105.945 28.7027 105.248 29.2088L101.518 31.9188C101.207 32.1451 101.077 32.5463 101.196 32.9126L102.62 37.2974C102.886 38.1163 101.949 38.7973 101.252 38.2912L97.5225 35.5812C97.2109 35.3549 96.7891 35.3549 96.4775 35.5812L92.7476 38.2912C92.051 38.7973 91.1137 38.1163 91.3797 37.2974L92.8044 32.9126C92.9234 32.5463 92.7931 32.1451 92.4815 31.9188L88.7516 29.2088C88.055 28.7027 88.413 27.6008 89.2741 27.6008H93.8845C94.2696 27.6008 94.6109 27.3528 94.7299 26.9866L96.1546 22.6018Z" fill="#F2BD00"/>
<path d="M118.155 22.6018C118.421 21.7829 119.579 21.7829 119.845 22.6018L121.27 26.9866C121.389 27.3528 121.73 27.6008 122.115 27.6008H126.726C127.587 27.6008 127.945 28.7027 127.248 29.2088L123.518 31.9188C123.207 32.1451 123.077 32.5463 123.196 32.9126L124.62 37.2974C124.886 38.1163 123.949 38.7973 123.252 38.2912L119.522 35.5812C119.211 35.3549 118.789 35.3549 118.478 35.5812L114.748 38.2912C114.051 38.7973 113.114 38.1163 113.38 37.2974L114.804 32.9126C114.923 32.5463 114.793 32.1451 114.482 31.9188L110.752 29.2088C110.055 28.7027 110.413 27.6008 111.274 27.6008H115.885C116.27 27.6008 116.611 27.3528 116.73 26.9866L118.155 22.6018Z" fill="#F2BD00"/>
<path d="M145.988 24.678V31.914C145.988 32.97 146.252 33.732 146.78 34.2C147.308 34.668 148.004 34.902 148.868 34.902C149.732 34.902 150.428 34.668 150.956 34.2C151.484 33.732 151.748 32.97 151.748 31.914V24.678H153.17V31.914C153.17 33.33 152.78 34.398 152 35.118C151.22 35.838 150.17 36.198 148.85 36.198C147.542 36.198 146.498 35.838 145.718 35.118C144.95 34.398 144.566 33.33 144.566 31.914V24.678H145.988ZM156.145 29.502C156.145 28.794 156.445 28.23 157.045 27.81C157.657 27.39 158.479 27.18 159.511 27.18C160.543 27.18 161.347 27.396 161.923 27.828C162.511 28.26 162.817 28.806 162.841 29.466H161.455C161.347 28.686 160.687 28.296 159.475 28.296C158.887 28.296 158.431 28.428 158.107 28.692C157.795 28.956 157.639 29.244 157.639 29.556C157.639 29.856 157.759 30.114 157.999 30.33C158.239 30.534 158.623 30.714 159.151 30.87L160.879 31.446C161.611 31.674 162.169 31.968 162.553 32.328C162.949 32.676 163.147 33.162 163.147 33.786C163.147 34.398 162.829 34.956 162.193 35.46C161.557 35.952 160.669 36.198 159.529 36.198C158.389 36.198 157.501 35.946 156.865 35.442C156.229 34.926 155.893 34.266 155.857 33.462H157.225C157.249 34.002 157.465 34.41 157.873 34.686C158.293 34.95 158.815 35.082 159.439 35.082C160.063 35.082 160.579 34.95 160.987 34.686C161.395 34.422 161.599 34.11 161.599 33.75C161.599 33.378 161.479 33.096 161.239 32.904C160.999 32.712 160.609 32.544 160.069 32.4L158.395 31.842C156.895 31.398 156.145 30.618 156.145 29.502ZM169.04 35.046C170.228 35.046 170.906 34.524 171.074 33.48H172.532C172.4 34.344 172.016 35.016 171.38 35.496C170.756 35.964 169.976 36.198 169.04 36.198C167.888 36.198 166.952 35.79 166.232 34.974C165.512 34.146 165.152 33.048 165.152 31.68C165.152 30.312 165.512 29.22 166.232 28.404C166.964 27.588 167.93 27.18 169.13 27.18C170.342 27.18 171.242 27.648 171.83 28.584C172.43 29.52 172.64 30.66 172.46 32.004H166.574C166.574 32.892 166.79 33.624 167.222 34.2C167.654 34.764 168.26 35.046 169.04 35.046ZM170.084 28.53C169.808 28.386 169.472 28.314 169.076 28.314C168.344 28.314 167.762 28.566 167.33 29.07C166.91 29.562 166.664 30.18 166.592 30.924H171.182C171.182 29.724 170.816 28.926 170.084 28.53ZM178.844 28.602C177.488 28.602 176.786 29.67 176.738 31.806V36H175.316V27.378H176.738V29.034C177.17 27.834 177.932 27.234 179.024 27.234C179.372 27.234 179.702 27.288 180.014 27.396L179.942 28.782C179.582 28.662 179.216 28.602 178.844 28.602ZM187.846 29.052C188.41 27.804 189.376 27.18 190.744 27.18C191.764 27.18 192.556 27.516 193.12 28.188C193.696 28.86 193.984 29.778 193.984 30.942V36H192.58V30.942C192.58 30.114 192.382 29.49 191.986 29.07C191.602 28.65 191.05 28.44 190.33 28.44C189.61 28.44 189.028 28.734 188.584 29.322C188.14 29.91 187.906 30.726 187.882 31.77V36H186.46V27.396H187.684L187.846 29.052ZM202.652 30.42C202.652 29.64 202.49 29.082 202.166 28.746C201.842 28.41 201.368 28.242 200.744 28.242C200.132 28.242 199.634 28.368 199.25 28.62C198.878 28.86 198.692 29.244 198.692 29.772H197.126C197.126 28.452 197.834 27.636 199.25 27.324C199.682 27.228 200.15 27.18 200.654 27.18C201.722 27.18 202.556 27.45 203.156 27.99C203.756 28.53 204.056 29.352 204.056 30.456V36H202.832L202.688 34.56C202.16 35.652 201.206 36.198 199.826 36.198C198.902 36.198 198.158 35.94 197.594 35.424C197.042 34.908 196.766 34.266 196.766 33.498C196.766 32.73 197.072 32.13 197.684 31.698C198.308 31.266 199.082 31.05 200.006 31.05C200.93 31.05 201.812 31.206 202.652 31.518V30.42ZM202.652 32.418C201.8 32.178 201.056 32.058 200.42 32.058C199.784 32.058 199.268 32.172 198.872 32.4C198.476 32.628 198.278 32.988 198.278 33.48C198.278 34.56 198.89 35.1 200.114 35.1C200.81 35.1 201.404 34.854 201.896 34.362C202.4 33.858 202.652 33.21 202.652 32.418ZM208.764 29.052C209.328 27.804 210.294 27.18 211.662 27.18C212.406 27.18 213.03 27.366 213.534 27.738C214.038 28.098 214.404 28.602 214.632 29.25C215.172 27.87 216.174 27.18 217.638 27.18C218.67 27.18 219.468 27.516 220.032 28.188C220.596 28.86 220.878 29.778 220.878 30.942V36H219.474V30.942C219.474 30.114 219.276 29.49 218.88 29.07C218.496 28.65 217.938 28.44 217.206 28.44C216.474 28.44 215.904 28.74 215.496 29.34C215.1 29.94 214.902 30.768 214.902 31.824V36H213.498V30.942C213.498 30.114 213.3 29.49 212.904 29.07C212.52 28.65 211.968 28.44 211.248 28.44C210.528 28.44 209.946 28.734 209.502 29.322C209.058 29.91 208.824 30.726 208.8 31.77V36H207.378V27.396H208.602L208.764 29.052ZM227.188 35.046C228.376 35.046 229.054 34.524 229.222 33.48H230.68C230.548 34.344 230.164 35.016 229.528 35.496C228.904 35.964 228.124 36.198 227.188 36.198C226.036 36.198 225.1 35.79 224.38 34.974C223.66 34.146 223.3 33.048 223.3 31.68C223.3 30.312 223.66 29.22 224.38 28.404C225.112 27.588 226.078 27.18 227.278 27.18C228.49 27.18 229.39 27.648 229.978 28.584C230.578 29.52 230.788 30.66 230.608 32.004H224.722C224.722 32.892 224.938 33.624 225.37 34.2C225.802 34.764 226.408 35.046 227.188 35.046ZM228.232 28.53C227.956 28.386 227.62 28.314 227.224 28.314C226.492 28.314 225.91 28.566 225.478 29.07C225.058 29.562 224.812 30.18 224.74 30.924H229.33C229.33 29.724 228.964 28.926 228.232 28.53Z" fill="black" fill-opacity="0.75"/>
<path d="M26.52 68.034H30.44V69H25.414V60.194H26.52V68.034ZM34.3708 62.14C35.3042 62.14 36.0555 62.4433 36.6248 63.05C37.2035 63.6567 37.4928 64.5247 37.4928 65.654C37.4928 66.774 37.2035 67.6373 36.6248 68.244C36.0555 68.8507 35.3042 69.154 34.3708 69.154C33.4375 69.154 32.6815 68.8507 32.1028 68.244C31.5335 67.6373 31.2488 66.774 31.2488 65.654C31.2488 64.5247 31.5335 63.6567 32.1028 63.05C32.6815 62.4433 33.4375 62.14 34.3708 62.14ZM36.3728 65.654C36.3728 64.8513 36.2048 64.226 35.8688 63.778C35.5328 63.3207 35.0382 63.092 34.3848 63.092C33.7408 63.092 33.2462 63.3207 32.9008 63.778C32.5555 64.226 32.3828 64.8513 32.3828 65.654C32.3828 66.4473 32.5462 67.0727 32.8728 67.53C33.1995 67.978 33.6848 68.202 34.3288 68.202C34.9822 68.202 35.4862 67.978 35.8408 67.53C36.1955 67.0727 36.3728 66.4473 36.3728 65.654ZM42.3354 63.246C41.2807 63.246 40.7347 64.0767 40.6974 65.738V69H39.5914V62.294H40.6974V63.582C41.0334 62.6487 41.6261 62.182 42.4754 62.182C42.7461 62.182 43.0027 62.224 43.2454 62.308L43.1894 63.386C42.9094 63.2927 42.6247 63.246 42.3354 63.246ZM47.2474 68.258C48.1714 68.258 48.6988 67.852 48.8294 67.04H49.9634C49.8608 67.712 49.5621 68.2347 49.0674 68.608C48.5821 68.972 47.9754 69.154 47.2474 69.154C46.3514 69.154 45.6234 68.8367 45.0634 68.202C44.5034 67.558 44.2234 66.704 44.2234 65.64C44.2234 64.576 44.5034 63.7267 45.0634 63.092C45.6328 62.4573 46.3841 62.14 47.3174 62.14C48.2601 62.14 48.9601 62.504 49.4174 63.232C49.8841 63.96 50.0474 64.8467 49.9074 65.892H45.3294C45.3294 66.5827 45.4974 67.152 45.8334 67.6C46.1694 68.0387 46.6408 68.258 47.2474 68.258ZM48.0594 63.19C47.8448 63.078 47.5834 63.022 47.2754 63.022C46.7061 63.022 46.2534 63.218 45.9174 63.61C45.5908 63.9927 45.3994 64.4733 45.3434 65.052H48.9134C48.9134 64.1187 48.6288 63.498 48.0594 63.19ZM53.2065 63.596C53.6452 62.6253 54.3965 62.14 55.4605 62.14C56.0392 62.14 56.5245 62.2847 56.9165 62.574C57.3085 62.854 57.5932 63.246 57.7705 63.75C58.1905 62.6767 58.9698 62.14 60.1085 62.14C60.9112 62.14 61.5318 62.4013 61.9705 62.924C62.4092 63.4467 62.6285 64.1607 62.6285 65.066V69H61.5365V65.066C61.5365 64.422 61.3825 63.9367 61.0745 63.61C60.7758 63.2833 60.3418 63.12 59.7725 63.12C59.2032 63.12 58.7598 63.3533 58.4425 63.82C58.1345 64.2867 57.9805 64.9307 57.9805 65.752V69H56.8885V65.066C56.8885 64.422 56.7345 63.9367 56.4265 63.61C56.1278 63.2833 55.6985 63.12 55.1385 63.12C54.5785 63.12 54.1258 63.3487 53.7805 63.806C53.4352 64.2633 53.2532 64.898 53.2345 65.71V69H52.1285V62.308H53.0805L53.2065 63.596ZM68.6324 62.294H69.7384V69H68.6324V62.294ZM69.1784 60.726C68.9544 60.726 68.7771 60.6653 68.6464 60.544C68.5251 60.4133 68.4644 60.2453 68.4644 60.04C68.4644 59.8253 68.5251 59.6573 68.6464 59.536C68.7771 59.4053 68.9544 59.34 69.1784 59.34C69.4024 59.34 69.5798 59.4053 69.7104 59.536C69.8504 59.6573 69.9204 59.8253 69.9204 60.04C69.9204 60.2453 69.8504 60.4133 69.7104 60.544C69.5798 60.6653 69.4024 60.726 69.1784 60.726ZM73.782 63.33C74.2207 62.5367 74.874 62.14 75.742 62.14C76.6194 62.14 77.3474 62.462 77.926 63.106C78.514 63.75 78.808 64.5993 78.808 65.654C78.808 66.7087 78.514 67.558 77.926 68.202C77.338 68.8367 76.6147 69.154 75.756 69.154C74.8974 69.154 74.2627 68.832 73.852 68.188V72.29H72.746V62.308H73.656L73.782 63.33ZM75.7 68.174C76.2227 68.174 76.68 67.95 77.072 67.502C77.4734 67.054 77.674 66.4427 77.674 65.668C77.674 64.884 77.4827 64.2633 77.1 63.806C76.7267 63.3487 76.2694 63.12 75.728 63.12C75.1867 63.12 74.7434 63.2927 74.398 63.638C74.0527 63.974 73.8707 64.4313 73.852 65.01V66.284C73.852 66.872 74.0294 67.334 74.384 67.67C74.7387 68.006 75.1774 68.174 75.7 68.174ZM80.7085 63.946C80.7085 63.3953 80.9419 62.9567 81.4085 62.63C81.8845 62.3033 82.5239 62.14 83.3265 62.14C84.1292 62.14 84.7545 62.308 85.2025 62.644C85.6599 62.98 85.8979 63.4047 85.9165 63.918H84.8385C84.7545 63.3113 84.2412 63.008 83.2985 63.008C82.8412 63.008 82.4865 63.1107 82.2345 63.316C81.9919 63.5213 81.8705 63.7453 81.8705 63.988C81.8705 64.2213 81.9639 64.422 82.1505 64.59C82.3372 64.7487 82.6359 64.8887 83.0465 65.01L84.3905 65.458C84.9599 65.6353 85.3939 65.864 85.6925 66.144C86.0005 66.4147 86.1545 66.7927 86.1545 67.278C86.1545 67.754 85.9072 68.188 85.4125 68.58C84.9179 68.9627 84.2272 69.154 83.3405 69.154C82.4539 69.154 81.7632 68.958 81.2685 68.566C80.7739 68.1647 80.5125 67.6513 80.4845 67.026H81.5485C81.5672 67.446 81.7352 67.7633 82.0525 67.978C82.3792 68.1833 82.7852 68.286 83.2705 68.286C83.7559 68.286 84.1572 68.1833 84.4745 67.978C84.7919 67.7727 84.9505 67.53 84.9505 67.25C84.9505 66.9607 84.8572 66.7413 84.6705 66.592C84.4839 66.4427 84.1805 66.312 83.7605 66.2L82.4585 65.766C81.2919 65.4207 80.7085 64.814 80.7085 63.946ZM92.9777 67.67C92.5203 68.6407 91.7783 69.126 90.7517 69.126C89.9957 69.126 89.3843 68.916 88.9177 68.496C88.4603 68.076 88.2317 67.4273 88.2317 66.55V62.294H89.3377V66.466C89.3377 67.5953 89.8603 68.16 90.9057 68.16C91.5123 68.16 92.0023 67.9267 92.3757 67.46C92.7583 66.9933 92.959 66.396 92.9777 65.668V62.294H94.0837V69H92.9777V67.67ZM97.9819 63.596C98.4206 62.6253 99.1719 62.14 100.236 62.14C100.815 62.14 101.3 62.2847 101.692 62.574C102.084 62.854 102.369 63.246 102.546 63.75C102.966 62.6767 103.745 62.14 104.884 62.14C105.687 62.14 106.307 62.4013 106.746 62.924C107.185 63.4467 107.404 64.1607 107.404 65.066V69H106.312V65.066C106.312 64.422 106.158 63.9367 105.85 63.61C105.551 63.2833 105.117 63.12 104.548 63.12C103.979 63.12 103.535 63.3533 103.218 63.82C102.91 64.2867 102.756 64.9307 102.756 65.752V69H101.664V65.066C101.664 64.422 101.51 63.9367 101.202 63.61C100.903 63.2833 100.474 63.12 99.9139 63.12C99.3539 63.12 98.9012 63.3487 98.5559 63.806C98.2106 64.2633 98.0286 64.898 98.0099 65.71V69H96.9039V62.308H97.8559L97.9819 63.596ZM117.72 63.302V59.466H118.812V69H117.916L117.776 67.88C117.561 68.3 117.276 68.6173 116.922 68.832C116.567 69.0467 116.18 69.154 115.76 69.154C114.91 69.154 114.196 68.8273 113.618 68.174C113.048 67.5207 112.764 66.6713 112.764 65.626C112.764 64.5713 113.044 63.7267 113.604 63.092C114.173 62.4573 114.887 62.14 115.746 62.14C116.614 62.14 117.272 62.5273 117.72 63.302ZM115.816 63.12C115.274 63.12 114.817 63.3487 114.444 63.806C114.08 64.2633 113.898 64.8747 113.898 65.64C113.898 66.4053 114.084 67.0213 114.458 67.488C114.831 67.9453 115.279 68.174 115.802 68.174C116.324 68.174 116.768 68.0013 117.132 67.656C117.505 67.3013 117.701 66.83 117.72 66.242V65.15C117.72 64.5247 117.538 64.03 117.174 63.666C116.81 63.302 116.357 63.12 115.816 63.12ZM124.058 62.14C124.992 62.14 125.743 62.4433 126.312 63.05C126.891 63.6567 127.18 64.5247 127.18 65.654C127.18 66.774 126.891 67.6373 126.312 68.244C125.743 68.8507 124.992 69.154 124.058 69.154C123.125 69.154 122.369 68.8507 121.79 68.244C121.221 67.6373 120.936 66.774 120.936 65.654C120.936 64.5247 121.221 63.6567 121.79 63.05C122.369 62.4433 123.125 62.14 124.058 62.14ZM126.06 65.654C126.06 64.8513 125.892 64.226 125.556 63.778C125.22 63.3207 124.726 63.092 124.072 63.092C123.428 63.092 122.934 63.3207 122.588 63.778C122.243 64.226 122.07 64.8513 122.07 65.654C122.07 66.4473 122.234 67.0727 122.56 67.53C122.887 67.978 123.372 68.202 124.016 68.202C124.67 68.202 125.174 67.978 125.528 67.53C125.883 67.0727 126.06 66.4473 126.06 65.654ZM129.293 59.466H130.399V69H129.293V59.466ZM135.625 62.14C136.558 62.14 137.309 62.4433 137.879 63.05C138.457 63.6567 138.747 64.5247 138.747 65.654C138.747 66.774 138.457 67.6373 137.879 68.244C137.309 68.8507 136.558 69.154 135.625 69.154C134.691 69.154 133.935 68.8507 133.357 68.244C132.787 67.6373 132.503 66.774 132.503 65.654C132.503 64.5247 132.787 63.6567 133.357 63.05C133.935 62.4433 134.691 62.14 135.625 62.14ZM137.627 65.654C137.627 64.8513 137.459 64.226 137.123 63.778C136.787 63.3207 136.292 63.092 135.639 63.092C134.995 63.092 134.5 63.3207 134.155 63.778C133.809 64.226 133.637 64.8513 133.637 65.654C133.637 66.4473 133.8 67.0727 134.127 67.53C134.453 67.978 134.939 68.202 135.583 68.202C136.236 68.202 136.74 67.978 137.095 67.53C137.449 67.0727 137.627 66.4473 137.627 65.654ZM143.589 63.246C142.535 63.246 141.989 64.0767 141.951 65.738V69H140.845V62.294H141.951V63.582C142.287 62.6487 142.88 62.182 143.729 62.182C144 62.182 144.257 62.224 144.499 62.308L144.443 63.386C144.163 63.2927 143.879 63.246 143.589 63.246ZM149.177 63.946C149.177 63.3953 149.411 62.9567 149.877 62.63C150.353 62.3033 150.993 62.14 151.795 62.14C152.598 62.14 153.223 62.308 153.671 62.644C154.129 62.98 154.367 63.4047 154.385 63.918H153.307C153.223 63.3113 152.71 63.008 151.767 63.008C151.31 63.008 150.955 63.1107 150.703 63.316C150.461 63.5213 150.339 63.7453 150.339 63.988C150.339 64.2213 150.433 64.422 150.619 64.59C150.806 64.7487 151.105 64.8887 151.515 65.01L152.859 65.458C153.429 65.6353 153.863 65.864 154.161 66.144C154.469 66.4147 154.623 66.7927 154.623 67.278C154.623 67.754 154.376 68.188 153.881 68.58C153.387 68.9627 152.696 69.154 151.809 69.154C150.923 69.154 150.232 68.958 149.737 68.566C149.243 68.1647 148.981 67.6513 148.953 67.026H150.017C150.036 67.446 150.204 67.7633 150.521 67.978C150.848 68.1833 151.254 68.286 151.739 68.286C152.225 68.286 152.626 68.1833 152.943 67.978C153.261 67.7727 153.419 67.53 153.419 67.25C153.419 66.9607 153.326 66.7413 153.139 66.592C152.953 66.4427 152.649 66.312 152.229 66.2L150.927 65.766C149.761 65.4207 149.177 64.814 149.177 63.946ZM156.966 62.294H158.072V69H156.966V62.294ZM157.512 60.726C157.288 60.726 157.111 60.6653 156.98 60.544C156.859 60.4133 156.798 60.2453 156.798 60.04C156.798 59.8253 156.859 59.6573 156.98 59.536C157.111 59.4053 157.288 59.34 157.512 59.34C157.736 59.34 157.914 59.4053 158.044 59.536C158.184 59.6573 158.254 59.8253 158.254 60.04C158.254 60.2453 158.184 60.4133 158.044 60.544C157.914 60.6653 157.736 60.726 157.512 60.726ZM164.58 68.804C163.777 69.1773 163.045 69.2567 162.382 69.042C161.906 68.8927 161.57 68.58 161.374 68.104C161.271 67.8707 161.22 67.5907 161.22 67.264V63.148H160.142V62.308H161.22V60.446H162.312V62.308H164.412V63.148H162.312V67.25C162.312 67.9313 162.629 68.272 163.264 68.272C163.609 68.272 163.997 68.188 164.426 68.02L164.58 68.804ZM173.824 64.66C173.824 64.0533 173.698 63.6193 173.446 63.358C173.194 63.0967 172.825 62.966 172.34 62.966C171.864 62.966 171.476 63.064 171.178 63.26C170.888 63.4467 170.744 63.7453 170.744 64.156H169.526C169.526 63.1293 170.076 62.4947 171.178 62.252C171.514 62.1773 171.878 62.14 172.27 62.14C173.1 62.14 173.749 62.35 174.216 62.77C174.682 63.19 174.916 63.8293 174.916 64.688V69H173.964L173.852 67.88C173.441 68.7293 172.699 69.154 171.626 69.154C170.907 69.154 170.328 68.9533 169.89 68.552C169.46 68.1507 169.246 67.6513 169.246 67.054C169.246 66.4567 169.484 65.99 169.96 65.654C170.445 65.318 171.047 65.15 171.766 65.15C172.484 65.15 173.17 65.2713 173.824 65.514V64.66ZM173.824 66.214C173.161 66.0273 172.582 65.934 172.088 65.934C171.593 65.934 171.192 66.0227 170.884 66.2C170.576 66.3773 170.422 66.6573 170.422 67.04C170.422 67.88 170.898 68.3 171.85 68.3C172.391 68.3 172.853 68.1087 173.236 67.726C173.628 67.334 173.824 66.83 173.824 66.214ZM178.578 63.596C179.016 62.6253 179.768 62.14 180.832 62.14C181.41 62.14 181.896 62.2847 182.288 62.574C182.68 62.854 182.964 63.246 183.142 63.75C183.562 62.6767 184.341 62.14 185.48 62.14C186.282 62.14 186.903 62.4013 187.342 62.924C187.78 63.4467 188 64.1607 188 65.066V69H186.908V65.066C186.908 64.422 186.754 63.9367 186.446 63.61C186.147 63.2833 185.713 63.12 185.144 63.12C184.574 63.12 184.131 63.3533 183.814 63.82C183.506 64.2867 183.352 64.9307 183.352 65.752V69H182.26V65.066C182.26 64.422 182.106 63.9367 181.798 63.61C181.499 63.2833 181.07 63.12 180.51 63.12C179.95 63.12 179.497 63.3487 179.152 63.806C178.806 64.2633 178.624 64.898 178.606 65.71V69H177.5V62.308H178.452L178.578 63.596ZM192.908 68.258C193.832 68.258 194.359 67.852 194.49 67.04H195.624C195.521 67.712 195.222 68.2347 194.728 68.608C194.242 68.972 193.636 69.154 192.908 69.154C192.012 69.154 191.284 68.8367 190.724 68.202C190.164 67.558 189.884 66.704 189.884 65.64C189.884 64.576 190.164 63.7267 190.724 63.092C191.293 62.4573 192.044 62.14 192.978 62.14C193.92 62.14 194.62 62.504 195.078 63.232C195.544 63.96 195.708 64.8467 195.568 65.892H190.99C190.99 66.5827 191.158 67.152 191.494 67.6C191.83 68.0387 192.301 68.258 192.908 68.258ZM193.72 63.19C193.505 63.078 193.244 63.022 192.936 63.022C192.366 63.022 191.914 63.218 191.578 63.61C191.251 63.9927 191.06 64.4733 191.004 65.052H194.574C194.574 64.1187 194.289 63.498 193.72 63.19ZM201.303 68.804C200.5 69.1773 199.767 69.2567 199.105 69.042C198.629 68.8927 198.293 68.58 198.097 68.104C197.994 67.8707 197.943 67.5907 197.943 67.264V63.148H196.865V62.308H197.943V60.446H199.035V62.308H201.135V63.148H199.035V67.25C199.035 67.9313 199.352 68.272 199.987 68.272C200.332 68.272 200.719 68.188 201.149 68.02L201.303 68.804ZM203.122 69.07C202.908 69.0513 202.73 68.9813 202.59 68.86C202.45 68.7387 202.38 68.5753 202.38 68.37C202.38 68.1647 202.45 67.992 202.59 67.852C202.74 67.712 202.945 67.642 203.206 67.642C203.477 67.642 203.701 67.7493 203.878 67.964C204.056 68.1693 204.144 68.4307 204.144 68.748C204.144 69.0653 204.042 69.3873 203.836 69.714C203.631 70.05 203.318 70.3207 202.898 70.526L202.072 70.12C202.651 69.84 203.001 69.49 203.122 69.07ZM211.568 62.14C212.361 62.14 212.991 62.3453 213.458 62.756C213.924 63.1573 214.228 63.6613 214.368 64.268L213.248 64.366C213.126 63.974 212.93 63.6707 212.66 63.456C212.389 63.232 212.09 63.12 211.764 63.12C211.166 63.12 210.681 63.344 210.308 63.792C209.944 64.24 209.762 64.8513 209.762 65.626C209.762 66.3913 209.939 67.0073 210.294 67.474C210.658 67.9407 211.106 68.174 211.638 68.174C212.179 68.174 212.58 68.0527 212.842 67.81C213.112 67.558 213.248 67.2033 213.248 66.746H214.382C214.382 67.4647 214.13 68.048 213.626 68.496C213.131 68.9347 212.482 69.154 211.68 69.154C210.83 69.154 210.107 68.832 209.51 68.188C208.922 67.544 208.628 66.69 208.628 65.626C208.628 64.5527 208.922 63.7033 209.51 63.078C210.098 62.4527 210.784 62.14 211.568 62.14ZM218.955 62.14C219.888 62.14 220.639 62.4433 221.209 63.05C221.787 63.6567 222.077 64.5247 222.077 65.654C222.077 66.774 221.787 67.6373 221.209 68.244C220.639 68.8507 219.888 69.154 218.955 69.154C218.021 69.154 217.265 68.8507 216.687 68.244C216.117 67.6373 215.833 66.774 215.833 65.654C215.833 64.5247 216.117 63.6567 216.687 63.05C217.265 62.4433 218.021 62.14 218.955 62.14ZM220.957 65.654C220.957 64.8513 220.789 64.226 220.453 63.778C220.117 63.3207 219.622 63.092 218.969 63.092C218.325 63.092 217.83 63.3207 217.485 63.778C217.139 64.226 216.967 64.8513 216.967 65.654C216.967 66.4473 217.13 67.0727 217.457 67.53C217.783 67.978 218.269 68.202 218.913 68.202C219.566 68.202 220.07 67.978 220.425 67.53C220.779 67.0727 220.957 66.4473 220.957 65.654ZM225.253 63.596C225.692 62.6253 226.443 62.14 227.507 62.14C228.301 62.14 228.917 62.4013 229.355 62.924C229.803 63.4467 230.027 64.1607 230.027 65.066V69H228.935V65.066C228.935 64.422 228.781 63.9367 228.473 63.61C228.175 63.2833 227.745 63.12 227.185 63.12C226.625 63.12 226.173 63.3487 225.827 63.806C225.482 64.2633 225.3 64.898 225.281 65.71V69H224.175V62.308H225.127L225.253 63.596ZM232.275 63.946C232.275 63.3953 232.508 62.9567 232.975 62.63C233.451 62.3033 234.09 62.14 234.893 62.14C235.696 62.14 236.321 62.308 236.769 62.644C237.226 62.98 237.464 63.4047 237.483 63.918H236.405C236.321 63.3113 235.808 63.008 234.865 63.008C234.408 63.008 234.053 63.1107 233.801 63.316C233.558 63.5213 233.437 63.7453 233.437 63.988C233.437 64.2213 233.53 64.422 233.717 64.59C233.904 64.7487 234.202 64.8887 234.613 65.01L235.957 65.458C236.526 65.6353 236.96 65.864 237.259 66.144C237.567 66.4147 237.721 66.7927 237.721 67.278C237.721 67.754 237.474 68.188 236.979 68.58C236.484 68.9627 235.794 69.154 234.907 69.154C234.02 69.154 233.33 68.958 232.835 68.566C232.34 68.1647 232.079 67.6513 232.051 67.026H233.115C233.134 67.446 233.302 67.7633 233.619 67.978C233.946 68.1833 234.352 68.286 234.837 68.286C235.322 68.286 235.724 68.1833 236.041 67.978C236.358 67.7727 236.517 67.53 236.517 67.25C236.517 66.9607 236.424 66.7413 236.237 66.592C236.05 66.4427 235.747 66.312 235.327 66.2L234.025 65.766C232.858 65.4207 232.275 64.814 232.275 63.946ZM242.304 68.258C243.228 68.258 243.755 67.852 243.886 67.04H245.02C244.917 67.712 244.619 68.2347 244.124 68.608C243.639 68.972 243.032 69.154 242.304 69.154C241.408 69.154 240.68 68.8367 240.12 68.202C239.56 67.558 239.28 66.704 239.28 65.64C239.28 64.576 239.56 63.7267 240.12 63.092C240.689 62.4573 241.441 62.14 242.374 62.14C243.317 62.14 244.017 62.504 244.474 63.232C244.941 63.96 245.104 64.8467 244.964 65.892H240.386C240.386 66.5827 240.554 67.152 240.89 67.6C241.226 68.0387 241.697 68.258 242.304 68.258ZM243.116 63.19C242.901 63.078 242.64 63.022 242.332 63.022C241.763 63.022 241.31 63.218 240.974 63.61C240.647 63.9927 240.456 64.4733 240.4 65.052H243.97C243.97 64.1187 243.685 63.498 243.116 63.19ZM249.425 62.14C250.218 62.14 250.848 62.3453 251.315 62.756C251.782 63.1573 252.085 63.6613 252.225 64.268L251.105 64.366C250.984 63.974 250.788 63.6707 250.517 63.456C250.246 63.232 249.948 63.12 249.621 63.12C249.024 63.12 248.538 63.344 248.165 63.792C247.801 64.24 247.619 64.8513 247.619 65.626C247.619 66.3913 247.796 67.0073 248.151 67.474C248.515 67.9407 248.963 68.174 249.495 68.174C250.036 68.174 250.438 68.0527 250.699 67.81C250.97 67.558 251.105 67.2033 251.105 66.746H252.239C252.239 67.4647 251.987 68.048 251.483 68.496C250.988 68.9347 250.34 69.154 249.537 69.154C248.688 69.154 247.964 68.832 247.367 68.188C246.779 67.544 246.485 66.69 246.485 65.626C246.485 64.5527 246.779 63.7033 247.367 63.078C247.955 62.4527 248.641 62.14 249.425 62.14ZM257.904 68.804C257.102 69.1773 256.369 69.2567 255.706 69.042C255.23 68.8927 254.894 68.58 254.698 68.104C254.596 67.8707 254.544 67.5907 254.544 67.264V63.148H253.466V62.308H254.544V60.446H255.636V62.308H257.736V63.148H255.636V67.25C255.636 67.9313 255.954 68.272 256.588 68.272C256.934 68.272 257.321 68.188 257.75 68.02L257.904 68.804ZM261.978 68.258C262.902 68.258 263.429 67.852 263.56 67.04H264.694C264.591 67.712 264.293 68.2347 263.798 68.608C263.313 68.972 262.706 69.154 261.978 69.154C261.082 69.154 260.354 68.8367 259.794 68.202C259.234 67.558 258.954 66.704 258.954 65.64C258.954 64.576 259.234 63.7267 259.794 63.092C260.363 62.4573 261.115 62.14 262.048 62.14C262.991 62.14 263.691 62.504 264.148 63.232C264.615 63.96 264.778 64.8467 264.638 65.892H260.06C260.06 66.5827 260.228 67.152 260.564 67.6C260.9 68.0387 261.371 68.258 261.978 68.258ZM262.79 63.19C262.575 63.078 262.314 63.022 262.006 63.022C261.437 63.022 260.984 63.218 260.648 63.61C260.321 63.9927 260.13 64.4733 260.074 65.052H263.644C263.644 64.1187 263.359 63.498 262.79 63.19ZM270.373 68.804C269.57 69.1773 268.838 69.2567 268.175 69.042C267.699 68.8927 267.363 68.58 267.167 68.104C267.064 67.8707 267.013 67.5907 267.013 67.264V63.148H265.935V62.308H267.013V60.446H268.105V62.308H270.205V63.148H268.105V67.25C268.105 67.9313 268.422 68.272 269.057 68.272C269.402 68.272 269.79 68.188 270.219 68.02L270.373 68.804ZM276.687 67.67C276.229 68.6407 275.487 69.126 274.461 69.126C273.705 69.126 273.093 68.916 272.627 68.496C272.169 68.076 271.941 67.4273 271.941 66.55V62.294H273.047V66.466C273.047 67.5953 273.569 68.16 274.615 68.16C275.221 68.16 275.711 67.9267 276.085 67.46C276.467 66.9933 276.668 66.396 276.687 65.668V62.294H277.793V69H276.687V67.67ZM283.357 63.246C282.302 63.246 281.756 64.0767 281.719 65.738V69H280.613V62.294H281.719V63.582C282.055 62.6487 282.648 62.182 283.497 62.182C283.768 62.182 284.024 62.224 284.267 62.308L284.211 63.386C283.931 63.2927 283.646 63.246 283.357 63.246ZM293.439 64.66C293.439 64.0533 293.313 63.6193 293.061 63.358C292.809 63.0967 292.44 62.966 291.955 62.966C291.479 62.966 291.092 63.064 290.793 63.26C290.504 63.4467 290.359 63.7453 290.359 64.156H289.141C289.141 63.1293 289.692 62.4947 290.793 62.252C291.129 62.1773 291.493 62.14 291.885 62.14C292.716 62.14 293.364 62.35 293.831 62.77C294.298 63.19 294.531 63.8293 294.531 64.688V69H293.579L293.467 67.88C293.056 68.7293 292.314 69.154 291.241 69.154C290.522 69.154 289.944 68.9533 289.505 68.552C289.076 68.1507 288.861 67.6513 288.861 67.054C288.861 66.4567 289.099 65.99 289.575 65.654C290.06 65.318 290.662 65.15 291.381 65.15C292.1 65.15 292.786 65.2713 293.439 65.514V64.66ZM293.439 66.214C292.776 66.0273 292.198 65.934 291.703 65.934C291.208 65.934 290.807 66.0227 290.499 66.2C290.191 66.3773 290.037 66.6573 290.037 67.04C290.037 67.88 290.513 68.3 291.465 68.3C292.006 68.3 292.468 68.1087 292.851 67.726C293.243 67.334 293.439 66.83 293.439 66.214ZM301.511 63.302V59.466H302.603V69H301.707L301.567 67.88C301.352 68.3 301.068 68.6173 300.713 68.832C300.358 69.0467 299.971 69.154 299.551 69.154C298.702 69.154 297.988 68.8273 297.409 68.174C296.84 67.5207 296.555 66.6713 296.555 65.626C296.555 64.5713 296.835 63.7267 297.395 63.092C297.964 62.4573 298.678 62.14 299.537 62.14C300.405 62.14 301.063 62.5273 301.511 63.302ZM299.607 63.12C299.066 63.12 298.608 63.3487 298.235 63.806C297.871 64.2633 297.689 64.8747 297.689 65.64C297.689 66.4053 297.876 67.0213 298.249 67.488C298.622 67.9453 299.07 68.174 299.593 68.174C300.116 68.174 300.559 68.0013 300.923 67.656C301.296 67.3013 301.492 66.83 301.511 66.242V65.15C301.511 64.5247 301.329 64.03 300.965 63.666C300.601 63.302 300.148 63.12 299.607 63.12ZM305.511 62.294H306.617V69H305.511V62.294ZM306.057 60.726C305.833 60.726 305.656 60.6653 305.525 60.544C305.404 60.4133 305.343 60.2453 305.343 60.04C305.343 59.8253 305.404 59.6573 305.525 59.536C305.656 59.4053 305.833 59.34 306.057 59.34C306.281 59.34 306.459 59.4053 306.589 59.536C306.729 59.6573 306.799 59.8253 306.799 60.04C306.799 60.2453 306.729 60.4133 306.589 60.544C306.459 60.6653 306.281 60.726 306.057 60.726ZM310.661 63.33C311.1 62.5367 311.753 62.14 312.621 62.14C313.498 62.14 314.226 62.462 314.805 63.106C315.393 63.75 315.687 64.5993 315.687 65.654C315.687 66.7087 315.393 67.558 314.805 68.202C314.217 68.8367 313.494 69.154 312.635 69.154C311.776 69.154 311.142 68.832 310.731 68.188V72.29H309.625V62.308H310.535L310.661 63.33ZM312.579 68.174C313.102 68.174 313.559 67.95 313.951 67.502C314.352 67.054 314.553 66.4427 314.553 65.668C314.553 64.884 314.362 64.2633 313.979 63.806C313.606 63.3487 313.148 63.12 312.607 63.12C312.066 63.12 311.622 63.2927 311.277 63.638C310.932 63.974 310.75 64.4313 310.731 65.01V66.284C310.731 66.872 310.908 67.334 311.263 67.67C311.618 68.006 312.056 68.174 312.579 68.174ZM318.007 62.294H319.113V69H318.007V62.294ZM318.553 60.726C318.329 60.726 318.152 60.6653 318.021 60.544C317.9 60.4133 317.839 60.2453 317.839 60.04C317.839 59.8253 317.9 59.6573 318.021 59.536C318.152 59.4053 318.329 59.34 318.553 59.34C318.777 59.34 318.955 59.4053 319.085 59.536C319.225 59.6573 319.295 59.8253 319.295 60.04C319.295 60.2453 319.225 60.4133 319.085 60.544C318.955 60.6653 318.777 60.726 318.553 60.726ZM321.771 63.946C321.771 63.3953 322.004 62.9567 322.471 62.63C322.947 62.3033 323.586 62.14 324.389 62.14C325.192 62.14 325.817 62.308 326.265 62.644C326.722 62.98 326.96 63.4047 326.979 63.918H325.901C325.817 63.3113 325.304 63.008 324.361 63.008C323.904 63.008 323.549 63.1107 323.297 63.316C323.054 63.5213 322.933 63.7453 322.933 63.988C322.933 64.2213 323.026 64.422 323.213 64.59C323.4 64.7487 323.698 64.8887 324.109 65.01L325.453 65.458C326.022 65.6353 326.456 65.864 326.755 66.144C327.063 66.4147 327.217 66.7927 327.217 67.278C327.217 67.754 326.97 68.188 326.475 68.58C325.98 68.9627 325.29 69.154 324.403 69.154C323.516 69.154 322.826 68.958 322.331 68.566C321.836 68.1647 321.575 67.6513 321.547 67.026H322.611C322.63 67.446 322.798 67.7633 323.115 67.978C323.442 68.1833 323.848 68.286 324.333 68.286C324.818 68.286 325.22 68.1833 325.537 67.978C325.854 67.7727 326.013 67.53 326.013 67.25C326.013 66.9607 325.92 66.7413 325.733 66.592C325.546 66.4427 325.243 66.312 324.823 66.2L323.521 65.766C322.354 65.4207 321.771 64.814 321.771 63.946ZM331.716 62.14C332.51 62.14 333.14 62.3453 333.606 62.756C334.073 63.1573 334.376 63.6613 334.516 64.268L333.396 64.366C333.275 63.974 333.079 63.6707 332.808 63.456C332.538 63.232 332.239 63.12 331.912 63.12C331.315 63.12 330.83 63.344 330.456 63.792C330.092 64.24 329.91 64.8513 329.91 65.626C329.91 66.3913 330.088 67.0073 330.442 67.474C330.806 67.9407 331.254 68.174 331.786 68.174C332.328 68.174 332.729 68.0527 332.99 67.81C333.261 67.558 333.396 67.2033 333.396 66.746H334.53C334.53 67.4647 334.278 68.048 333.774 68.496C333.28 68.9347 332.631 69.154 331.828 69.154C330.979 69.154 330.256 68.832 329.658 68.188C329.07 67.544 328.776 66.69 328.776 65.626C328.776 64.5527 329.07 63.7033 329.658 63.078C330.246 62.4527 330.932 62.14 331.716 62.14ZM336.765 62.294H337.871V69H336.765V62.294ZM337.311 60.726C337.087 60.726 336.91 60.6653 336.779 60.544C336.658 60.4133 336.597 60.2453 336.597 60.04C336.597 59.8253 336.658 59.6573 336.779 59.536C336.91 59.4053 337.087 59.34 337.311 59.34C337.535 59.34 337.713 59.4053 337.843 59.536C337.983 59.6573 338.053 59.8253 338.053 60.04C338.053 60.2453 337.983 60.4133 337.843 60.544C337.713 60.6653 337.535 60.726 337.311 60.726ZM341.943 63.596C342.382 62.6253 343.133 62.14 344.197 62.14C344.99 62.14 345.606 62.4013 346.045 62.924C346.493 63.4467 346.717 64.1607 346.717 65.066V69H345.625V65.066C345.625 64.422 345.471 63.9367 345.163 63.61C344.864 63.2833 344.435 63.12 343.875 63.12C343.315 63.12 342.862 63.3487 342.517 63.806C342.172 64.2633 341.99 64.898 341.971 65.71V69H340.865V62.308H341.817L341.943 63.596ZM349.594 68.79C349.034 68.5193 348.754 68.104 348.754 67.544C348.754 67.2547 348.862 67.0027 349.076 66.788C349.3 66.564 349.576 66.4147 349.902 66.34C349.398 65.892 349.146 65.304 349.146 64.576C349.146 63.848 349.403 63.26 349.916 62.812C350.439 62.364 351.055 62.14 351.764 62.14C352.474 62.14 353.076 62.308 353.57 62.644C353.636 62.1493 353.832 61.7527 354.158 61.454C354.494 61.1553 354.933 61.006 355.474 61.006L355.376 62.098C354.555 62.098 354.126 62.4433 354.088 63.134C354.415 63.5353 354.578 64.016 354.578 64.576C354.578 65.2947 354.317 65.8873 353.794 66.354C353.281 66.8113 352.637 67.04 351.862 67.04C351.33 67.04 350.859 66.9327 350.448 66.718C350.262 66.7553 350.094 66.844 349.944 66.984C349.795 67.1147 349.72 67.2967 349.72 67.53C349.72 68.0247 350.131 68.272 350.952 68.272H353.556C354.182 68.272 354.676 68.4073 355.04 68.678C355.404 68.9393 355.586 69.308 355.586 69.784C355.586 70.4933 355.227 71.114 354.508 71.646C353.799 72.178 352.898 72.444 351.806 72.444C350.714 72.444 349.856 72.2387 349.23 71.828C348.605 71.4267 348.292 70.918 348.292 70.302C348.292 69.9007 348.409 69.574 348.642 69.322C348.885 69.07 349.202 68.8927 349.594 68.79ZM349.384 70.26C349.384 70.6147 349.576 70.918 349.958 71.17C350.35 71.4313 350.938 71.562 351.722 71.562C352.516 71.562 353.174 71.3893 353.696 71.044C354.228 70.708 354.494 70.3113 354.494 69.854C354.494 69.6393 354.415 69.4527 354.256 69.294C354.107 69.1447 353.874 69.07 353.556 69.07H350.854C350.378 69.0887 350.014 69.2007 349.762 69.406C349.51 69.6207 349.384 69.9053 349.384 70.26ZM353.5 64.576C353.5 64.0907 353.356 63.6987 353.066 63.4C352.777 63.092 352.376 62.938 351.862 62.938C351.358 62.938 350.962 63.092 350.672 63.4C350.383 63.6987 350.238 64.0907 350.238 64.576C350.238 65.0613 350.383 65.4627 350.672 65.78C350.971 66.088 351.372 66.242 351.876 66.242C352.38 66.242 352.777 66.0833 353.066 65.766C353.356 65.4487 353.5 65.052 353.5 64.576ZM27.724 84.258C28.648 84.258 29.1753 83.852 29.306 83.04H30.44C30.3373 83.712 30.0387 84.2347 29.544 84.608C29.0587 84.972 28.452 85.154 27.724 85.154C26.828 85.154 26.1 84.8367 25.54 84.202C24.98 83.558 24.7 82.704 24.7 81.64C24.7 80.576 24.98 79.7267 25.54 79.092C26.1093 78.4573 26.8607 78.14 27.794 78.14C28.7367 78.14 29.4367 78.504 29.894 79.232C30.3607 79.96 30.524 80.8467 30.384 81.892H25.806C25.806 82.5827 25.974 83.152 26.31 83.6C26.646 84.0387 27.1173 84.258 27.724 84.258ZM28.536 79.19C28.3213 79.078 28.06 79.022 27.752 79.022C27.1827 79.022 26.73 79.218 26.394 79.61C26.0673 79.9927 25.876 80.4733 25.82 81.052H29.39C29.39 80.1187 29.1053 79.498 28.536 79.19ZM32.6191 75.466H33.7251V85H32.6191V75.466ZM36.6129 78.294H37.7189V85H36.6129V78.294ZM37.1589 76.726C36.9349 76.726 36.7576 76.6653 36.6269 76.544C36.5056 76.4133 36.4449 76.2453 36.4449 76.04C36.4449 75.8253 36.5056 75.6573 36.6269 75.536C36.7576 75.4053 36.9349 75.34 37.1589 75.34C37.3829 75.34 37.5602 75.4053 37.6909 75.536C37.8309 75.6573 37.9009 75.8253 37.9009 76.04C37.9009 76.2453 37.8309 76.4133 37.6909 76.544C37.5602 76.6653 37.3829 76.726 37.1589 76.726ZM44.2265 84.804C43.4238 85.1773 42.6912 85.2567 42.0285 85.042C41.5525 84.8927 41.2165 84.58 41.0205 84.104C40.9178 83.8707 40.8665 83.5907 40.8665 83.264V79.148H39.7885V78.308H40.8665V76.446H41.9585V78.308H44.0585V79.148H41.9585V83.25C41.9585 83.9313 42.2758 84.272 42.9105 84.272C43.2558 84.272 43.6432 84.188 44.0725 84.02L44.2265 84.804ZM45.8082 85.126C45.5748 85.126 45.3788 85.0513 45.2202 84.902C45.0708 84.7433 44.9962 84.5567 44.9962 84.342C44.9962 84.118 45.0708 83.9313 45.2202 83.782C45.3788 83.6233 45.5748 83.544 45.8082 83.544C46.0508 83.544 46.2515 83.6233 46.4102 83.782C46.5688 83.9313 46.6482 84.118 46.6482 84.342C46.6482 84.5567 46.5688 84.7433 46.4102 84.902C46.2515 85.0513 46.0508 85.126 45.8082 85.126ZM56.5181 78.336C56.3594 77.4773 55.7294 77.048 54.6281 77.048C54.0401 77.048 53.5874 77.1787 53.2701 77.44C52.9527 77.692 52.7941 78 52.7941 78.364C52.7941 78.7187 52.8921 78.9893 53.0881 79.176C53.2841 79.3627 53.6014 79.526 54.0401 79.666L55.8741 80.296C56.4994 80.5107 56.9941 80.8047 57.3581 81.178C57.7314 81.5513 57.9181 82.0787 57.9181 82.76C57.9181 83.432 57.6287 84.0013 57.0501 84.468C56.4714 84.9253 55.6967 85.154 54.7261 85.154C53.7554 85.154 52.9574 84.9113 52.3321 84.426C51.7161 83.9313 51.3987 83.2407 51.3801 82.354H52.4581C52.4581 82.9327 52.6587 83.376 53.0601 83.684C53.4707 83.992 53.9934 84.146 54.6281 84.146C55.2721 84.146 55.7807 84.006 56.1541 83.726C56.5274 83.4367 56.7141 83.1007 56.7141 82.718C56.7141 82.326 56.5974 82.018 56.3641 81.794C56.1401 81.57 55.8041 81.3833 55.3561 81.234L53.8021 80.66C53.0741 80.4173 52.5234 80.128 52.1501 79.792C51.7767 79.456 51.5901 78.966 51.5901 78.322C51.5901 77.6687 51.8514 77.1273 52.3741 76.698C52.8967 76.2593 53.6294 76.04 54.5721 76.04C55.5147 76.04 56.2334 76.25 56.7281 76.67C57.2321 77.0807 57.5214 77.636 57.5961 78.336H56.5181ZM64.8546 83.67C64.3973 84.6407 63.6553 85.126 62.6286 85.126C61.8726 85.126 61.2613 84.916 60.7946 84.496C60.3373 84.076 60.1086 83.4273 60.1086 82.55V78.294H61.2146V82.466C61.2146 83.5953 61.7373 84.16 62.7826 84.16C63.3893 84.16 63.8793 83.9267 64.2526 83.46C64.6353 82.9933 64.836 82.396 64.8546 81.668V78.294H65.9606V85H64.8546V83.67ZM68.4449 79.946C68.4449 79.3953 68.6782 78.9567 69.1449 78.63C69.6209 78.3033 70.2602 78.14 71.0629 78.14C71.8655 78.14 72.4909 78.308 72.9389 78.644C73.3962 78.98 73.6342 79.4047 73.6529 79.918H72.5749C72.4909 79.3113 71.9775 79.008 71.0349 79.008C70.5775 79.008 70.2229 79.1107 69.9709 79.316C69.7282 79.5213 69.6069 79.7453 69.6069 79.988C69.6069 80.2213 69.7002 80.422 69.8869 80.59C70.0735 80.7487 70.3722 80.8887 70.7829 81.01L72.1269 81.458C72.6962 81.6353 73.1302 81.864 73.4289 82.144C73.7369 82.4147 73.8909 82.7927 73.8909 83.278C73.8909 83.754 73.6435 84.188 73.1489 84.58C72.6542 84.9627 71.9635 85.154 71.0769 85.154C70.1902 85.154 69.4995 84.958 69.0049 84.566C68.5102 84.1647 68.2489 83.6513 68.2209 83.026H69.2849C69.3035 83.446 69.4715 83.7633 69.7889 83.978C70.1155 84.1833 70.5215 84.286 71.0069 84.286C71.4922 84.286 71.8935 84.1833 72.2109 83.978C72.5282 83.7727 72.6869 83.53 72.6869 83.25C72.6869 82.9607 72.5935 82.7413 72.4069 82.592C72.2202 82.4427 71.9169 82.312 71.4969 82.2L70.1949 81.766C69.0282 81.4207 68.4449 80.814 68.4449 79.946ZM77.2 79.33C77.6387 78.5367 78.292 78.14 79.16 78.14C80.0373 78.14 80.7653 78.462 81.344 79.106C81.932 79.75 82.226 80.5993 82.226 81.654C82.226 82.7087 81.932 83.558 81.344 84.202C80.756 84.8367 80.0327 85.154 79.174 85.154C78.3153 85.154 77.6807 84.832 77.27 84.188V88.29H76.164V78.308H77.074L77.2 79.33ZM79.118 84.174C79.6407 84.174 80.098 83.95 80.49 83.502C80.8913 83.054 81.092 82.4427 81.092 81.668C81.092 80.884 80.9007 80.2633 80.518 79.806C80.1447 79.3487 79.6873 79.12 79.146 79.12C78.6047 79.12 78.1613 79.2927 77.816 79.638C77.4707 79.974 77.2887 80.4313 77.27 81.01V82.284C77.27 82.872 77.4473 83.334 77.802 83.67C78.1567 84.006 78.5953 84.174 79.118 84.174ZM86.7865 84.258C87.7105 84.258 88.2378 83.852 88.3685 83.04H89.5025C89.3998 83.712 89.1012 84.2347 88.6065 84.608C88.1212 84.972 87.5145 85.154 86.7865 85.154C85.8905 85.154 85.1625 84.8367 84.6025 84.202C84.0425 83.558 83.7625 82.704 83.7625 81.64C83.7625 80.576 84.0425 79.7267 84.6025 79.092C85.1718 78.4573 85.9232 78.14 86.8565 78.14C87.7992 78.14 88.4992 78.504 88.9565 79.232C89.4232 79.96 89.5865 80.8467 89.4465 81.892H84.8685C84.8685 82.5827 85.0365 83.152 85.3725 83.6C85.7085 84.0387 86.1798 84.258 86.7865 84.258ZM87.5985 79.19C87.3838 79.078 87.1225 79.022 86.8145 79.022C86.2452 79.022 85.7925 79.218 85.4565 79.61C85.1298 79.9927 84.9385 80.4733 84.8825 81.052H88.4525C88.4525 80.1187 88.1678 79.498 87.5985 79.19ZM92.7456 79.596C93.1842 78.6253 93.9356 78.14 94.9996 78.14C95.7929 78.14 96.4089 78.4013 96.8476 78.924C97.2956 79.4467 97.5196 80.1607 97.5196 81.066V85H96.4276V81.066C96.4276 80.422 96.2736 79.9367 95.9656 79.61C95.6669 79.2833 95.2376 79.12 94.6776 79.12C94.1176 79.12 93.6649 79.3487 93.3196 79.806C92.9742 80.2633 92.7922 80.898 92.7736 81.71V85H91.6676V78.308H92.6196L92.7456 79.596ZM104.499 79.302V75.466H105.591V85H104.695L104.555 83.88C104.34 84.3 104.056 84.6173 103.701 84.832C103.346 85.0467 102.959 85.154 102.539 85.154C101.69 85.154 100.976 84.8273 100.397 84.174C99.8278 83.5207 99.5431 82.6713 99.5431 81.626C99.5431 80.5713 99.8231 79.7267 100.383 79.092C100.952 78.4573 101.666 78.14 102.525 78.14C103.393 78.14 104.051 78.5273 104.499 79.302ZM102.595 79.12C102.054 79.12 101.596 79.3487 101.223 79.806C100.859 80.2633 100.677 80.8747 100.677 81.64C100.677 82.4053 100.864 83.0213 101.237 83.488C101.61 83.9453 102.058 84.174 102.581 84.174C103.104 84.174 103.547 84.0013 103.911 83.656C104.284 83.3013 104.48 82.83 104.499 82.242V81.15C104.499 80.5247 104.317 80.03 103.953 79.666C103.589 79.302 103.136 79.12 102.595 79.12ZM108.5 78.294H109.606V85H108.5V78.294ZM109.046 76.726C108.822 76.726 108.644 76.6653 108.514 76.544C108.392 76.4133 108.332 76.2453 108.332 76.04C108.332 75.8253 108.392 75.6573 108.514 75.536C108.644 75.4053 108.822 75.34 109.046 75.34C109.27 75.34 109.447 75.4053 109.578 75.536C109.718 75.6573 109.788 75.8253 109.788 76.04C109.788 76.2453 109.718 76.4133 109.578 76.544C109.447 76.6653 109.27 76.726 109.046 76.726ZM112.263 79.946C112.263 79.3953 112.497 78.9567 112.963 78.63C113.439 78.3033 114.079 78.14 114.881 78.14C115.684 78.14 116.309 78.308 116.757 78.644C117.215 78.98 117.453 79.4047 117.471 79.918H116.393C116.309 79.3113 115.796 79.008 114.853 79.008C114.396 79.008 114.041 79.1107 113.789 79.316C113.547 79.5213 113.425 79.7453 113.425 79.988C113.425 80.2213 113.519 80.422 113.705 80.59C113.892 80.7487 114.191 80.8887 114.601 81.01L115.945 81.458C116.515 81.6353 116.949 81.864 117.247 82.144C117.555 82.4147 117.709 82.7927 117.709 83.278C117.709 83.754 117.462 84.188 116.967 84.58C116.473 84.9627 115.782 85.154 114.895 85.154C114.009 85.154 113.318 84.958 112.823 84.566C112.329 84.1647 112.067 83.6513 112.039 83.026H113.103C113.122 83.446 113.29 83.7633 113.607 83.978C113.934 84.1833 114.34 84.286 114.825 84.286C115.311 84.286 115.712 84.1833 116.029 83.978C116.347 83.7727 116.505 83.53 116.505 83.25C116.505 82.9607 116.412 82.7413 116.225 82.592C116.039 82.4427 115.735 82.312 115.315 82.2L114.013 81.766C112.847 81.4207 112.263 80.814 112.263 79.946ZM119.632 79.946C119.632 79.3953 119.866 78.9567 120.332 78.63C120.808 78.3033 121.448 78.14 122.25 78.14C123.053 78.14 123.678 78.308 124.126 78.644C124.584 78.98 124.822 79.4047 124.84 79.918H123.762C123.678 79.3113 123.165 79.008 122.222 79.008C121.765 79.008 121.41 79.1107 121.158 79.316C120.916 79.5213 120.794 79.7453 120.794 79.988C120.794 80.2213 120.888 80.422 121.074 80.59C121.261 80.7487 121.56 80.8887 121.97 81.01L123.314 81.458C123.884 81.6353 124.318 81.864 124.616 82.144C124.924 82.4147 125.078 82.7927 125.078 83.278C125.078 83.754 124.831 84.188 124.336 84.58C123.842 84.9627 123.151 85.154 122.264 85.154C121.378 85.154 120.687 84.958 120.192 84.566C119.698 84.1647 119.436 83.6513 119.408 83.026H120.472C120.491 83.446 120.659 83.7633 120.976 83.978C121.303 84.1833 121.709 84.286 122.194 84.286C122.68 84.286 123.081 84.1833 123.398 83.978C123.716 83.7727 123.874 83.53 123.874 83.25C123.874 82.9607 123.781 82.7413 123.594 82.592C123.408 82.4427 123.104 82.312 122.684 82.2L121.382 81.766C120.216 81.4207 119.632 80.814 119.632 79.946ZM129.662 84.258C130.586 84.258 131.113 83.852 131.244 83.04H132.378C132.275 83.712 131.976 84.2347 131.482 84.608C130.996 84.972 130.39 85.154 129.662 85.154C128.766 85.154 128.038 84.8367 127.478 84.202C126.918 83.558 126.638 82.704 126.638 81.64C126.638 80.576 126.918 79.7267 127.478 79.092C128.047 78.4573 128.798 78.14 129.732 78.14C130.674 78.14 131.374 78.504 131.832 79.232C132.298 79.96 132.462 80.8467 132.322 81.892H127.744C127.744 82.5827 127.912 83.152 128.248 83.6C128.584 84.0387 129.055 84.258 129.662 84.258ZM130.474 79.19C130.259 79.078 129.998 79.022 129.69 79.022C129.12 79.022 128.668 79.218 128.332 79.61C128.005 79.9927 127.814 80.4733 127.758 81.052H131.328C131.328 80.1187 131.043 79.498 130.474 79.19ZM142.443 83.67C141.985 84.6407 141.243 85.126 140.217 85.126C139.461 85.126 138.849 84.916 138.383 84.496C137.925 84.076 137.697 83.4273 137.697 82.55V78.294H138.803V82.466C138.803 83.5953 139.325 84.16 140.371 84.16C140.977 84.16 141.467 83.9267 141.841 83.46C142.223 82.9933 142.424 82.396 142.443 81.668V78.294H143.549V85H142.443V83.67ZM149.883 84.804C149.08 85.1773 148.347 85.2567 147.685 85.042C147.209 84.8927 146.873 84.58 146.677 84.104C146.574 83.8707 146.523 83.5907 146.523 83.264V79.148H145.445V78.308H146.523V76.446H147.615V78.308H149.715V79.148H147.615V83.25C147.615 83.9313 147.932 84.272 148.567 84.272C148.912 84.272 149.299 84.188 149.729 84.02L149.883 84.804ZM159.126 80.66C159.126 80.0533 159 79.6193 158.748 79.358C158.496 79.0967 158.128 78.966 157.642 78.966C157.166 78.966 156.779 79.064 156.48 79.26C156.191 79.4467 156.046 79.7453 156.046 80.156H154.828C154.828 79.1293 155.379 78.4947 156.48 78.252C156.816 78.1773 157.18 78.14 157.572 78.14C158.403 78.14 159.052 78.35 159.518 78.77C159.985 79.19 160.218 79.8293 160.218 80.688V85H159.266L159.154 83.88C158.744 84.7293 158.002 85.154 156.928 85.154C156.21 85.154 155.631 84.9533 155.192 84.552C154.763 84.1507 154.548 83.6513 154.548 83.054C154.548 82.4567 154.786 81.99 155.262 81.654C155.748 81.318 156.35 81.15 157.068 81.15C157.787 81.15 158.473 81.2713 159.126 81.514V80.66ZM159.126 82.214C158.464 82.0273 157.885 81.934 157.39 81.934C156.896 81.934 156.494 82.0227 156.186 82.2C155.878 82.3773 155.724 82.6573 155.724 83.04C155.724 83.88 156.2 84.3 157.152 84.3C157.694 84.3 158.156 84.1087 158.538 83.726C158.93 83.334 159.126 82.83 159.126 82.214ZM162.816 75.466H163.922V85H162.816V75.466ZM166.81 78.294H167.916V85H166.81V78.294ZM167.356 76.726C167.132 76.726 166.955 76.6653 166.824 76.544C166.703 76.4133 166.642 76.2453 166.642 76.04C166.642 75.8253 166.703 75.6573 166.824 75.536C166.955 75.4053 167.132 75.34 167.356 75.34C167.58 75.34 167.758 75.4053 167.888 75.536C168.028 75.6573 168.098 75.8253 168.098 76.04C168.098 76.2453 168.028 76.4133 167.888 76.544C167.758 76.6653 167.58 76.726 167.356 76.726ZM173.206 78.14C174.158 78.14 174.848 78.56 175.278 79.4L175.516 78.308H176.272V86.134C176.272 86.5913 176.323 86.8947 176.426 87.044C176.538 87.2027 176.659 87.3147 176.79 87.38C176.93 87.4547 177.098 87.5247 177.294 87.59L176.93 88.444C176.295 88.276 175.842 88.01 175.572 87.646C175.31 87.282 175.18 86.7547 175.18 86.064V83.936C174.797 84.748 174.167 85.154 173.29 85.154C172.422 85.154 171.694 84.8367 171.106 84.202C170.518 83.558 170.224 82.7087 170.224 81.654C170.224 80.5993 170.513 79.75 171.092 79.106C171.68 78.462 172.384 78.14 173.206 78.14ZM173.304 79.12C172.762 79.12 172.3 79.3487 171.918 79.806C171.544 80.2633 171.358 80.884 171.358 81.668C171.358 82.4427 171.558 83.054 171.96 83.502C172.361 83.95 172.828 84.174 173.36 84.174C174.125 84.174 174.671 83.8333 174.998 83.152C175.11 82.9373 175.17 82.6807 175.18 82.382V81.108C175.18 80.492 175.002 80.0067 174.648 79.652C174.293 79.2973 173.845 79.12 173.304 79.12ZM183.663 83.67C183.206 84.6407 182.464 85.126 181.437 85.126C180.681 85.126 180.07 84.916 179.603 84.496C179.146 84.076 178.917 83.4273 178.917 82.55V78.294H180.023V82.466C180.023 83.5953 180.546 84.16 181.591 84.16C182.198 84.16 182.688 83.9267 183.061 83.46C183.444 82.9933 183.645 82.396 183.663 81.668V78.294H184.769V85H183.663V83.67ZM189.913 84.258C190.837 84.258 191.365 83.852 191.495 83.04H192.629C192.527 83.712 192.228 84.2347 191.733 84.608C191.248 84.972 190.641 85.154 189.913 85.154C189.017 85.154 188.289 84.8367 187.729 84.202C187.169 83.558 186.889 82.704 186.889 81.64C186.889 80.576 187.169 79.7267 187.729 79.092C188.299 78.4573 189.05 78.14 189.983 78.14C190.926 78.14 191.626 78.504 192.083 79.232C192.55 79.96 192.713 80.8467 192.573 81.892H187.995C187.995 82.5827 188.163 83.152 188.499 83.6C188.835 84.0387 189.307 84.258 189.913 84.258ZM190.725 79.19C190.511 79.078 190.249 79.022 189.941 79.022C189.372 79.022 188.919 79.218 188.583 79.61C188.257 79.9927 188.065 80.4733 188.009 81.052H191.579C191.579 80.1187 191.295 79.498 190.725 79.19ZM198.309 84.804C197.506 85.1773 196.773 85.2567 196.111 85.042C195.635 84.8927 195.299 84.58 195.103 84.104C195 83.8707 194.949 83.5907 194.949 83.264V79.148H193.871V78.308H194.949V76.446H196.041V78.308H198.141V79.148H196.041V83.25C196.041 83.9313 196.358 84.272 196.993 84.272C197.338 84.272 197.725 84.188 198.155 84.02L198.309 84.804ZM207.552 80.66C207.552 80.0533 207.426 79.6193 207.174 79.358C206.922 79.0967 206.553 78.966 206.068 78.966C205.592 78.966 205.205 79.064 204.906 79.26C204.617 79.4467 204.472 79.7453 204.472 80.156H203.254C203.254 79.1293 203.805 78.4947 204.906 78.252C205.242 78.1773 205.606 78.14 205.998 78.14C206.829 78.14 207.477 78.35 207.944 78.77C208.411 79.19 208.644 79.8293 208.644 80.688V85H207.692L207.58 83.88C207.169 84.7293 206.427 85.154 205.354 85.154C204.635 85.154 204.057 84.9533 203.618 84.552C203.189 84.1507 202.974 83.6513 202.974 83.054C202.974 82.4567 203.212 81.99 203.688 81.654C204.173 81.318 204.775 81.15 205.494 81.15C206.213 81.15 206.899 81.2713 207.552 81.514V80.66ZM207.552 82.214C206.889 82.0273 206.311 81.934 205.816 81.934C205.321 81.934 204.92 82.0227 204.612 82.2C204.304 82.3773 204.15 82.6573 204.15 83.04C204.15 83.88 204.626 84.3 205.578 84.3C206.119 84.3 206.581 84.1087 206.964 83.726C207.356 83.334 207.552 82.83 207.552 82.214ZM215.792 83.67C215.335 84.6407 214.593 85.126 213.566 85.126C212.81 85.126 212.199 84.916 211.732 84.496C211.275 84.076 211.046 83.4273 211.046 82.55V78.294H212.152V82.466C212.152 83.5953 212.675 84.16 213.72 84.16C214.327 84.16 214.817 83.9267 215.19 83.46C215.573 82.9933 215.773 82.396 215.792 81.668V78.294H216.898V85H215.792V83.67ZM220.012 84.79C219.452 84.5193 219.172 84.104 219.172 83.544C219.172 83.2547 219.28 83.0027 219.494 82.788C219.718 82.564 219.994 82.4147 220.32 82.34C219.816 81.892 219.564 81.304 219.564 80.576C219.564 79.848 219.821 79.26 220.334 78.812C220.857 78.364 221.473 78.14 222.182 78.14C222.892 78.14 223.494 78.308 223.988 78.644C224.054 78.1493 224.25 77.7527 224.576 77.454C224.912 77.1553 225.351 77.006 225.892 77.006L225.794 78.098C224.973 78.098 224.544 78.4433 224.506 79.134C224.833 79.5353 224.996 80.016 224.996 80.576C224.996 81.2947 224.735 81.8873 224.212 82.354C223.699 82.8113 223.055 83.04 222.28 83.04C221.748 83.04 221.277 82.9327 220.866 82.718C220.68 82.7553 220.512 82.844 220.362 82.984C220.213 83.1147 220.138 83.2967 220.138 83.53C220.138 84.0247 220.549 84.272 221.37 84.272H223.974C224.6 84.272 225.094 84.4073 225.458 84.678C225.822 84.9393 226.004 85.308 226.004 85.784C226.004 86.4933 225.645 87.114 224.926 87.646C224.217 88.178 223.316 88.444 222.224 88.444C221.132 88.444 220.274 88.2387 219.648 87.828C219.023 87.4267 218.71 86.918 218.71 86.302C218.71 85.9007 218.827 85.574 219.06 85.322C219.303 85.07 219.62 84.8927 220.012 84.79ZM219.802 86.26C219.802 86.6147 219.994 86.918 220.376 87.17C220.768 87.4313 221.356 87.562 222.14 87.562C222.934 87.562 223.592 87.3893 224.114 87.044C224.646 86.708 224.912 86.3113 224.912 85.854C224.912 85.6393 224.833 85.4527 224.674 85.294C224.525 85.1447 224.292 85.07 223.974 85.07H221.272C220.796 85.0887 220.432 85.2007 220.18 85.406C219.928 85.6207 219.802 85.9053 219.802 86.26ZM223.918 80.576C223.918 80.0907 223.774 79.6987 223.484 79.4C223.195 79.092 222.794 78.938 222.28 78.938C221.776 78.938 221.38 79.092 221.09 79.4C220.801 79.6987 220.656 80.0907 220.656 80.576C220.656 81.0613 220.801 81.4627 221.09 81.78C221.389 82.088 221.79 82.242 222.294 82.242C222.798 82.242 223.195 82.0833 223.484 81.766C223.774 81.4487 223.918 81.052 223.918 80.576ZM232.198 83.67C231.741 84.6407 230.999 85.126 229.972 85.126C229.216 85.126 228.605 84.916 228.138 84.496C227.681 84.076 227.452 83.4273 227.452 82.55V78.294H228.558V82.466C228.558 83.5953 229.081 84.16 230.126 84.16C230.733 84.16 231.223 83.9267 231.596 83.46C231.979 82.9933 232.18 82.396 232.198 81.668V78.294H233.304V85H232.198V83.67ZM238.449 84.258C239.373 84.258 239.9 83.852 240.031 83.04H241.165C241.062 83.712 240.763 84.2347 240.269 84.608C239.783 84.972 239.177 85.154 238.449 85.154C237.553 85.154 236.825 84.8367 236.265 84.202C235.705 83.558 235.425 82.704 235.425 81.64C235.425 80.576 235.705 79.7267 236.265 79.092C236.834 78.4573 237.585 78.14 238.519 78.14C239.461 78.14 240.161 78.504 240.619 79.232C241.085 79.96 241.249 80.8467 241.109 81.892H236.531C236.531 82.5827 236.699 83.152 237.035 83.6C237.371 84.0387 237.842 84.258 238.449 84.258ZM239.261 79.19C239.046 79.078 238.785 79.022 238.477 79.022C237.907 79.022 237.455 79.218 237.119 79.61C236.792 79.9927 236.601 80.4733 236.545 81.052H240.115C240.115 80.1187 239.83 79.498 239.261 79.19ZM243.162 85.126C242.928 85.126 242.732 85.0513 242.574 84.902C242.424 84.7433 242.35 84.5567 242.35 84.342C242.35 84.118 242.424 83.9313 242.574 83.782C242.732 83.6233 242.928 83.544 243.162 83.544C243.404 83.544 243.605 83.6233 243.764 83.782C243.922 83.9313 244.002 84.118 244.002 84.342C244.002 84.5567 243.922 84.7433 243.764 84.902C243.605 85.0513 243.404 85.126 243.162 85.126ZM251.996 76.194C252.966 76.194 253.704 76.4413 254.208 76.936C254.721 77.4213 254.978 78.0793 254.978 78.91C254.978 79.7407 254.721 80.3987 254.208 80.884C253.704 81.36 252.966 81.598 251.996 81.598H250.26V85H249.154V76.194H251.996ZM251.996 80.646C252.602 80.646 253.06 80.492 253.368 80.184C253.685 79.876 253.844 79.456 253.844 78.924C253.844 78.3827 253.685 77.9533 253.368 77.636C253.06 77.3093 252.602 77.146 251.996 77.146H250.26V80.646H251.996ZM259.664 79.246C258.609 79.246 258.063 80.0767 258.026 81.738V85H256.92V78.294H258.026V79.582C258.362 78.6487 258.954 78.182 259.804 78.182C260.074 78.182 260.331 78.224 260.574 78.308L260.518 79.386C260.238 79.2927 259.953 79.246 259.664 79.246ZM264.674 78.14C265.607 78.14 266.358 78.4433 266.928 79.05C267.506 79.6567 267.796 80.5247 267.796 81.654C267.796 82.774 267.506 83.6373 266.928 84.244C266.358 84.8507 265.607 85.154 264.674 85.154C263.74 85.154 262.984 84.8507 262.406 84.244C261.836 83.6373 261.552 82.774 261.552 81.654C261.552 80.5247 261.836 79.6567 262.406 79.05C262.984 78.4433 263.74 78.14 264.674 78.14ZM266.676 81.654C266.676 80.8513 266.508 80.226 266.172 79.778C265.836 79.3207 265.341 79.092 264.688 79.092C264.044 79.092 263.549 79.3207 263.204 79.778C262.858 80.226 262.686 80.8513 262.686 81.654C262.686 82.4473 262.849 83.0727 263.176 83.53C263.502 83.978 263.988 84.202 264.632 84.202C265.285 84.202 265.789 83.978 266.144 83.53C266.498 83.0727 266.676 82.4473 266.676 81.654ZM269.978 78.294H271.084V85H269.978V78.294ZM270.524 76.726C270.3 76.726 270.123 76.6653 269.992 76.544C269.871 76.4133 269.81 76.2453 269.81 76.04C269.81 75.8253 269.871 75.6573 269.992 75.536C270.123 75.4053 270.3 75.34 270.524 75.34C270.748 75.34 270.925 75.4053 271.056 75.536C271.196 75.6573 271.266 75.8253 271.266 76.04C271.266 76.2453 271.196 76.4133 271.056 76.544C270.925 76.6653 270.748 76.726 270.524 76.726ZM275.156 79.596C275.594 78.6253 276.346 78.14 277.41 78.14C278.203 78.14 278.819 78.4013 279.258 78.924C279.706 79.4467 279.93 80.1607 279.93 81.066V85H278.838V81.066C278.838 80.422 278.684 79.9367 278.376 79.61C278.077 79.2833 277.648 79.12 277.088 79.12C276.528 79.12 276.075 79.3487 275.73 79.806C275.384 80.2633 275.202 80.898 275.184 81.71V85H274.078V78.308H275.03L275.156 79.596ZM289.111 76.404C288.803 76.2827 288.561 76.222 288.383 76.222C288.057 76.222 287.8 76.3013 287.613 76.46C287.427 76.6187 287.333 76.8987 287.333 77.3V78.308H288.719V79.064H287.333V85H286.241V79.064H285.135V78.308H286.241V77.286C286.241 76.6233 286.423 76.138 286.787 75.83C287.151 75.5127 287.571 75.354 288.047 75.354C288.523 75.354 288.943 75.4147 289.307 75.536L289.111 76.404ZM294.806 80.66C294.806 80.0533 294.68 79.6193 294.428 79.358C294.176 79.0967 293.807 78.966 293.322 78.966C292.846 78.966 292.459 79.064 292.16 79.26C291.871 79.4467 291.726 79.7453 291.726 80.156H290.508C290.508 79.1293 291.059 78.4947 292.16 78.252C292.496 78.1773 292.86 78.14 293.252 78.14C294.083 78.14 294.731 78.35 295.198 78.77C295.665 79.19 295.898 79.8293 295.898 80.688V85H294.946L294.834 83.88C294.423 84.7293 293.681 85.154 292.608 85.154C291.889 85.154 291.311 84.9533 290.872 84.552C290.443 84.1507 290.228 83.6513 290.228 83.054C290.228 82.4567 290.466 81.99 290.942 81.654C291.427 81.318 292.029 81.15 292.748 81.15C293.467 81.15 294.153 81.2713 294.806 81.514V80.66ZM294.806 82.214C294.143 82.0273 293.565 81.934 293.07 81.934C292.575 81.934 292.174 82.0227 291.866 82.2C291.558 82.3773 291.404 82.6573 291.404 83.04C291.404 83.88 291.88 84.3 292.832 84.3C293.373 84.3 293.835 84.1087 294.218 83.726C294.61 83.334 294.806 82.83 294.806 82.214ZM303.046 83.67C302.589 84.6407 301.847 85.126 300.82 85.126C300.064 85.126 299.453 84.916 298.986 84.496C298.529 84.076 298.3 83.4273 298.3 82.55V78.294H299.406V82.466C299.406 83.5953 299.929 84.16 300.974 84.16C301.581 84.16 302.071 83.9267 302.444 83.46C302.827 82.9933 303.027 82.396 303.046 81.668V78.294H304.152V85H303.046V83.67ZM309.212 78.14C310.006 78.14 310.636 78.3453 311.102 78.756C311.569 79.1573 311.872 79.6613 312.012 80.268L310.892 80.366C310.771 79.974 310.575 79.6707 310.304 79.456C310.034 79.232 309.735 79.12 309.408 79.12C308.811 79.12 308.326 79.344 307.952 79.792C307.588 80.24 307.406 80.8513 307.406 81.626C307.406 82.3913 307.584 83.0073 307.938 83.474C308.302 83.9407 308.75 84.174 309.282 84.174C309.824 84.174 310.225 84.0527 310.486 83.81C310.757 83.558 310.892 83.2033 310.892 82.746H312.026C312.026 83.4647 311.774 84.048 311.27 84.496C310.776 84.9347 310.127 85.154 309.324 85.154C308.475 85.154 307.752 84.832 307.154 84.188C306.566 83.544 306.272 82.69 306.272 81.626C306.272 80.5527 306.566 79.7033 307.154 79.078C307.742 78.4527 308.428 78.14 309.212 78.14ZM314.261 78.294H315.367V85H314.261V78.294ZM314.807 76.726C314.583 76.726 314.406 76.6653 314.275 76.544C314.154 76.4133 314.093 76.2453 314.093 76.04C314.093 75.8253 314.154 75.6573 314.275 75.536C314.406 75.4053 314.583 75.34 314.807 75.34C315.031 75.34 315.209 75.4053 315.339 75.536C315.479 75.6573 315.549 75.8253 315.549 76.04C315.549 76.2453 315.479 76.4133 315.339 76.544C315.209 76.6653 315.031 76.726 314.807 76.726ZM319.481 79.302C319.929 78.5273 320.582 78.14 321.441 78.14C322.3 78.14 323.014 78.462 323.583 79.106C324.152 79.7407 324.437 80.5853 324.437 81.64C324.437 82.6853 324.148 83.5347 323.569 84.188C322.99 84.832 322.286 85.154 321.455 85.154C321.007 85.154 320.601 85.042 320.237 84.818C319.882 84.594 319.602 84.2627 319.397 83.824L319.145 85H318.375V75.466H319.481V79.302ZM321.371 79.12C320.839 79.12 320.396 79.2927 320.041 79.638C319.686 79.974 319.5 80.4453 319.481 81.052V82.144C319.481 82.76 319.663 83.2547 320.027 83.628C320.4 83.992 320.848 84.174 321.371 84.174C321.894 84.174 322.346 83.9453 322.729 83.488C323.112 83.0213 323.303 82.4053 323.303 81.64C323.303 80.8747 323.112 80.2633 322.729 79.806C322.356 79.3487 321.903 79.12 321.371 79.12ZM331.101 83.67C330.643 84.6407 329.901 85.126 328.875 85.126C328.119 85.126 327.507 84.916 327.041 84.496C326.583 84.076 326.355 83.4273 326.355 82.55V78.294H327.461V82.466C327.461 83.5953 327.983 84.16 329.029 84.16C329.635 84.16 330.125 83.9267 330.499 83.46C330.881 82.9933 331.082 82.396 331.101 81.668V78.294H332.207V85H331.101V83.67ZM334.691 79.946C334.691 79.3953 334.924 78.9567 335.391 78.63C335.867 78.3033 336.506 78.14 337.309 78.14C338.112 78.14 338.737 78.308 339.185 78.644C339.642 78.98 339.88 79.4047 339.899 79.918H338.821C338.737 79.3113 338.224 79.008 337.281 79.008C336.824 79.008 336.469 79.1107 336.217 79.316C335.974 79.5213 335.853 79.7453 335.853 79.988C335.853 80.2213 335.946 80.422 336.133 80.59C336.32 80.7487 336.618 80.8887 337.029 81.01L338.373 81.458C338.942 81.6353 339.376 81.864 339.675 82.144C339.983 82.4147 340.137 82.7927 340.137 83.278C340.137 83.754 339.89 84.188 339.395 84.58C338.9 84.9627 338.21 85.154 337.323 85.154C336.436 85.154 335.746 84.958 335.251 84.566C334.756 84.1647 334.495 83.6513 334.467 83.026H335.531C335.55 83.446 335.718 83.7633 336.035 83.978C336.362 84.1833 336.768 84.286 337.253 84.286C337.738 84.286 338.14 84.1833 338.457 83.978C338.774 83.7727 338.933 83.53 338.933 83.25C338.933 82.9607 338.84 82.7413 338.653 82.592C338.466 82.4427 338.163 82.312 337.743 82.2L336.441 81.766C335.274 81.4207 334.691 80.814 334.691 79.946ZM342.466 85.07C342.251 85.0513 342.074 84.9813 341.934 84.86C341.794 84.7387 341.724 84.5753 341.724 84.37C341.724 84.1647 341.794 83.992 341.934 83.852C342.083 83.712 342.289 83.642 342.55 83.642C342.821 83.642 343.045 83.7493 343.222 83.964C343.399 84.1693 343.488 84.4307 343.488 84.748C343.488 85.0653 343.385 85.3873 343.18 85.714C342.975 86.05 342.662 86.3207 342.242 86.526L341.416 86.12C341.995 85.84 342.345 85.49 342.466 85.07ZM26.45 95.33C26.8887 94.5367 27.542 94.14 28.41 94.14C29.2873 94.14 30.0153 94.462 30.594 95.106C31.182 95.75 31.476 96.5993 31.476 97.654C31.476 98.7087 31.182 99.558 30.594 100.202C30.006 100.837 29.2827 101.154 28.424 101.154C27.5653 101.154 26.9307 100.832 26.52 100.188V104.29H25.414V94.308H26.324L26.45 95.33ZM28.368 100.174C28.8907 100.174 29.348 99.95 29.74 99.502C30.1413 99.054 30.342 98.4427 30.342 97.668C30.342 96.884 30.1507 96.2633 29.768 95.806C29.3947 95.3487 28.9373 95.12 28.396 95.12C27.8547 95.12 27.4113 95.2927 27.066 95.638C26.7207 95.974 26.5387 96.4313 26.52 97.01V98.284C26.52 98.872 26.6973 99.334 27.052 99.67C27.4067 100.006 27.8453 100.174 28.368 100.174ZM38.2765 99.67C37.8192 100.641 37.0772 101.126 36.0505 101.126C35.2945 101.126 34.6832 100.916 34.2165 100.496C33.7592 100.076 33.5305 99.4273 33.5305 98.55V94.294H34.6365V98.466C34.6365 99.5953 35.1592 100.16 36.2045 100.16C36.8112 100.16 37.3012 99.9267 37.6745 99.46C38.0572 98.9933 38.2578 98.396 38.2765 97.668V94.294H39.3825V101H38.2765V99.67ZM44.9467 95.246C43.8921 95.246 43.3461 96.0767 43.3087 97.738V101H42.2027V94.294H43.3087V95.582C43.6447 94.6487 44.2374 94.182 45.0867 94.182C45.3574 94.182 45.6141 94.224 45.8567 94.308L45.8007 95.386C45.5207 95.2927 45.2361 95.246 44.9467 95.246ZM52.0988 99.67C51.6414 100.641 50.8994 101.126 49.8728 101.126C49.1168 101.126 48.5054 100.916 48.0388 100.496C47.5814 100.076 47.3528 99.4273 47.3528 98.55V94.294H48.4588V98.466C48.4588 99.5953 48.9814 100.16 50.0268 100.16C50.6334 100.16 51.1234 99.9267 51.4968 99.46C51.8794 98.9933 52.0801 98.396 52.0988 97.668V94.294H53.2048V101H52.0988V99.67ZM55.689 95.946C55.689 95.3953 55.9223 94.9567 56.389 94.63C56.865 94.3033 57.5043 94.14 58.307 94.14C59.1097 94.14 59.735 94.308 60.183 94.644C60.6403 94.98 60.8783 95.4047 60.897 95.918H59.819C59.735 95.3113 59.2217 95.008 58.279 95.008C57.8217 95.008 57.467 95.1107 57.215 95.316C56.9723 95.5213 56.851 95.7453 56.851 95.988C56.851 96.2213 56.9443 96.422 57.131 96.59C57.3177 96.7487 57.6163 96.8887 58.027 97.01L59.371 97.458C59.9403 97.6353 60.3743 97.864 60.673 98.144C60.981 98.4147 61.135 98.7927 61.135 99.278C61.135 99.754 60.8877 100.188 60.393 100.58C59.8983 100.963 59.2077 101.154 58.321 101.154C57.4343 101.154 56.7437 100.958 56.249 100.566C55.7543 100.165 55.493 99.6513 55.465 99.026H56.529C56.5477 99.446 56.7157 99.7633 57.033 99.978C57.3597 100.183 57.7657 100.286 58.251 100.286C58.7363 100.286 59.1377 100.183 59.455 99.978C59.7723 99.7727 59.931 99.53 59.931 99.25C59.931 98.9607 59.8377 98.7413 59.651 98.592C59.4643 98.4427 59.161 98.312 58.741 98.2L57.439 97.766C56.2723 97.4207 55.689 96.814 55.689 95.946ZM63.2261 101.126C62.9928 101.126 62.7968 101.051 62.6381 100.902C62.4888 100.743 62.4141 100.557 62.4141 100.342C62.4141 100.118 62.4888 99.9313 62.6381 99.782C62.7968 99.6233 62.9928 99.544 63.2261 99.544C63.4688 99.544 63.6695 99.6233 63.8281 99.782C63.9868 99.9313 64.0661 100.118 64.0661 100.342C64.0661 100.557 63.9868 100.743 63.8281 100.902C63.6695 101.051 63.4688 101.126 63.2261 101.126Z" fill="black" fill-opacity="0.5"/>
<defs>
<filter id="filter0_d" x="0" y="0" width="394" height="131" filterUnits="userSpaceOnUse" color-interpolation-filters="sRGB">
<feFlood flood-opacity="0" result="BackgroundImageFix"/>
<feColorMatrix in="SourceAlpha" type="matrix" values="0 0 0 0 0 0 0 0 0 0 0 0 0 0 0 0 0 0 127 0"/>
<feOffset/>
<feGaussianBlur stdDeviation="5"/>
<feColorMatrix type="matrix" values="0 0 0 0 0 0 0 0 0 0 0 0 0 0 0 0 0 0 0.25 0"/>
<feBlend mode="normal" in2="BackgroundImageFix" result="effect1_dropShadow"/>
<feBlend mode="normal" in="SourceGraphic" in2="effect1_dropShadow" result="shape"/>
</filter>
</defs>
</svg>
