<svg width="233" height="42" viewBox="0 0 233 42" fill="none" xmlns="http://www.w3.org/2000/svg">
<path d="M49.6062 11.5561C51.4727 9.68227 51.4634 6.62471 49.5854 4.76263L48.1731 3.36229C46.1768 1.38295 42.9272 1.58717 41.1881 3.80125L21.5363 28.821C19.499 31.4148 15.5339 31.1669 13.8275 28.3389L9.58512 21.3083C8.06098 18.7824 4.6557 18.2571 2.45748 20.2088L1.60482 20.9658C-0.448341 22.7887 -0.545265 25.991 1.39381 27.9377L14.0235 40.617C15.8602 42.461 18.8223 42.461 20.6591 40.617L49.6062 11.5561Z" fill="#1095E0"/>
<path d="M73.48 29.516H83.56V32H70.636V9.356H73.48V29.516ZM87.6558 14.756H90.4998V32H87.6558V14.756ZM89.0598 10.724C88.4838 10.724 88.0278 10.568 87.6918 10.256C87.3798 9.92 87.2238 9.488 87.2238 8.96C87.2238 8.408 87.3798 7.976 87.6918 7.664C88.0278 7.328 88.4838 7.16 89.0598 7.16C89.6358 7.16 90.0918 7.328 90.4278 7.664C90.7878 7.976 90.9678 8.408 90.9678 8.96C90.9678 9.488 90.7878 9.92 90.4278 10.256C90.0918 10.568 89.6358 10.724 89.0598 10.724ZM97.3337 19.004C97.3337 17.588 97.9337 16.46 99.1337 15.62C100.358 14.78 102.002 14.36 104.066 14.36C106.13 14.36 107.738 14.792 108.89 15.656C110.066 16.52 110.678 17.612 110.726 18.932H107.954C107.738 17.372 106.418 16.592 103.994 16.592C102.818 16.592 101.906 16.856 101.258 17.384C100.634 17.912 100.322 18.488 100.322 19.112C100.322 19.712 100.562 20.228 101.042 20.66C101.522 21.068 102.29 21.428 103.346 21.74L106.802 22.892C108.266 23.348 109.382 23.936 110.15 24.656C110.942 25.352 111.338 26.324 111.338 27.572C111.338 28.796 110.702 29.912 109.43 30.92C108.158 31.904 106.382 32.396 104.102 32.396C101.822 32.396 100.046 31.892 98.7737 30.884C97.5017 29.852 96.8297 28.532 96.7577 26.924H99.4937C99.5417 28.004 99.9737 28.82 100.79 29.372C101.63 29.9 102.674 30.164 103.922 30.164C105.17 30.164 106.202 29.9 107.018 29.372C107.834 28.844 108.242 28.22 108.242 27.5C108.242 26.756 108.002 26.192 107.522 25.808C107.042 25.424 106.262 25.088 105.182 24.8L101.834 23.684C98.8337 22.796 97.3337 21.236 97.3337 19.004ZM126.183 31.496C124.119 32.456 122.235 32.66 120.531 32.108C119.307 31.724 118.443 30.92 117.939 29.696C117.675 29.096 117.543 28.376 117.543 27.536V16.952H114.771V14.792H117.543V10.004H120.351V14.792H125.751V16.952H120.351V27.5C120.351 29.252 121.167 30.128 122.799 30.128C123.687 30.128 124.683 29.912 125.787 29.48L126.183 31.496ZM141.374 20.84C141.374 19.28 141.05 18.164 140.402 17.492C139.754 16.82 138.806 16.484 137.558 16.484C136.334 16.484 135.338 16.736 134.57 17.24C133.826 17.72 133.454 18.488 133.454 19.544H130.322C130.322 16.904 131.738 15.272 134.57 14.648C135.434 14.456 136.37 14.36 137.378 14.36C139.514 14.36 141.182 14.9 142.382 15.98C143.582 17.06 144.182 18.704 144.182 20.912V32H141.734L141.446 29.12C140.39 31.304 138.482 32.396 135.722 32.396C133.874 32.396 132.386 31.88 131.258 30.848C130.154 29.816 129.602 28.532 129.602 26.996C129.602 25.46 130.214 24.26 131.438 23.396C132.686 22.532 134.234 22.1 136.082 22.1C137.93 22.1 139.694 22.412 141.374 23.036V20.84ZM141.374 24.836C139.67 24.356 138.182 24.116 136.91 24.116C135.638 24.116 134.606 24.344 133.814 24.8C133.022 25.256 132.626 25.976 132.626 26.96C132.626 29.12 133.85 30.2 136.298 30.2C137.69 30.2 138.878 29.708 139.862 28.724C140.87 27.716 141.374 26.42 141.374 24.836ZM149.963 19.004C149.963 17.588 150.563 16.46 151.763 15.62C152.987 14.78 154.631 14.36 156.695 14.36C158.759 14.36 160.367 14.792 161.519 15.656C162.695 16.52 163.307 17.612 163.355 18.932H160.583C160.367 17.372 159.047 16.592 156.623 16.592C155.447 16.592 154.535 16.856 153.887 17.384C153.263 17.912 152.951 18.488 152.951 19.112C152.951 19.712 153.191 20.228 153.671 20.66C154.151 21.068 154.919 21.428 155.975 21.74L159.431 22.892C160.895 23.348 162.011 23.936 162.779 24.656C163.571 25.352 163.967 26.324 163.967 27.572C163.967 28.796 163.331 29.912 162.059 30.92C160.787 31.904 159.011 32.396 156.731 32.396C154.451 32.396 152.675 31.892 151.403 30.884C150.131 29.852 149.459 28.532 149.387 26.924H152.123C152.171 28.004 152.603 28.82 153.419 29.372C154.259 29.9 155.303 30.164 156.551 30.164C157.799 30.164 158.831 29.9 159.647 29.372C160.463 28.844 160.871 28.22 160.871 27.5C160.871 26.756 160.631 26.192 160.151 25.808C159.671 25.424 158.891 25.088 157.811 24.8L154.463 23.684C151.463 22.796 149.963 21.236 149.963 19.004ZM178.812 31.496C176.748 32.456 174.864 32.66 173.16 32.108C171.936 31.724 171.072 30.92 170.568 29.696C170.304 29.096 170.172 28.376 170.172 27.536V16.952H167.4V14.792H170.172V10.004H172.98V14.792H178.38V16.952H172.98V27.5C172.98 29.252 173.796 30.128 175.428 30.128C176.316 30.128 177.312 29.912 178.416 29.48L178.812 31.496ZM183.527 14.756H186.371V32H183.527V14.756ZM184.931 10.724C184.355 10.724 183.899 10.568 183.563 10.256C183.251 9.92 183.095 9.488 183.095 8.96C183.095 8.408 183.251 7.976 183.563 7.664C183.899 7.328 184.355 7.16 184.931 7.16C185.507 7.16 185.963 7.328 186.299 7.664C186.659 7.976 186.839 8.408 186.839 8.96C186.839 9.488 186.659 9.92 186.299 10.256C185.963 10.568 185.507 10.724 184.931 10.724ZM199.829 14.36C201.869 14.36 203.489 14.888 204.689 15.944C205.889 16.976 206.669 18.272 207.029 19.832L204.149 20.084C203.837 19.076 203.333 18.296 202.637 17.744C201.941 17.168 201.173 16.88 200.333 16.88C198.797 16.88 197.549 17.456 196.589 18.608C195.653 19.76 195.185 21.332 195.185 23.324C195.185 25.292 195.641 26.876 196.553 28.076C197.489 29.276 198.641 29.876 200.009 29.876C201.401 29.876 202.433 29.564 203.105 28.94C203.801 28.292 204.149 27.38 204.149 26.204H207.065C207.065 28.052 206.417 29.552 205.121 30.704C203.849 31.832 202.181 32.396 200.117 32.396C197.933 32.396 196.073 31.568 194.537 29.912C193.025 28.256 192.269 26.06 192.269 23.324C192.269 20.564 193.025 18.38 194.537 16.772C196.049 15.164 197.813 14.36 199.829 14.36ZM217.78 22.892L215.476 24.764V32H212.632V7.484H215.476V21.74L223.792 14.792H227.752L219.832 21.236L228.148 32H224.656L217.78 22.892Z" fill="black" fill-opacity="0.5"/>
</svg>
