<svg width="1249" height="525" viewBox="0 0 1249 525" fill="none" xmlns="http://www.w3.org/2000/svg">
<g filter="url(#filter0_d)">
<rect x="60" y="60" width="1129" height="405" rx="50" fill="white"/>
</g>
<path d="M124.513 100.116C125.138 98.1912 127.862 98.1912 128.487 100.116L131.98 110.867C132.26 111.728 133.063 112.311 133.968 112.311H145.272C147.296 112.311 148.138 114.901 146.5 116.091L137.355 122.736C136.623 123.268 136.316 124.211 136.596 125.072L140.089 135.823C140.715 137.748 138.511 139.349 136.873 138.159L127.728 131.514C126.996 130.982 126.004 130.982 125.272 131.514L116.127 138.159C114.489 139.349 112.285 137.748 112.911 135.823L116.404 125.072C116.684 124.211 116.377 123.268 115.645 122.736L106.5 116.091C104.862 114.901 105.704 112.311 107.728 112.311H119.032C119.937 112.311 120.74 111.728 121.02 110.867L124.513 100.116Z" fill="#F2BD00"/>
<path d="M177.513 100.116C178.138 98.1912 180.862 98.1912 181.487 100.116L184.98 110.867C185.26 111.728 186.063 112.311 186.968 112.311H198.272C200.296 112.311 201.138 114.901 199.5 116.091L190.355 122.736C189.623 123.268 189.316 124.211 189.596 125.072L193.089 135.823C193.715 137.748 191.511 139.349 189.873 138.159L180.728 131.514C179.996 130.982 179.004 130.982 178.272 131.514L169.127 138.159C167.489 139.349 165.285 137.748 165.911 135.823L169.404 125.072C169.684 124.211 169.377 123.268 168.645 122.736L159.5 116.091C157.862 114.901 158.704 112.311 160.728 112.311H172.032C172.937 112.311 173.74 111.728 174.02 110.867L177.513 100.116Z" fill="#F2BD00"/>
<path d="M230.513 100.116C231.138 98.1912 233.862 98.1912 234.487 100.116L237.98 110.867C238.26 111.728 239.063 112.311 239.968 112.311H251.272C253.296 112.311 254.138 114.901 252.5 116.091L243.355 122.736C242.623 123.268 242.316 124.211 242.596 125.072L246.089 135.823C246.715 137.748 244.511 139.349 242.873 138.159L233.728 131.514C232.996 130.982 232.004 130.982 231.272 131.514L222.127 138.159C220.489 139.349 218.285 137.748 218.911 135.823L222.404 125.072C222.684 124.211 222.377 123.268 221.645 122.736L212.5 116.091C210.862 114.901 211.704 112.311 213.728 112.311H225.032C225.937 112.311 226.74 111.728 227.02 110.867L230.513 100.116Z" fill="#F2BD00"/>
<path d="M283.513 100.116C284.138 98.1912 286.862 98.1912 287.487 100.116L290.98 110.867C291.26 111.728 292.063 112.311 292.968 112.311H304.272C306.296 112.311 307.138 114.901 305.5 116.091L296.355 122.736C295.623 123.268 295.316 124.211 295.596 125.072L299.089 135.823C299.715 137.748 297.511 139.349 295.873 138.159L286.728 131.514C285.996 130.982 285.004 130.982 284.272 131.514L275.127 138.159C273.489 139.349 271.285 137.748 271.911 135.823L275.404 125.072C275.684 124.211 275.377 123.268 274.645 122.736L265.5 116.091C263.862 114.901 264.704 112.311 266.728 112.311H278.032C278.937 112.311 279.74 111.728 280.02 110.867L283.513 100.116Z" fill="#F2BD00"/>
<path d="M336.513 100.116C337.138 98.1912 339.862 98.1912 340.487 100.116L343.98 110.867C344.26 111.728 345.063 112.311 345.968 112.311H357.272C359.296 112.311 360.138 114.901 358.5 116.091L349.355 122.736C348.623 123.268 348.316 124.211 348.596 125.072L352.089 135.823C352.715 137.748 350.511 139.349 348.873 138.159L339.728 131.514C338.996 130.982 338.004 130.982 337.272 131.514L328.127 138.159C326.489 139.349 324.285 137.748 324.911 135.823L328.404 125.072C328.684 124.211 328.377 123.268 327.645 122.736L318.5 116.091C316.862 114.901 317.704 112.311 319.728 112.311H331.032C331.937 112.311 332.74 111.728 333.02 110.867L336.513 100.116Z" fill="#A8A8A8"/>
<path fill-rule="evenodd" clip-rule="evenodd" d="M339 131.176C339.257 131.239 339.505 131.352 339.728 131.514L348.873 138.159C350.511 139.348 352.715 137.748 352.089 135.822L348.596 125.072C348.316 124.211 348.623 123.267 349.355 122.735L358.5 116.091C360.138 114.901 359.296 112.311 357.272 112.311H345.968C345.063 112.311 344.26 111.728 343.98 110.867L340.487 100.116C340.237 99.3468 339.652 98.8849 339 98.7305V131.176Z" fill="#A8A8A8"/>
<path d="M415.552 128.264C415.552 131.56 414.8 133.928 413.296 135.368C411.824 136.808 409.936 137.528 407.632 137.528C405.328 137.528 402.912 136.856 400.384 135.512V131.576C402.624 133.112 404.72 133.88 406.672 133.88C408.656 133.88 410 133.4 410.704 132.44C411.408 131.48 411.76 130.088 411.76 128.264V106.808H415.552V128.264ZM432.174 134.456C435.342 134.456 437.15 133.064 437.598 130.28H441.486C441.134 132.584 440.11 134.376 438.414 135.656C436.75 136.904 434.67 137.528 432.174 137.528C429.102 137.528 426.606 136.44 424.686 134.264C422.766 132.056 421.806 129.128 421.806 125.48C421.806 121.832 422.766 118.92 424.686 116.744C426.638 114.568 429.214 113.48 432.414 113.48C435.646 113.48 438.046 114.728 439.614 117.224C441.214 119.72 441.774 122.76 441.294 126.344H425.598C425.598 128.712 426.174 130.664 427.326 132.2C428.478 133.704 430.094 134.456 432.174 134.456ZM434.958 117.08C434.222 116.696 433.326 116.504 432.27 116.504C430.318 116.504 428.766 117.176 427.614 118.52C426.494 119.832 425.838 121.48 425.646 123.464H437.886C437.886 120.264 436.91 118.136 434.958 117.08ZM452.605 118.472C454.109 115.144 456.685 113.48 460.333 113.48C463.053 113.48 465.165 114.376 466.669 116.168C468.205 117.96 468.973 120.408 468.973 123.512V137H465.229V123.512C465.229 121.304 464.701 119.64 463.645 118.52C462.621 117.4 461.149 116.84 459.229 116.84C457.309 116.84 455.757 117.624 454.573 119.192C453.389 120.76 452.765 122.936 452.701 125.72V137H448.909V114.056H452.173L452.605 118.472ZM481.527 118.472C483.031 115.144 485.607 113.48 489.255 113.48C491.975 113.48 494.087 114.376 495.591 116.168C497.127 117.96 497.895 120.408 497.895 123.512V137H494.151V123.512C494.151 121.304 493.623 119.64 492.567 118.52C491.543 117.4 490.071 116.84 488.151 116.84C486.231 116.84 484.679 117.624 483.495 119.192C482.311 120.76 481.687 122.936 481.623 125.72V137H477.831V114.056H481.095L481.527 118.472ZM502.193 143.672C503.761 144.888 505.409 145.496 507.137 145.496C508.417 145.496 509.521 144.856 510.449 143.576C511.121 142.648 511.729 141.24 512.273 139.352L512.945 137L503.537 114.056H507.761L514.721 132.344L520.145 114.056H523.985L515.393 141.56C514.657 143.896 513.681 145.688 512.465 146.936C511.281 148.184 509.761 148.808 507.905 148.808C506.081 148.808 504.177 148.248 502.193 147.128V143.672ZM541.537 106.808L548.881 131.912L556.321 109.928H558.865L566.257 131.912L574.705 106.808H578.881L568.225 137H564.241L557.665 117.656L550.849 137H546.865L537.313 106.808H541.537ZM584.666 114.008H588.458V137H584.666V114.008ZM586.538 108.632C585.77 108.632 585.162 108.424 584.714 108.008C584.298 107.56 584.09 106.984 584.09 106.28C584.09 105.544 584.298 104.968 584.714 104.552C585.162 104.104 585.77 103.88 586.538 103.88C587.306 103.88 587.914 104.104 588.362 104.552C588.842 104.968 589.082 105.544 589.082 106.28C589.082 106.984 588.842 107.56 588.362 108.008C587.914 108.424 587.306 108.632 586.538 108.632ZM598.77 104.312H602.562V137H598.77V104.312ZM611.023 119.672C611.023 117.784 611.823 116.28 613.423 115.16C615.055 114.04 617.247 113.48 619.999 113.48C622.751 113.48 624.895 114.056 626.431 115.208C627.999 116.36 628.815 117.816 628.879 119.576H625.183C624.895 117.496 623.135 116.456 619.903 116.456C618.335 116.456 617.119 116.808 616.255 117.512C615.423 118.216 615.007 118.984 615.007 119.816C615.007 120.616 615.327 121.304 615.967 121.88C616.607 122.424 617.631 122.904 619.039 123.32L623.647 124.856C625.599 125.464 627.087 126.248 628.111 127.208C629.167 128.136 629.695 129.432 629.695 131.096C629.695 132.728 628.847 134.216 627.151 135.56C625.455 136.872 623.087 137.528 620.047 137.528C617.007 137.528 614.639 136.856 612.943 135.512C611.247 134.136 610.351 132.376 610.255 130.232H613.903C613.967 131.672 614.543 132.76 615.631 133.496C616.751 134.2 618.143 134.552 619.807 134.552C621.471 134.552 622.847 134.2 623.935 133.496C625.023 132.792 625.567 131.96 625.567 131C625.567 130.008 625.247 129.256 624.607 128.744C623.967 128.232 622.927 127.784 621.487 127.4L617.023 125.912C613.023 124.728 611.023 122.648 611.023 119.672ZM645.745 113.48C648.945 113.48 651.521 114.52 653.473 116.6C655.457 118.68 656.449 121.656 656.449 125.528C656.449 129.368 655.457 132.328 653.473 134.408C651.521 136.488 648.945 137.528 645.745 137.528C642.545 137.528 639.953 136.488 637.969 134.408C636.017 132.328 635.041 129.368 635.041 125.528C635.041 121.656 636.017 118.68 637.969 116.6C639.953 114.52 642.545 113.48 645.745 113.48ZM652.609 125.528C652.609 122.776 652.033 120.632 650.881 119.096C649.729 117.528 648.033 116.744 645.793 116.744C643.585 116.744 641.889 117.528 640.705 119.096C639.521 120.632 638.929 122.776 638.929 125.528C638.929 128.248 639.489 130.392 640.609 131.96C641.729 133.496 643.393 134.264 645.601 134.264C647.841 134.264 649.569 133.496 650.785 131.96C652.001 130.392 652.609 128.248 652.609 125.528ZM667.34 118.472C668.844 115.144 671.42 113.48 675.068 113.48C677.788 113.48 679.9 114.376 681.404 116.168C682.94 117.96 683.708 120.408 683.708 123.512V137H679.964V123.512C679.964 121.304 679.436 119.64 678.38 118.52C677.356 117.4 675.884 116.84 673.964 116.84C672.044 116.84 670.492 117.624 669.308 119.192C668.124 120.76 667.5 122.936 667.436 125.72V137H663.644V114.056H666.908L667.34 118.472Z" fill="black"/>
<path d="M112.848 204.808H116.64V235H112.848V204.808ZM160.34 205.528C159.284 205.112 158.452 204.904 157.844 204.904C156.724 204.904 155.844 205.176 155.204 205.72C154.564 206.264 154.244 207.224 154.244 208.6V212.056H158.996V214.648H154.244V235H150.5V214.648H146.708V212.056H150.5V208.552C150.5 206.28 151.124 204.616 152.372 203.56C153.62 202.472 155.06 201.928 156.692 201.928C158.324 201.928 159.764 202.136 161.012 202.552L160.34 205.528ZM165.897 212.008H169.689V235H165.897V212.008ZM167.769 206.632C167.001 206.632 166.393 206.424 165.945 206.008C165.529 205.56 165.321 204.984 165.321 204.28C165.321 203.544 165.529 202.968 165.945 202.552C166.393 202.104 167.001 201.88 167.769 201.88C168.537 201.88 169.145 202.104 169.593 202.552C170.073 202.968 170.313 203.544 170.313 204.28C170.313 204.984 170.073 205.56 169.593 206.008C169.145 206.424 168.537 206.632 167.769 206.632ZM183.649 216.472C185.153 213.144 187.729 211.48 191.377 211.48C194.097 211.48 196.209 212.376 197.713 214.168C199.249 215.96 200.017 218.408 200.017 221.512V235H196.273V221.512C196.273 219.304 195.745 217.64 194.689 216.52C193.665 215.4 192.193 214.84 190.273 214.84C188.353 214.84 186.801 215.624 185.617 217.192C184.433 218.76 183.809 220.936 183.745 223.72V235H179.953V212.056H183.217L183.649 216.472ZM223.947 215.464V202.312H227.691V235H224.619L224.139 231.16C223.403 232.6 222.427 233.688 221.211 234.424C219.995 235.16 218.667 235.528 217.227 235.528C214.315 235.528 211.867 234.408 209.883 232.168C207.931 229.928 206.955 227.016 206.955 223.432C206.955 219.816 207.915 216.92 209.835 214.744C211.787 212.568 214.235 211.48 217.179 211.48C220.155 211.48 222.411 212.808 223.947 215.464ZM217.419 214.84C215.563 214.84 213.995 215.624 212.715 217.192C211.467 218.76 210.843 220.856 210.843 223.48C210.843 226.104 211.483 228.216 212.763 229.816C214.043 231.384 215.579 232.168 217.371 232.168C219.163 232.168 220.683 231.576 221.931 230.392C223.211 229.176 223.883 227.56 223.947 225.544V221.8C223.947 219.656 223.323 217.96 222.075 216.712C220.827 215.464 219.275 214.84 217.419 214.84ZM272.325 234.328C269.573 235.608 267.061 235.88 264.789 235.144C263.157 234.632 262.005 233.56 261.333 231.928C260.981 231.128 260.805 230.168 260.805 229.048V214.936H257.109V212.056H260.805V205.672H264.549V212.056H271.749V214.936H264.549V229C264.549 231.336 265.637 232.504 267.813 232.504C268.997 232.504 270.325 232.216 271.797 231.64L272.325 234.328ZM282.164 216.28C283.7 213.08 286.244 211.48 289.796 211.48C292.516 211.48 294.628 212.376 296.132 214.168C297.668 215.96 298.436 218.408 298.436 221.512V235H294.692V221.512C294.692 219.304 294.164 217.64 293.108 216.52C292.084 215.4 290.596 214.84 288.644 214.84C286.692 214.84 285.124 215.672 283.94 217.336C282.756 218.968 282.164 221.24 282.164 224.152V235H278.372V202.312H282.164V216.28ZM307.581 212.008H311.373V235H307.581V212.008ZM309.453 206.632C308.685 206.632 308.077 206.424 307.629 206.008C307.213 205.56 307.005 204.984 307.005 204.28C307.005 203.544 307.213 202.968 307.629 202.552C308.077 202.104 308.685 201.88 309.453 201.88C310.221 201.88 310.829 202.104 311.277 202.552C311.757 202.968 311.997 203.544 311.997 204.28C311.997 204.984 311.757 205.56 311.277 206.008C310.829 206.424 310.221 206.632 309.453 206.632ZM320.485 217.672C320.485 215.784 321.285 214.28 322.885 213.16C324.517 212.04 326.709 211.48 329.461 211.48C332.213 211.48 334.357 212.056 335.893 213.208C337.461 214.36 338.277 215.816 338.341 217.576H334.645C334.357 215.496 332.597 214.456 329.365 214.456C327.797 214.456 326.581 214.808 325.717 215.512C324.885 216.216 324.469 216.984 324.469 217.816C324.469 218.616 324.789 219.304 325.429 219.88C326.069 220.424 327.093 220.904 328.501 221.32L333.109 222.856C335.061 223.464 336.549 224.248 337.573 225.208C338.629 226.136 339.157 227.432 339.157 229.096C339.157 230.728 338.309 232.216 336.613 233.56C334.917 234.872 332.549 235.528 329.509 235.528C326.469 235.528 324.101 234.856 322.405 233.512C320.709 232.136 319.813 230.376 319.717 228.232H323.365C323.429 229.672 324.005 230.76 325.093 231.496C326.213 232.2 327.605 232.552 329.269 232.552C330.933 232.552 332.309 232.2 333.397 231.496C334.485 230.792 335.029 229.96 335.029 229C335.029 228.008 334.709 227.256 334.069 226.744C333.429 226.232 332.389 225.784 330.949 225.4L326.485 223.912C322.485 222.728 320.485 220.648 320.485 217.672ZM378.109 211.48C381.309 211.48 383.885 212.52 385.837 214.6C387.821 216.68 388.813 219.656 388.813 223.528C388.813 227.368 387.821 230.328 385.837 232.408C383.885 234.488 381.309 235.528 378.109 235.528C374.909 235.528 372.317 234.488 370.333 232.408C368.381 230.328 367.405 227.368 367.405 223.528C367.405 219.656 368.381 216.68 370.333 214.6C372.317 212.52 374.909 211.48 378.109 211.48ZM384.973 223.528C384.973 220.776 384.397 218.632 383.245 217.096C382.093 215.528 380.397 214.744 378.157 214.744C375.949 214.744 374.253 215.528 373.069 217.096C371.885 218.632 371.293 220.776 371.293 223.528C371.293 226.248 371.853 228.392 372.973 229.96C374.093 231.496 375.757 232.264 377.965 232.264C380.205 232.264 381.933 231.496 383.149 229.96C384.365 228.392 384.973 226.248 384.973 223.528ZM399.704 216.472C401.208 213.144 403.784 211.48 407.432 211.48C410.152 211.48 412.264 212.376 413.768 214.168C415.304 215.96 416.072 218.408 416.072 221.512V235H412.328V221.512C412.328 219.304 411.8 217.64 410.744 216.52C409.72 215.4 408.248 214.84 406.328 214.84C404.408 214.84 402.856 215.624 401.672 217.192C400.488 218.76 399.864 220.936 399.8 223.72V235H396.008V212.056H399.272L399.704 216.472ZM432.898 232.456C436.066 232.456 437.874 231.064 438.322 228.28H442.21C441.858 230.584 440.834 232.376 439.138 233.656C437.474 234.904 435.394 235.528 432.898 235.528C429.826 235.528 427.33 234.44 425.41 232.264C423.49 230.056 422.53 227.128 422.53 223.48C422.53 219.832 423.49 216.92 425.41 214.744C427.362 212.568 429.938 211.48 433.138 211.48C436.37 211.48 438.77 212.728 440.338 215.224C441.938 217.72 442.498 220.76 442.018 224.344H426.322C426.322 226.712 426.898 228.664 428.05 230.2C429.202 231.704 430.818 232.456 432.898 232.456ZM435.682 215.08C434.946 214.696 434.05 214.504 432.994 214.504C431.042 214.504 429.49 215.176 428.338 216.52C427.218 217.832 426.562 219.48 426.37 221.464H438.61C438.61 218.264 437.634 216.136 435.682 215.08ZM471.384 217.672C471.384 215.784 472.184 214.28 473.784 213.16C475.416 212.04 477.608 211.48 480.36 211.48C483.112 211.48 485.256 212.056 486.792 213.208C488.36 214.36 489.176 215.816 489.24 217.576H485.544C485.256 215.496 483.496 214.456 480.264 214.456C478.696 214.456 477.48 214.808 476.616 215.512C475.784 216.216 475.368 216.984 475.368 217.816C475.368 218.616 475.688 219.304 476.328 219.88C476.968 220.424 477.992 220.904 479.4 221.32L484.008 222.856C485.96 223.464 487.448 224.248 488.472 225.208C489.528 226.136 490.056 227.432 490.056 229.096C490.056 230.728 489.208 232.216 487.512 233.56C485.816 234.872 483.448 235.528 480.408 235.528C477.368 235.528 475 234.856 473.304 233.512C471.608 232.136 470.712 230.376 470.616 228.232H474.264C474.328 229.672 474.904 230.76 475.992 231.496C477.112 232.2 478.504 232.552 480.168 232.552C481.832 232.552 483.208 232.2 484.296 231.496C485.384 230.792 485.928 229.96 485.928 229C485.928 228.008 485.608 227.256 484.968 226.744C484.328 226.232 483.288 225.784 481.848 225.4L477.384 223.912C473.384 222.728 471.384 220.648 471.384 217.672ZM498.09 212.008H501.882V235H498.09V212.008ZM499.962 206.632C499.194 206.632 498.586 206.424 498.138 206.008C497.722 205.56 497.514 204.984 497.514 204.28C497.514 203.544 497.722 202.968 498.138 202.552C498.586 202.104 499.194 201.88 499.962 201.88C500.73 201.88 501.338 202.104 501.786 202.552C502.266 202.968 502.506 203.544 502.506 204.28C502.506 204.984 502.266 205.56 501.786 206.008C501.338 206.424 500.73 206.632 499.962 206.632ZM515.841 216.472C517.345 213.144 519.921 211.48 523.569 211.48C525.553 211.48 527.217 211.976 528.561 212.968C529.905 213.928 530.881 215.272 531.489 217C532.929 213.32 535.601 211.48 539.505 211.48C542.257 211.48 544.385 212.376 545.889 214.168C547.393 215.96 548.145 218.408 548.145 221.512V235H544.401V221.512C544.401 219.304 543.873 217.64 542.817 216.52C541.793 215.4 540.305 214.84 538.353 214.84C536.401 214.84 534.881 215.64 533.793 217.24C532.737 218.84 532.209 221.048 532.209 223.864V235H528.465V221.512C528.465 219.304 527.937 217.64 526.881 216.52C525.857 215.4 524.385 214.84 522.465 214.84C520.545 214.84 518.993 215.624 517.809 217.192C516.625 218.76 516.001 220.936 515.937 223.72V235H512.145V212.056H515.409L515.841 216.472ZM560.605 215.56C562.109 212.84 564.349 211.48 567.325 211.48C570.333 211.48 572.829 212.584 574.813 214.792C576.829 217 577.837 219.912 577.837 223.528C577.837 227.144 576.829 230.056 574.813 232.264C572.797 234.44 570.317 235.528 567.373 235.528C564.429 235.528 562.253 234.424 560.845 232.216V246.28H557.053V212.056H560.173L560.605 215.56ZM567.181 232.168C568.973 232.168 570.541 231.4 571.885 229.864C573.261 228.328 573.949 226.232 573.949 223.576C573.949 220.888 573.293 218.76 571.981 217.192C570.701 215.624 569.133 214.84 567.277 214.84C565.421 214.84 563.901 215.432 562.717 216.616C561.533 217.768 560.909 219.336 560.845 221.32V225.688C560.845 227.704 561.453 229.288 562.669 230.44C563.885 231.592 565.389 232.168 567.181 232.168ZM585.553 202.312H589.345V235H585.553V202.312ZM606.926 232.456C610.094 232.456 611.902 231.064 612.35 228.28H616.238C615.886 230.584 614.862 232.376 613.166 233.656C611.502 234.904 609.422 235.528 606.926 235.528C603.854 235.528 601.358 234.44 599.438 232.264C597.518 230.056 596.558 227.128 596.558 223.48C596.558 219.832 597.518 216.92 599.438 214.744C601.39 212.568 603.966 211.48 607.166 211.48C610.398 211.48 612.798 212.728 614.366 215.224C615.966 217.72 616.526 220.76 616.046 224.344H600.35C600.35 226.712 600.926 228.664 602.078 230.2C603.23 231.704 604.846 232.456 606.926 232.456ZM609.71 215.08C608.974 214.696 608.078 214.504 607.022 214.504C605.07 214.504 603.518 215.176 602.366 216.52C601.246 217.832 600.59 219.48 600.398 221.464H612.638C612.638 218.264 611.662 216.136 609.71 215.08ZM658.612 234.328C655.86 235.608 653.348 235.88 651.076 235.144C649.444 234.632 648.292 233.56 647.62 231.928C647.268 231.128 647.092 230.168 647.092 229.048V214.936H643.396V212.056H647.092V205.672H650.836V212.056H658.036V214.936H650.836V229C650.836 231.336 651.924 232.504 654.1 232.504C655.284 232.504 656.612 232.216 658.084 231.64L658.612 234.328ZM672.915 211.48C676.115 211.48 678.691 212.52 680.643 214.6C682.627 216.68 683.619 219.656 683.619 223.528C683.619 227.368 682.627 230.328 680.643 232.408C678.691 234.488 676.115 235.528 672.915 235.528C669.715 235.528 667.123 234.488 665.139 232.408C663.187 230.328 662.211 227.368 662.211 223.528C662.211 219.656 663.187 216.68 665.139 214.6C667.123 212.52 669.715 211.48 672.915 211.48ZM679.779 223.528C679.779 220.776 679.203 218.632 678.051 217.096C676.899 215.528 675.203 214.744 672.963 214.744C670.755 214.744 669.059 215.528 667.875 217.096C666.691 218.632 666.099 220.776 666.099 223.528C666.099 226.248 666.659 228.392 667.779 229.96C668.899 231.496 670.563 232.264 672.771 232.264C675.011 232.264 676.739 231.496 677.955 229.96C679.171 228.392 679.779 226.248 679.779 223.528ZM729.365 230.44C727.797 233.768 725.253 235.432 721.733 235.432C719.141 235.432 717.045 234.712 715.445 233.272C713.877 231.832 713.093 229.608 713.093 226.6V212.008H716.885V226.312C716.885 230.184 718.677 232.12 722.261 232.12C724.341 232.12 726.021 231.32 727.301 229.72C728.613 228.12 729.301 226.072 729.365 223.576V212.008H733.157V235H729.365V230.44ZM741.674 217.672C741.674 215.784 742.474 214.28 744.074 213.16C745.706 212.04 747.898 211.48 750.65 211.48C753.402 211.48 755.546 212.056 757.082 213.208C758.65 214.36 759.466 215.816 759.53 217.576H755.834C755.546 215.496 753.786 214.456 750.554 214.456C748.986 214.456 747.77 214.808 746.906 215.512C746.074 216.216 745.658 216.984 745.658 217.816C745.658 218.616 745.978 219.304 746.618 219.88C747.258 220.424 748.282 220.904 749.69 221.32L754.298 222.856C756.25 223.464 757.738 224.248 758.762 225.208C759.818 226.136 760.346 227.432 760.346 229.096C760.346 230.728 759.498 232.216 757.802 233.56C756.106 234.872 753.738 235.528 750.698 235.528C747.658 235.528 745.29 234.856 743.594 233.512C741.898 232.136 741.002 230.376 740.906 228.232H744.554C744.618 229.672 745.194 230.76 746.282 231.496C747.402 232.2 748.794 232.552 750.458 232.552C752.122 232.552 753.498 232.2 754.586 231.496C755.674 230.792 756.218 229.96 756.218 229C756.218 228.008 755.898 227.256 755.258 226.744C754.618 226.232 753.578 225.784 752.138 225.4L747.674 223.912C743.674 222.728 741.674 220.648 741.674 217.672ZM776.06 232.456C779.228 232.456 781.036 231.064 781.484 228.28H785.372C785.02 230.584 783.996 232.376 782.3 233.656C780.636 234.904 778.556 235.528 776.06 235.528C772.988 235.528 770.492 234.44 768.572 232.264C766.652 230.056 765.692 227.128 765.692 223.48C765.692 219.832 766.652 216.92 768.572 214.744C770.524 212.568 773.1 211.48 776.3 211.48C779.532 211.48 781.932 212.728 783.5 215.224C785.1 217.72 785.66 220.76 785.18 224.344H769.484C769.484 226.712 770.06 228.664 771.212 230.2C772.364 231.704 773.98 232.456 776.06 232.456ZM778.844 215.08C778.108 214.696 777.212 214.504 776.156 214.504C774.204 214.504 772.652 215.176 771.5 216.52C770.38 217.832 769.724 219.48 769.532 221.464H781.772C781.772 218.264 780.796 216.136 778.844 215.08ZM793.035 235.24C792.299 235.176 791.691 234.936 791.211 234.52C790.731 234.104 790.491 233.544 790.491 232.84C790.491 232.136 790.731 231.544 791.211 231.064C791.723 230.584 792.427 230.344 793.323 230.344C794.251 230.344 795.019 230.712 795.627 231.448C796.235 232.152 796.539 233.048 796.539 234.136C796.539 235.224 796.187 236.328 795.483 237.448C794.779 238.6 793.707 239.528 792.267 240.232L789.435 238.84C791.419 237.88 792.619 236.68 793.035 235.24ZM829.376 215.56C830.88 212.84 833.12 211.48 836.096 211.48C839.104 211.48 841.6 212.584 843.584 214.792C845.6 217 846.608 219.912 846.608 223.528C846.608 227.144 845.6 230.056 843.584 232.264C841.568 234.44 839.088 235.528 836.144 235.528C833.2 235.528 831.024 234.424 829.616 232.216V246.28H825.824V212.056H828.944L829.376 215.56ZM835.952 232.168C837.744 232.168 839.312 231.4 840.656 229.864C842.032 228.328 842.72 226.232 842.72 223.576C842.72 220.888 842.064 218.76 840.752 217.192C839.472 215.624 837.904 214.84 836.048 214.84C834.192 214.84 832.672 215.432 831.488 216.616C830.304 217.768 829.68 219.336 829.616 221.32V225.688C829.616 227.704 830.224 229.288 831.44 230.44C832.656 231.592 834.16 232.168 835.952 232.168ZM863.684 215.272C860.068 215.272 858.196 218.12 858.068 223.816V235H854.276V212.008H858.068V216.424C859.22 213.224 861.252 211.624 864.164 211.624C865.092 211.624 865.972 211.768 866.804 212.056L866.612 215.752C865.652 215.432 864.676 215.272 863.684 215.272ZM880.525 232.456C883.693 232.456 885.501 231.064 885.949 228.28H889.837C889.485 230.584 888.461 232.376 886.765 233.656C885.101 234.904 883.021 235.528 880.525 235.528C877.453 235.528 874.957 234.44 873.037 232.264C871.117 230.056 870.157 227.128 870.157 223.48C870.157 219.832 871.117 216.92 873.037 214.744C874.989 212.568 877.565 211.48 880.765 211.48C883.997 211.48 886.397 212.728 887.965 215.224C889.565 217.72 890.125 220.76 889.645 224.344H873.949C873.949 226.712 874.525 228.664 875.677 230.2C876.829 231.704 878.445 232.456 880.525 232.456ZM883.309 215.08C882.573 214.696 881.677 214.504 880.621 214.504C878.669 214.504 877.117 215.176 875.965 216.52C874.845 217.832 874.189 219.48 873.997 221.464H886.237C886.237 218.264 885.261 216.136 883.309 215.08ZM909.308 234.328C906.556 235.608 904.044 235.88 901.772 235.144C900.14 234.632 898.988 233.56 898.316 231.928C897.964 231.128 897.788 230.168 897.788 229.048V214.936H894.092V212.056H897.788V205.672H901.532V212.056H908.732V214.936H901.532V229C901.532 231.336 902.62 232.504 904.796 232.504C905.98 232.504 907.308 232.216 908.78 231.64L909.308 234.328ZM927.355 234.328C924.603 235.608 922.091 235.88 919.819 235.144C918.187 234.632 917.035 233.56 916.363 231.928C916.011 231.128 915.835 230.168 915.835 229.048V214.936H912.139V212.056H915.835V205.672H919.579V212.056H926.779V214.936H919.579V229C919.579 231.336 920.667 232.504 922.843 232.504C924.027 232.504 925.355 232.216 926.827 231.64L927.355 234.328ZM928.794 241.672C930.362 242.888 932.01 243.496 933.738 243.496C935.018 243.496 936.122 242.856 937.05 241.576C937.722 240.648 938.33 239.24 938.874 237.352L939.546 235L930.138 212.056H934.362L941.322 230.344L946.746 212.056H950.586L941.994 239.56C941.258 241.896 940.282 243.688 939.066 244.936C937.882 246.184 936.362 246.808 934.506 246.808C932.682 246.808 930.778 246.248 928.794 245.128V241.672ZM987.475 232.456C990.643 232.456 992.451 231.064 992.899 228.28H996.787C996.435 230.584 995.411 232.376 993.715 233.656C992.051 234.904 989.971 235.528 987.475 235.528C984.403 235.528 981.907 234.44 979.987 232.264C978.067 230.056 977.107 227.128 977.107 223.48C977.107 219.832 978.067 216.92 979.987 214.744C981.939 212.568 984.515 211.48 987.715 211.48C990.947 211.48 993.347 212.728 994.915 215.224C996.515 217.72 997.075 220.76 996.595 224.344H980.899C980.899 226.712 981.475 228.664 982.627 230.2C983.779 231.704 985.395 232.456 987.475 232.456ZM990.259 215.08C989.523 214.696 988.627 214.504 987.571 214.504C985.619 214.504 984.067 215.176 982.915 216.52C981.795 217.832 981.139 219.48 980.947 221.464H993.187C993.187 218.264 992.211 216.136 990.259 215.08ZM1018.47 220.12C1018.47 218.04 1018.03 216.552 1017.17 215.656C1016.31 214.76 1015.04 214.312 1013.38 214.312C1011.75 214.312 1010.42 214.648 1009.39 215.32C1008.4 215.96 1007.91 216.984 1007.91 218.392H1003.73C1003.73 214.872 1005.62 212.696 1009.39 211.864C1010.55 211.608 1011.79 211.48 1013.14 211.48C1015.99 211.48 1018.21 212.2 1019.81 213.64C1021.41 215.08 1022.21 217.272 1022.21 220.216V235H1018.95L1018.56 231.16C1017.15 234.072 1014.61 235.528 1010.93 235.528C1008.47 235.528 1006.48 234.84 1004.98 233.464C1003.51 232.088 1002.77 230.376 1002.77 228.328C1002.77 226.28 1003.59 224.68 1005.22 223.528C1006.88 222.376 1008.95 221.8 1011.41 221.8C1013.87 221.8 1016.23 222.216 1018.47 223.048V220.12ZM1018.47 225.448C1016.19 224.808 1014.21 224.488 1012.51 224.488C1010.82 224.488 1009.44 224.792 1008.39 225.4C1007.33 226.008 1006.8 226.968 1006.8 228.28C1006.8 231.16 1008.43 232.6 1011.7 232.6C1013.55 232.6 1015.14 231.944 1016.45 230.632C1017.79 229.288 1018.47 227.56 1018.47 225.448ZM1029.92 217.672C1029.92 215.784 1030.72 214.28 1032.32 213.16C1033.95 212.04 1036.14 211.48 1038.89 211.48C1041.65 211.48 1043.79 212.056 1045.33 213.208C1046.89 214.36 1047.71 215.816 1047.77 217.576H1044.08C1043.79 215.496 1042.03 214.456 1038.8 214.456C1037.23 214.456 1036.01 214.808 1035.15 215.512C1034.32 216.216 1033.9 216.984 1033.9 217.816C1033.9 218.616 1034.22 219.304 1034.86 219.88C1035.5 220.424 1036.53 220.904 1037.93 221.32L1042.54 222.856C1044.49 223.464 1045.98 224.248 1047.01 225.208C1048.06 226.136 1048.59 227.432 1048.59 229.096C1048.59 230.728 1047.74 232.216 1046.05 233.56C1044.35 234.872 1041.98 235.528 1038.94 235.528C1035.9 235.528 1033.53 234.856 1031.84 233.512C1030.14 232.136 1029.25 230.376 1029.15 228.232H1032.8C1032.86 229.672 1033.44 230.76 1034.53 231.496C1035.65 232.2 1037.04 232.552 1038.7 232.552C1040.37 232.552 1041.74 232.2 1042.83 231.496C1043.92 230.792 1044.46 229.96 1044.46 229C1044.46 228.008 1044.14 227.256 1043.5 226.744C1042.86 226.232 1041.82 225.784 1040.38 225.4L1035.92 223.912C1031.92 222.728 1029.92 220.648 1029.92 217.672ZM1050.84 241.672C1052.41 242.888 1054.05 243.496 1055.78 243.496C1057.06 243.496 1058.17 242.856 1059.09 241.576C1059.77 240.648 1060.37 239.24 1060.92 237.352L1061.59 235L1052.18 212.056H1056.41L1063.37 230.344L1068.79 212.056H1072.63L1064.04 239.56C1063.3 241.896 1062.33 243.688 1061.11 244.936C1059.93 246.184 1058.41 246.808 1056.55 246.808C1054.73 246.808 1052.82 246.248 1050.84 245.128V241.672ZM1113.6 234.328C1110.85 235.608 1108.33 235.88 1106.06 235.144C1104.43 234.632 1103.28 233.56 1102.61 231.928C1102.25 231.128 1102.08 230.168 1102.08 229.048V214.936H1098.38V212.056H1102.08V205.672H1105.82V212.056H1113.02V214.936H1105.82V229C1105.82 231.336 1106.91 232.504 1109.09 232.504C1110.27 232.504 1111.6 232.216 1113.07 231.64L1113.6 234.328ZM1127.9 211.48C1131.1 211.48 1133.68 212.52 1135.63 214.6C1137.61 216.68 1138.6 219.656 1138.6 223.528C1138.6 227.368 1137.61 230.328 1135.63 232.408C1133.68 234.488 1131.1 235.528 1127.9 235.528C1124.7 235.528 1122.11 234.488 1120.12 232.408C1118.17 230.328 1117.2 227.368 1117.2 223.528C1117.2 219.656 1118.17 216.68 1120.12 214.6C1122.11 212.52 1124.7 211.48 1127.9 211.48ZM1134.76 223.528C1134.76 220.776 1134.19 218.632 1133.04 217.096C1131.88 215.528 1130.19 214.744 1127.95 214.744C1125.74 214.744 1124.04 215.528 1122.86 217.096C1121.68 218.632 1121.08 220.776 1121.08 223.528C1121.08 226.248 1121.64 228.392 1122.76 229.96C1123.88 231.496 1125.55 232.264 1127.76 232.264C1130 232.264 1131.72 231.496 1132.94 229.96C1134.16 228.392 1134.76 226.248 1134.76 223.528ZM112.848 258.312H116.64V291H112.848V258.312ZM134.221 288.456C137.389 288.456 139.197 287.064 139.645 284.28H143.533C143.181 286.584 142.157 288.376 140.461 289.656C138.797 290.904 136.717 291.528 134.221 291.528C131.149 291.528 128.653 290.44 126.733 288.264C124.813 286.056 123.853 283.128 123.853 279.48C123.853 275.832 124.813 272.92 126.733 270.744C128.685 268.568 131.261 267.48 134.461 267.48C137.693 267.48 140.093 268.728 141.661 271.224C143.261 273.72 143.821 276.76 143.341 280.344H127.645C127.645 282.712 128.221 284.664 129.373 286.2C130.525 287.704 132.141 288.456 134.221 288.456ZM137.005 271.08C136.269 270.696 135.373 270.504 134.317 270.504C132.365 270.504 130.813 271.176 129.661 272.52C128.541 273.832 127.885 275.48 127.693 277.464H139.933C139.933 274.264 138.957 272.136 137.005 271.08ZM165.212 276.12C165.212 274.04 164.78 272.552 163.916 271.656C163.052 270.76 161.788 270.312 160.124 270.312C158.492 270.312 157.164 270.648 156.14 271.32C155.148 271.96 154.652 272.984 154.652 274.392H150.476C150.476 270.872 152.364 268.696 156.14 267.864C157.292 267.608 158.54 267.48 159.884 267.48C162.732 267.48 164.956 268.2 166.556 269.64C168.156 271.08 168.956 273.272 168.956 276.216V291H165.692L165.308 287.16C163.9 290.072 161.356 291.528 157.676 291.528C155.212 291.528 153.228 290.84 151.724 289.464C150.252 288.088 149.516 286.376 149.516 284.328C149.516 282.28 150.332 280.68 151.964 279.528C153.628 278.376 155.692 277.8 158.156 277.8C160.62 277.8 162.972 278.216 165.212 279.048V276.12ZM165.212 281.448C162.94 280.808 160.956 280.488 159.26 280.488C157.564 280.488 156.188 280.792 155.132 281.4C154.076 282.008 153.548 282.968 153.548 284.28C153.548 287.16 155.18 288.6 158.444 288.6C160.3 288.6 161.884 287.944 163.196 286.632C164.54 285.288 165.212 283.56 165.212 281.448ZM187.224 271.272C183.608 271.272 181.736 274.12 181.608 279.816V291H177.816V268.008H181.608V272.424C182.76 269.224 184.792 267.624 187.704 267.624C188.632 267.624 189.512 267.768 190.344 268.056L190.152 271.752C189.192 271.432 188.216 271.272 187.224 271.272ZM199.793 272.472C201.297 269.144 203.873 267.48 207.521 267.48C210.241 267.48 212.353 268.376 213.857 270.168C215.393 271.96 216.161 274.408 216.161 277.512V291H212.417V277.512C212.417 275.304 211.889 273.64 210.833 272.52C209.809 271.4 208.337 270.84 206.417 270.84C204.497 270.84 202.945 271.624 201.761 273.192C200.577 274.76 199.953 276.936 199.889 279.72V291H196.097V268.056H199.361L199.793 272.472ZM261.482 276.12C261.482 274.04 261.05 272.552 260.186 271.656C259.322 270.76 258.058 270.312 256.394 270.312C254.762 270.312 253.434 270.648 252.41 271.32C251.418 271.96 250.922 272.984 250.922 274.392H246.746C246.746 270.872 248.634 268.696 252.41 267.864C253.562 267.608 254.81 267.48 256.154 267.48C259.002 267.48 261.226 268.2 262.826 269.64C264.426 271.08 265.226 273.272 265.226 276.216V291H261.962L261.578 287.16C260.17 290.072 257.626 291.528 253.946 291.528C251.482 291.528 249.498 290.84 247.994 289.464C246.522 288.088 245.786 286.376 245.786 284.328C245.786 282.28 246.602 280.68 248.234 279.528C249.898 278.376 251.962 277.8 254.426 277.8C256.89 277.8 259.242 278.216 261.482 279.048V276.12ZM261.482 281.448C259.21 280.808 257.226 280.488 255.53 280.488C253.834 280.488 252.458 280.792 251.402 281.4C250.346 282.008 249.818 282.968 249.818 284.28C249.818 287.16 251.45 288.6 254.714 288.6C256.57 288.6 258.154 287.944 259.466 286.632C260.81 285.288 261.482 283.56 261.482 281.448ZM277.782 272.472C279.286 269.144 281.862 267.48 285.51 267.48C288.23 267.48 290.342 268.376 291.846 270.168C293.382 271.96 294.15 274.408 294.15 277.512V291H290.406V277.512C290.406 275.304 289.878 273.64 288.822 272.52C287.798 271.4 286.326 270.84 284.406 270.84C282.486 270.84 280.934 271.624 279.75 273.192C278.566 274.76 277.942 276.936 277.878 279.72V291H274.086V268.056H277.35L277.782 272.472ZM318.08 271.464V258.312H321.824V291H318.752L318.272 287.16C317.536 288.6 316.56 289.688 315.344 290.424C314.128 291.16 312.8 291.528 311.36 291.528C308.448 291.528 306 290.408 304.016 288.168C302.064 285.928 301.088 283.016 301.088 279.432C301.088 275.816 302.048 272.92 303.968 270.744C305.92 268.568 308.368 267.48 311.312 267.48C314.288 267.48 316.544 268.808 318.08 271.464ZM311.552 270.84C309.696 270.84 308.128 271.624 306.848 273.192C305.6 274.76 304.976 276.856 304.976 279.48C304.976 282.104 305.616 284.216 306.896 285.816C308.176 287.384 309.712 288.168 311.504 288.168C313.296 288.168 314.816 287.576 316.064 286.392C317.344 285.176 318.016 283.56 318.08 281.544V277.8C318.08 275.656 317.456 273.96 316.208 272.712C314.96 271.464 313.408 270.84 311.552 270.84ZM354.723 290.28C352.803 289.352 351.843 287.928 351.843 286.008C351.843 285.016 352.211 284.152 352.947 283.416C353.715 282.648 354.659 282.136 355.779 281.88C354.051 280.344 353.187 278.328 353.187 275.832C353.187 273.336 354.067 271.32 355.827 269.784C357.619 268.248 359.731 267.48 362.163 267.48C364.595 267.48 366.659 268.056 368.355 269.208C368.579 267.512 369.251 266.152 370.371 265.128C371.523 264.104 373.027 263.592 374.883 263.592L374.547 267.336C371.731 267.336 370.259 268.52 370.131 270.888C371.251 272.264 371.811 273.912 371.811 275.832C371.811 278.296 370.915 280.328 369.123 281.928C367.363 283.496 365.155 284.28 362.499 284.28C360.675 284.28 359.059 283.912 357.651 283.176C357.011 283.304 356.435 283.608 355.923 284.088C355.411 284.536 355.155 285.16 355.155 285.96C355.155 287.656 356.563 288.504 359.379 288.504H368.307C370.451 288.504 372.147 288.968 373.395 289.896C374.643 290.792 375.267 292.056 375.267 293.688C375.267 296.12 374.035 298.248 371.571 300.072C369.139 301.896 366.051 302.808 362.307 302.808C358.563 302.808 355.619 302.104 353.475 300.696C351.331 299.32 350.259 297.576 350.259 295.464C350.259 294.088 350.659 292.968 351.459 292.104C352.291 291.24 353.379 290.632 354.723 290.28ZM354.003 295.32C354.003 296.536 354.659 297.576 355.971 298.44C357.315 299.336 359.331 299.784 362.019 299.784C364.739 299.784 366.995 299.192 368.787 298.008C370.611 296.856 371.523 295.496 371.523 293.928C371.523 293.192 371.251 292.552 370.707 292.008C370.195 291.496 369.395 291.24 368.307 291.24H359.043C357.411 291.304 356.163 291.688 355.299 292.392C354.435 293.128 354.003 294.104 354.003 295.32ZM368.115 275.832C368.115 274.168 367.619 272.824 366.627 271.8C365.635 270.744 364.259 270.216 362.499 270.216C360.771 270.216 359.411 270.744 358.419 271.8C357.427 272.824 356.931 274.168 356.931 275.832C356.931 277.496 357.427 278.872 358.419 279.96C359.443 281.016 360.819 281.544 362.547 281.544C364.275 281.544 365.635 281 366.627 279.912C367.619 278.824 368.115 277.464 368.115 275.832ZM388.824 288.456C391.992 288.456 393.8 287.064 394.248 284.28H398.136C397.784 286.584 396.76 288.376 395.064 289.656C393.4 290.904 391.32 291.528 388.824 291.528C385.752 291.528 383.256 290.44 381.336 288.264C379.416 286.056 378.456 283.128 378.456 279.48C378.456 275.832 379.416 272.92 381.336 270.744C383.288 268.568 385.864 267.48 389.064 267.48C392.296 267.48 394.696 268.728 396.264 271.224C397.864 273.72 398.424 276.76 397.944 280.344H382.248C382.248 282.712 382.824 284.664 383.976 286.2C385.128 287.704 386.744 288.456 388.824 288.456ZM391.608 271.08C390.872 270.696 389.976 270.504 388.92 270.504C386.968 270.504 385.416 271.176 384.264 272.52C383.144 273.832 382.488 275.48 382.296 277.464H394.536C394.536 274.264 393.56 272.136 391.608 271.08ZM417.607 290.328C414.855 291.608 412.343 291.88 410.071 291.144C408.439 290.632 407.287 289.56 406.615 287.928C406.263 287.128 406.087 286.168 406.087 285.048V270.936H402.391V268.056H406.087V261.672H409.831V268.056H417.031V270.936H409.831V285C409.831 287.336 410.919 288.504 413.095 288.504C414.279 288.504 415.607 288.216 417.079 287.64L417.607 290.328ZM444.661 273.672C444.661 271.784 445.461 270.28 447.061 269.16C448.693 268.04 450.885 267.48 453.637 267.48C456.389 267.48 458.533 268.056 460.069 269.208C461.637 270.36 462.453 271.816 462.517 273.576H458.821C458.533 271.496 456.773 270.456 453.541 270.456C451.973 270.456 450.757 270.808 449.893 271.512C449.061 272.216 448.645 272.984 448.645 273.816C448.645 274.616 448.965 275.304 449.605 275.88C450.245 276.424 451.269 276.904 452.677 277.32L457.285 278.856C459.237 279.464 460.725 280.248 461.749 281.208C462.805 282.136 463.333 283.432 463.333 285.096C463.333 286.728 462.485 288.216 460.789 289.56C459.093 290.872 456.725 291.528 453.685 291.528C450.645 291.528 448.277 290.856 446.581 289.512C444.885 288.136 443.989 286.376 443.893 284.232H447.541C447.605 285.672 448.181 286.76 449.269 287.496C450.389 288.2 451.781 288.552 453.445 288.552C455.109 288.552 456.485 288.2 457.573 287.496C458.661 286.792 459.205 285.96 459.205 285C459.205 284.008 458.885 283.256 458.245 282.744C457.605 282.232 456.565 281.784 455.125 281.4L450.661 279.912C446.661 278.728 444.661 276.648 444.661 273.672ZM483.127 290.328C480.375 291.608 477.863 291.88 475.591 291.144C473.959 290.632 472.807 289.56 472.135 287.928C471.783 287.128 471.607 286.168 471.607 285.048V270.936H467.911V268.056H471.607V261.672H475.351V268.056H482.551V270.936H475.351V285C475.351 287.336 476.439 288.504 478.615 288.504C479.799 288.504 481.127 288.216 482.599 287.64L483.127 290.328ZM503.382 276.12C503.382 274.04 502.95 272.552 502.086 271.656C501.222 270.76 499.958 270.312 498.294 270.312C496.662 270.312 495.334 270.648 494.31 271.32C493.318 271.96 492.822 272.984 492.822 274.392H488.646C488.646 270.872 490.534 268.696 494.31 267.864C495.462 267.608 496.71 267.48 498.054 267.48C500.902 267.48 503.126 268.2 504.726 269.64C506.326 271.08 507.126 273.272 507.126 276.216V291H503.862L503.478 287.16C502.07 290.072 499.526 291.528 495.846 291.528C493.382 291.528 491.398 290.84 489.894 289.464C488.422 288.088 487.686 286.376 487.686 284.328C487.686 282.28 488.502 280.68 490.134 279.528C491.798 278.376 493.862 277.8 496.326 277.8C498.79 277.8 501.142 278.216 503.382 279.048V276.12ZM503.382 281.448C501.11 280.808 499.126 280.488 497.43 280.488C495.734 280.488 494.358 280.792 493.302 281.4C492.246 282.008 491.718 282.968 491.718 284.28C491.718 287.16 493.35 288.6 496.614 288.6C498.47 288.6 500.054 287.944 501.366 286.632C502.71 285.288 503.382 283.56 503.382 281.448ZM525.393 271.272C521.777 271.272 519.905 274.12 519.777 279.816V291H515.985V268.008H519.777V272.424C520.929 269.224 522.961 267.624 525.873 267.624C526.801 267.624 527.681 267.768 528.513 268.056L528.321 271.752C527.361 271.432 526.385 271.272 525.393 271.272ZM546.315 290.328C543.563 291.608 541.051 291.88 538.779 291.144C537.147 290.632 535.995 289.56 535.323 287.928C534.971 287.128 534.795 286.168 534.795 285.048V270.936H531.099V268.056H534.795V261.672H538.539V268.056H545.739V270.936H538.539V285C538.539 287.336 539.627 288.504 541.803 288.504C542.987 288.504 544.315 288.216 545.787 287.64L546.315 290.328ZM560.281 288.456C563.449 288.456 565.257 287.064 565.705 284.28H569.593C569.241 286.584 568.217 288.376 566.521 289.656C564.857 290.904 562.777 291.528 560.281 291.528C557.209 291.528 554.713 290.44 552.793 288.264C550.873 286.056 549.913 283.128 549.913 279.48C549.913 275.832 550.873 272.92 552.793 270.744C554.745 268.568 557.321 267.48 560.521 267.48C563.753 267.48 566.153 268.728 567.721 271.224C569.321 273.72 569.881 276.76 569.401 280.344H553.705C553.705 282.712 554.281 284.664 555.433 286.2C556.585 287.704 558.201 288.456 560.281 288.456ZM563.065 271.08C562.329 270.696 561.433 270.504 560.377 270.504C558.425 270.504 556.873 271.176 555.721 272.52C554.601 273.832 553.945 275.48 553.753 277.464H565.993C565.993 274.264 565.017 272.136 563.065 271.08ZM592.089 271.464V258.312H595.833V291H592.761L592.281 287.16C591.545 288.6 590.569 289.688 589.353 290.424C588.137 291.16 586.809 291.528 585.369 291.528C582.457 291.528 580.009 290.408 578.025 288.168C576.073 285.928 575.097 283.016 575.097 279.432C575.097 275.816 576.057 272.92 577.977 270.744C579.929 268.568 582.377 267.48 585.321 267.48C588.297 267.48 590.553 268.808 592.089 271.464ZM585.561 270.84C583.705 270.84 582.137 271.624 580.857 273.192C579.609 274.76 578.985 276.856 578.985 279.48C578.985 282.104 579.625 284.216 580.905 285.816C582.185 287.384 583.721 288.168 585.513 288.168C587.305 288.168 588.825 287.576 590.073 286.392C591.353 285.176 592.025 283.56 592.089 281.544V277.8C592.089 275.656 591.465 273.96 590.217 272.712C588.969 271.464 587.417 270.84 585.561 270.84ZM637.132 271.272C633.516 271.272 631.644 274.12 631.516 279.816V291H627.724V268.008H631.516V272.424C632.668 269.224 634.7 267.624 637.612 267.624C638.54 267.624 639.42 267.768 640.252 268.056L640.06 271.752C639.1 271.432 638.124 271.272 637.132 271.272ZM646.293 268.008H650.085V291H646.293V268.008ZM648.165 262.632C647.397 262.632 646.789 262.424 646.341 262.008C645.925 261.56 645.717 260.984 645.717 260.28C645.717 259.544 645.925 258.968 646.341 258.552C646.789 258.104 647.397 257.88 648.165 257.88C648.933 257.88 649.541 258.104 649.989 258.552C650.469 258.968 650.709 259.544 650.709 260.28C650.709 260.984 650.469 261.56 649.989 262.008C649.541 262.424 648.933 262.632 648.165 262.632ZM661.357 290.28C659.437 289.352 658.477 287.928 658.477 286.008C658.477 285.016 658.845 284.152 659.581 283.416C660.349 282.648 661.293 282.136 662.413 281.88C660.685 280.344 659.821 278.328 659.821 275.832C659.821 273.336 660.701 271.32 662.461 269.784C664.253 268.248 666.365 267.48 668.797 267.48C671.229 267.48 673.293 268.056 674.989 269.208C675.213 267.512 675.885 266.152 677.005 265.128C678.157 264.104 679.661 263.592 681.517 263.592L681.181 267.336C678.365 267.336 676.893 268.52 676.765 270.888C677.885 272.264 678.445 273.912 678.445 275.832C678.445 278.296 677.549 280.328 675.757 281.928C673.997 283.496 671.789 284.28 669.133 284.28C667.309 284.28 665.693 283.912 664.285 283.176C663.645 283.304 663.069 283.608 662.557 284.088C662.045 284.536 661.789 285.16 661.789 285.96C661.789 287.656 663.197 288.504 666.013 288.504H674.941C677.085 288.504 678.781 288.968 680.029 289.896C681.277 290.792 681.901 292.056 681.901 293.688C681.901 296.12 680.669 298.248 678.205 300.072C675.773 301.896 672.685 302.808 668.941 302.808C665.197 302.808 662.253 302.104 660.109 300.696C657.965 299.32 656.893 297.576 656.893 295.464C656.893 294.088 657.293 292.968 658.093 292.104C658.925 291.24 660.013 290.632 661.357 290.28ZM660.637 295.32C660.637 296.536 661.293 297.576 662.605 298.44C663.949 299.336 665.965 299.784 668.653 299.784C671.373 299.784 673.629 299.192 675.421 298.008C677.245 296.856 678.157 295.496 678.157 293.928C678.157 293.192 677.885 292.552 677.341 292.008C676.829 291.496 676.029 291.24 674.941 291.24H665.677C664.045 291.304 662.797 291.688 661.933 292.392C661.069 293.128 660.637 294.104 660.637 295.32ZM674.749 275.832C674.749 274.168 674.253 272.824 673.261 271.8C672.269 270.744 670.893 270.216 669.133 270.216C667.405 270.216 666.045 270.744 665.053 271.8C664.061 272.824 663.565 274.168 663.565 275.832C663.565 277.496 664.061 278.872 665.053 279.96C666.077 281.016 667.453 281.544 669.181 281.544C670.909 281.544 672.269 281 673.261 279.912C674.253 278.824 674.749 277.464 674.749 275.832ZM691.33 272.28C692.866 269.08 695.41 267.48 698.962 267.48C701.682 267.48 703.794 268.376 705.298 270.168C706.834 271.96 707.602 274.408 707.602 277.512V291H703.858V277.512C703.858 275.304 703.33 273.64 702.274 272.52C701.25 271.4 699.762 270.84 697.81 270.84C695.858 270.84 694.29 271.672 693.106 273.336C691.922 274.968 691.33 277.24 691.33 280.152V291H687.538V258.312H691.33V272.28ZM728.507 290.328C725.755 291.608 723.243 291.88 720.971 291.144C719.339 290.632 718.187 289.56 717.515 287.928C717.163 287.128 716.987 286.168 716.987 285.048V270.936H713.291V268.056H716.987V261.672H720.731V268.056H727.931V270.936H720.731V285C720.731 287.336 721.819 288.504 723.995 288.504C725.179 288.504 726.507 288.216 727.979 287.64L728.507 290.328ZM770.969 276.12C770.969 274.04 770.537 272.552 769.673 271.656C768.809 270.76 767.545 270.312 765.881 270.312C764.249 270.312 762.921 270.648 761.897 271.32C760.905 271.96 760.409 272.984 760.409 274.392H756.233C756.233 270.872 758.121 268.696 761.897 267.864C763.049 267.608 764.297 267.48 765.641 267.48C768.489 267.48 770.713 268.2 772.313 269.64C773.913 271.08 774.713 273.272 774.713 276.216V291H771.449L771.065 287.16C769.657 290.072 767.113 291.528 763.433 291.528C760.969 291.528 758.985 290.84 757.481 289.464C756.009 288.088 755.273 286.376 755.273 284.328C755.273 282.28 756.089 280.68 757.721 279.528C759.385 278.376 761.449 277.8 763.913 277.8C766.377 277.8 768.729 278.216 770.969 279.048V276.12ZM770.969 281.448C768.697 280.808 766.713 280.488 765.017 280.488C763.321 280.488 761.945 280.792 760.889 281.4C759.833 282.008 759.305 282.968 759.305 284.28C759.305 287.16 760.937 288.6 764.201 288.6C766.057 288.6 767.641 287.944 768.953 286.632C770.297 285.288 770.969 283.56 770.969 281.448ZM783.572 268.056L789.14 286.344L794.612 269.16H797.78L803.204 286.536L808.82 268.056H812.564L805.076 291H801.38L796.1 274.92L790.916 291H787.268L779.636 268.056H783.572ZM832.61 276.12C832.61 274.04 832.178 272.552 831.314 271.656C830.45 270.76 829.186 270.312 827.522 270.312C825.89 270.312 824.562 270.648 823.538 271.32C822.546 271.96 822.05 272.984 822.05 274.392H817.874C817.874 270.872 819.762 268.696 823.538 267.864C824.69 267.608 825.938 267.48 827.282 267.48C830.13 267.48 832.354 268.2 833.954 269.64C835.554 271.08 836.354 273.272 836.354 276.216V291H833.09L832.706 287.16C831.298 290.072 828.754 291.528 825.074 291.528C822.61 291.528 820.626 290.84 819.122 289.464C817.65 288.088 816.914 286.376 816.914 284.328C816.914 282.28 817.73 280.68 819.362 279.528C821.026 278.376 823.09 277.8 825.554 277.8C828.018 277.8 830.37 278.216 832.61 279.048V276.12ZM832.61 281.448C830.338 280.808 828.354 280.488 826.658 280.488C824.962 280.488 823.586 280.792 822.53 281.4C821.474 282.008 820.946 282.968 820.946 284.28C820.946 287.16 822.578 288.6 825.842 288.6C827.698 288.6 829.282 287.944 830.594 286.632C831.938 285.288 832.61 283.56 832.61 281.448ZM840.653 297.672C842.221 298.888 843.869 299.496 845.597 299.496C846.877 299.496 847.981 298.856 848.909 297.576C849.581 296.648 850.189 295.24 850.733 293.352L851.405 291L841.997 268.056H846.221L853.181 286.344L858.605 268.056H862.445L853.853 295.56C853.117 297.896 852.141 299.688 850.925 300.936C849.741 302.184 848.221 302.808 846.365 302.808C844.541 302.808 842.637 302.248 840.653 301.128V297.672ZM867.887 291.432C867.087 291.432 866.415 291.176 865.871 290.664C865.359 290.12 865.103 289.48 865.103 288.744C865.103 287.976 865.359 287.336 865.871 286.824C866.415 286.28 867.087 286.008 867.887 286.008C868.719 286.008 869.407 286.28 869.951 286.824C870.495 287.336 870.767 287.976 870.767 288.744C870.767 289.48 870.495 290.12 869.951 290.664C869.407 291.176 868.719 291.432 867.887 291.432ZM903.089 260.808V274.104H917.921V260.808H921.713V291H917.921V277.368H903.089V291H899.297V260.808H903.089ZM939.662 267.48C942.862 267.48 945.438 268.52 947.39 270.6C949.374 272.68 950.366 275.656 950.366 279.528C950.366 283.368 949.374 286.328 947.39 288.408C945.438 290.488 942.862 291.528 939.662 291.528C936.462 291.528 933.87 290.488 931.886 288.408C929.934 286.328 928.958 283.368 928.958 279.528C928.958 275.656 929.934 272.68 931.886 270.6C933.87 268.52 936.462 267.48 939.662 267.48ZM946.526 279.528C946.526 276.776 945.95 274.632 944.798 273.096C943.646 271.528 941.95 270.744 939.71 270.744C937.502 270.744 935.806 271.528 934.622 273.096C933.438 274.632 932.846 276.776 932.846 279.528C932.846 282.248 933.406 284.392 934.526 285.96C935.646 287.496 937.31 288.264 939.518 288.264C941.758 288.264 943.486 287.496 944.702 285.96C945.918 284.392 946.526 282.248 946.526 279.528ZM961.257 272.472C962.761 269.144 965.337 267.48 968.985 267.48C971.705 267.48 973.817 268.376 975.321 270.168C976.857 271.96 977.625 274.408 977.625 277.512V291H973.881V277.512C973.881 275.304 973.353 273.64 972.297 272.52C971.273 271.4 969.801 270.84 967.881 270.84C965.961 270.84 964.409 271.624 963.225 273.192C962.041 274.76 961.417 276.936 961.353 279.72V291H957.561V268.056H960.825L961.257 272.472ZM994.451 288.456C997.619 288.456 999.427 287.064 999.875 284.28H1003.76C1003.41 286.584 1002.39 288.376 1000.69 289.656C999.027 290.904 996.947 291.528 994.451 291.528C991.379 291.528 988.883 290.44 986.963 288.264C985.043 286.056 984.083 283.128 984.083 279.48C984.083 275.832 985.043 272.92 986.963 270.744C988.915 268.568 991.491 267.48 994.691 267.48C997.923 267.48 1000.32 268.728 1001.89 271.224C1003.49 273.72 1004.05 276.76 1003.57 280.344H987.875C987.875 282.712 988.451 284.664 989.603 286.2C990.755 287.704 992.371 288.456 994.451 288.456ZM997.235 271.08C996.499 270.696 995.603 270.504 994.547 270.504C992.595 270.504 991.043 271.176 989.891 272.52C988.771 273.832 988.115 275.48 987.923 277.464H1000.16C1000.16 274.264 999.187 272.136 997.235 271.08ZM1010.03 273.672C1010.03 271.784 1010.83 270.28 1012.43 269.16C1014.07 268.04 1016.26 267.48 1019.01 267.48C1021.76 267.48 1023.91 268.056 1025.44 269.208C1027.01 270.36 1027.83 271.816 1027.89 273.576H1024.19C1023.91 271.496 1022.15 270.456 1018.91 270.456C1017.35 270.456 1016.13 270.808 1015.27 271.512C1014.43 272.216 1014.02 272.984 1014.02 273.816C1014.02 274.616 1014.34 275.304 1014.98 275.88C1015.62 276.424 1016.64 276.904 1018.05 277.32L1022.66 278.856C1024.61 279.464 1026.1 280.248 1027.12 281.208C1028.18 282.136 1028.71 283.432 1028.71 285.096C1028.71 286.728 1027.86 288.216 1026.16 289.56C1024.47 290.872 1022.1 291.528 1019.06 291.528C1016.02 291.528 1013.65 290.856 1011.95 289.512C1010.26 288.136 1009.36 286.376 1009.27 284.232H1012.91C1012.98 285.672 1013.55 286.76 1014.64 287.496C1015.76 288.2 1017.15 288.552 1018.82 288.552C1020.48 288.552 1021.86 288.2 1022.95 287.496C1024.03 286.792 1024.58 285.96 1024.58 285C1024.58 284.008 1024.26 283.256 1023.62 282.744C1022.98 282.232 1021.94 281.784 1020.5 281.4L1016.03 279.912C1012.03 278.728 1010.03 276.648 1010.03 273.672ZM1048.5 290.328C1045.75 291.608 1043.24 291.88 1040.96 291.144C1039.33 290.632 1038.18 289.56 1037.51 287.928C1037.16 287.128 1036.98 286.168 1036.98 285.048V270.936H1033.28V268.056H1036.98V261.672H1040.72V268.056H1047.92V270.936H1040.72V285C1040.72 287.336 1041.81 288.504 1043.99 288.504C1045.17 288.504 1046.5 288.216 1047.97 287.64L1048.5 290.328ZM1054.55 258.312H1058.34V291H1054.55V258.312ZM1063.39 297.672C1064.96 298.888 1066.61 299.496 1068.34 299.496C1069.62 299.496 1070.72 298.856 1071.65 297.576C1072.32 296.648 1072.93 295.24 1073.47 293.352L1074.14 291L1064.74 268.056H1068.96L1075.92 286.344L1081.34 268.056H1085.18L1076.59 295.56C1075.86 297.896 1074.88 299.688 1073.66 300.936C1072.48 302.184 1070.96 302.808 1069.1 302.808C1067.28 302.808 1065.38 302.248 1063.39 301.128V297.672ZM1113.7 268.008H1117.49V291H1113.7V268.008ZM1115.57 262.632C1114.8 262.632 1114.19 262.424 1113.75 262.008C1113.33 261.56 1113.12 260.984 1113.12 260.28C1113.12 259.544 1113.33 258.968 1113.75 258.552C1114.19 258.104 1114.8 257.88 1115.57 257.88C1116.34 257.88 1116.95 258.104 1117.39 258.552C1117.87 258.968 1118.11 259.544 1118.11 260.28C1118.11 260.984 1117.87 261.56 1117.39 262.008C1116.95 262.424 1116.34 262.632 1115.57 262.632ZM1139.8 290.328C1137.05 291.608 1134.54 291.88 1132.27 291.144C1130.63 290.632 1129.48 289.56 1128.81 287.928C1128.46 287.128 1128.28 286.168 1128.28 285.048V270.936H1124.59V268.056H1128.28V261.672H1132.03V268.056H1139.23V270.936H1132.03V285C1132.03 287.336 1133.11 288.504 1135.29 288.504C1136.47 288.504 1137.8 288.216 1139.27 287.64L1139.8 290.328ZM112.8 324.056L118.368 342.344L123.84 325.16H127.008L132.432 342.536L138.048 324.056H141.792L134.304 347H130.608L125.328 330.92L120.144 347H116.496L108.864 324.056H112.8ZM155.885 323.48C159.085 323.48 161.661 324.52 163.613 326.6C165.597 328.68 166.589 331.656 166.589 335.528C166.589 339.368 165.597 342.328 163.613 344.408C161.661 346.488 159.085 347.528 155.885 347.528C152.685 347.528 150.093 346.488 148.109 344.408C146.157 342.328 145.181 339.368 145.181 335.528C145.181 331.656 146.157 328.68 148.109 326.6C150.093 324.52 152.685 323.48 155.885 323.48ZM162.749 335.528C162.749 332.776 162.173 330.632 161.021 329.096C159.869 327.528 158.173 326.744 155.933 326.744C153.725 326.744 152.029 327.528 150.845 329.096C149.661 330.632 149.069 332.776 149.069 335.528C149.069 338.248 149.629 340.392 150.749 341.96C151.869 343.496 153.533 344.264 155.741 344.264C157.981 344.264 159.709 343.496 160.925 341.96C162.141 340.392 162.749 338.248 162.749 335.528ZM183.192 327.272C179.576 327.272 177.704 330.12 177.576 335.816V347H173.784V324.008H177.576V328.424C178.728 325.224 180.76 323.624 183.672 323.624C184.6 323.624 185.48 323.768 186.312 324.056L186.12 327.752C185.16 327.432 184.184 327.272 183.192 327.272ZM198.978 334.856L195.906 337.352V347H192.114V314.312H195.906V333.32L206.994 324.056H212.274L201.714 332.648L212.802 347H208.146L198.978 334.856ZM218.007 329.672C218.007 327.784 218.807 326.28 220.407 325.16C222.039 324.04 224.231 323.48 226.983 323.48C229.735 323.48 231.879 324.056 233.415 325.208C234.983 326.36 235.799 327.816 235.863 329.576H232.167C231.879 327.496 230.119 326.456 226.887 326.456C225.319 326.456 224.103 326.808 223.239 327.512C222.407 328.216 221.991 328.984 221.991 329.816C221.991 330.616 222.311 331.304 222.951 331.88C223.591 332.424 224.615 332.904 226.023 333.32L230.631 334.856C232.583 335.464 234.071 336.248 235.095 337.208C236.151 338.136 236.679 339.432 236.679 341.096C236.679 342.728 235.831 344.216 234.135 345.56C232.439 346.872 230.071 347.528 227.031 347.528C223.991 347.528 221.623 346.856 219.927 345.512C218.231 344.136 217.335 342.376 217.239 340.232H220.887C220.951 341.672 221.527 342.76 222.615 343.496C223.735 344.2 225.127 344.552 226.791 344.552C228.455 344.552 229.831 344.2 230.919 343.496C232.007 342.792 232.551 341.96 232.551 341C232.551 340.008 232.231 339.256 231.591 338.744C230.951 338.232 229.911 337.784 228.471 337.4L224.007 335.912C220.007 334.728 218.007 332.648 218.007 329.672ZM261.292 346.28C259.372 345.352 258.412 343.928 258.412 342.008C258.412 341.016 258.78 340.152 259.516 339.416C260.284 338.648 261.228 338.136 262.348 337.88C260.62 336.344 259.756 334.328 259.756 331.832C259.756 329.336 260.636 327.32 262.396 325.784C264.188 324.248 266.3 323.48 268.732 323.48C271.164 323.48 273.228 324.056 274.924 325.208C275.148 323.512 275.82 322.152 276.94 321.128C278.092 320.104 279.596 319.592 281.452 319.592L281.116 323.336C278.3 323.336 276.828 324.52 276.7 326.888C277.82 328.264 278.38 329.912 278.38 331.832C278.38 334.296 277.484 336.328 275.692 337.928C273.932 339.496 271.724 340.28 269.068 340.28C267.244 340.28 265.628 339.912 264.22 339.176C263.58 339.304 263.004 339.608 262.492 340.088C261.98 340.536 261.724 341.16 261.724 341.96C261.724 343.656 263.132 344.504 265.948 344.504H274.876C277.02 344.504 278.716 344.968 279.964 345.896C281.212 346.792 281.836 348.056 281.836 349.688C281.836 352.12 280.604 354.248 278.14 356.072C275.708 357.896 272.62 358.808 268.876 358.808C265.132 358.808 262.188 358.104 260.044 356.696C257.9 355.32 256.828 353.576 256.828 351.464C256.828 350.088 257.228 348.968 258.028 348.104C258.86 347.24 259.948 346.632 261.292 346.28ZM260.572 351.32C260.572 352.536 261.228 353.576 262.54 354.44C263.884 355.336 265.9 355.784 268.588 355.784C271.308 355.784 273.564 355.192 275.356 354.008C277.18 352.856 278.092 351.496 278.092 349.928C278.092 349.192 277.82 348.552 277.276 348.008C276.764 347.496 275.964 347.24 274.876 347.24H265.612C263.98 347.304 262.732 347.688 261.868 348.392C261.004 349.128 260.572 350.104 260.572 351.32ZM274.684 331.832C274.684 330.168 274.188 328.824 273.196 327.8C272.204 326.744 270.828 326.216 269.068 326.216C267.34 326.216 265.98 326.744 264.988 327.8C263.996 328.824 263.5 330.168 263.5 331.832C263.5 333.496 263.996 334.872 264.988 335.96C266.012 337.016 267.388 337.544 269.116 337.544C270.844 337.544 272.204 337 273.196 335.912C274.188 334.824 274.684 333.464 274.684 331.832ZM296.833 327.272C293.217 327.272 291.345 330.12 291.217 335.816V347H287.425V324.008H291.217V328.424C292.369 325.224 294.401 323.624 297.313 323.624C298.241 323.624 299.121 323.768 299.953 324.056L299.761 327.752C298.801 327.432 297.825 327.272 296.833 327.272ZM313.674 344.456C316.842 344.456 318.65 343.064 319.098 340.28H322.986C322.634 342.584 321.61 344.376 319.914 345.656C318.25 346.904 316.17 347.528 313.674 347.528C310.602 347.528 308.106 346.44 306.186 344.264C304.266 342.056 303.306 339.128 303.306 335.48C303.306 331.832 304.266 328.92 306.186 326.744C308.138 324.568 310.714 323.48 313.914 323.48C317.146 323.48 319.546 324.728 321.114 327.224C322.714 329.72 323.274 332.76 322.794 336.344H307.098C307.098 338.712 307.674 340.664 308.826 342.2C309.978 343.704 311.594 344.456 313.674 344.456ZM316.458 327.08C315.722 326.696 314.826 326.504 313.77 326.504C311.818 326.504 310.266 327.176 309.114 328.52C307.994 329.832 307.338 331.48 307.146 333.464H319.386C319.386 330.264 318.41 328.136 316.458 327.08ZM344.665 332.12C344.665 330.04 344.233 328.552 343.369 327.656C342.505 326.76 341.241 326.312 339.577 326.312C337.945 326.312 336.617 326.648 335.593 327.32C334.601 327.96 334.105 328.984 334.105 330.392H329.929C329.929 326.872 331.817 324.696 335.593 323.864C336.745 323.608 337.993 323.48 339.337 323.48C342.185 323.48 344.409 324.2 346.009 325.64C347.609 327.08 348.409 329.272 348.409 332.216V347H345.145L344.761 343.16C343.353 346.072 340.809 347.528 337.129 347.528C334.665 347.528 332.681 346.84 331.177 345.464C329.705 344.088 328.969 342.376 328.969 340.328C328.969 338.28 329.785 336.68 331.417 335.528C333.081 334.376 335.145 333.8 337.609 333.8C340.073 333.8 342.425 334.216 344.665 335.048V332.12ZM344.665 337.448C342.393 336.808 340.409 336.488 338.713 336.488C337.017 336.488 335.641 336.792 334.585 337.4C333.529 338.008 333.001 338.968 333.001 340.28C333.001 343.16 334.633 344.6 337.897 344.6C339.753 344.6 341.337 343.944 342.649 342.632C343.993 341.288 344.665 339.56 344.665 337.448ZM369.317 346.328C366.565 347.608 364.053 347.88 361.781 347.144C360.149 346.632 358.997 345.56 358.325 343.928C357.973 343.128 357.797 342.168 357.797 341.048V326.936H354.101V324.056H357.797V317.672H361.541V324.056H368.741V326.936H361.541V341C361.541 343.336 362.629 344.504 364.805 344.504C365.989 344.504 367.317 344.216 368.789 343.64L369.317 346.328ZM374.74 347.432C373.94 347.432 373.268 347.176 372.724 346.664C372.212 346.12 371.956 345.48 371.956 344.744C371.956 343.976 372.212 343.336 372.724 342.824C373.268 342.28 373.94 342.008 374.74 342.008C375.572 342.008 376.26 342.28 376.804 342.824C377.348 343.336 377.62 343.976 377.62 344.744C377.62 345.48 377.348 346.12 376.804 346.664C376.26 347.176 375.572 347.432 374.74 347.432ZM411.801 346.328C409.049 347.608 406.537 347.88 404.265 347.144C402.633 346.632 401.481 345.56 400.809 343.928C400.457 343.128 400.281 342.168 400.281 341.048V326.936H396.585V324.056H400.281V317.672H404.025V324.056H411.225V326.936H404.025V341C404.025 343.336 405.113 344.504 407.289 344.504C408.473 344.504 409.801 344.216 411.273 343.64L411.801 346.328ZM421.64 328.28C423.176 325.08 425.72 323.48 429.272 323.48C431.992 323.48 434.104 324.376 435.608 326.168C437.144 327.96 437.912 330.408 437.912 333.512V347H434.168V333.512C434.168 331.304 433.64 329.64 432.584 328.52C431.56 327.4 430.072 326.84 428.12 326.84C426.168 326.84 424.6 327.672 423.416 329.336C422.232 330.968 421.64 333.24 421.64 336.152V347H417.848V314.312H421.64V328.28ZM447.057 324.008H450.849V347H447.057V324.008ZM448.929 318.632C448.161 318.632 447.553 318.424 447.105 318.008C446.689 317.56 446.481 316.984 446.481 316.28C446.481 315.544 446.689 314.968 447.105 314.552C447.553 314.104 448.161 313.88 448.929 313.88C449.697 313.88 450.305 314.104 450.753 314.552C451.233 314.968 451.473 315.544 451.473 316.28C451.473 316.984 451.233 317.56 450.753 318.008C450.305 318.424 449.697 318.632 448.929 318.632ZM459.961 329.672C459.961 327.784 460.761 326.28 462.361 325.16C463.993 324.04 466.185 323.48 468.937 323.48C471.689 323.48 473.833 324.056 475.369 325.208C476.937 326.36 477.753 327.816 477.817 329.576H474.121C473.833 327.496 472.073 326.456 468.841 326.456C467.273 326.456 466.057 326.808 465.193 327.512C464.361 328.216 463.945 328.984 463.945 329.816C463.945 330.616 464.265 331.304 464.905 331.88C465.545 332.424 466.569 332.904 467.977 333.32L472.585 334.856C474.537 335.464 476.025 336.248 477.049 337.208C478.105 338.136 478.633 339.432 478.633 341.096C478.633 342.728 477.785 344.216 476.089 345.56C474.393 346.872 472.025 347.528 468.984 347.528C465.945 347.528 463.577 346.856 461.881 345.512C460.185 344.136 459.289 342.376 459.193 340.232H462.841C462.905 341.672 463.481 342.76 464.569 343.496C465.689 344.2 467.081 344.552 468.745 344.552C470.409 344.552 471.785 344.2 472.873 343.496C473.961 342.792 474.505 341.96 474.505 341C474.505 340.008 474.185 339.256 473.545 338.744C472.905 338.232 471.865 337.784 470.424 337.4L465.961 335.912C461.961 334.728 459.961 332.648 459.961 329.672ZM516.494 332.12C516.494 330.04 516.062 328.552 515.198 327.656C514.334 326.76 513.07 326.312 511.406 326.312C509.774 326.312 508.446 326.648 507.422 327.32C506.43 327.96 505.934 328.984 505.934 330.392H501.758C501.758 326.872 503.646 324.696 507.422 323.864C508.574 323.608 509.822 323.48 511.166 323.48C514.014 323.48 516.238 324.2 517.838 325.64C519.438 327.08 520.238 329.272 520.238 332.216V347H516.974L516.59 343.16C515.182 346.072 512.638 347.528 508.958 347.528C506.494 347.528 504.51 346.84 503.006 345.464C501.534 344.088 500.798 342.376 500.798 340.328C500.798 338.28 501.614 336.68 503.246 335.528C504.91 334.376 506.974 333.8 509.438 333.8C511.902 333.8 514.254 334.216 516.494 335.048V332.12ZM516.494 337.448C514.222 336.808 512.238 336.488 510.542 336.488C508.846 336.488 507.47 336.792 506.414 337.4C505.358 338.008 504.83 338.968 504.83 340.28C504.83 343.16 506.462 344.6 509.726 344.6C511.582 344.6 513.166 343.944 514.478 342.632C515.822 341.288 516.494 339.56 516.494 337.448ZM532.697 327.56C534.201 324.84 536.441 323.48 539.417 323.48C542.425 323.48 544.921 324.584 546.905 326.792C548.921 329 549.929 331.912 549.929 335.528C549.929 339.144 548.921 342.056 546.905 344.264C544.889 346.44 542.409 347.528 539.465 347.528C536.521 347.528 534.345 346.424 532.937 344.216V358.28H529.145V324.056H532.265L532.697 327.56ZM539.273 344.168C541.065 344.168 542.633 343.4 543.977 341.864C545.353 340.328 546.041 338.232 546.041 335.576C546.041 332.888 545.385 330.76 544.073 329.192C542.793 327.624 541.225 326.84 539.369 326.84C537.513 326.84 535.993 327.432 534.809 328.616C533.625 329.768 533.001 331.336 532.937 333.32V337.688C532.937 339.704 533.545 341.288 534.761 342.44C535.977 343.592 537.481 344.168 539.273 344.168ZM561.197 327.56C562.701 324.84 564.941 323.48 567.917 323.48C570.925 323.48 573.421 324.584 575.405 326.792C577.421 329 578.429 331.912 578.429 335.528C578.429 339.144 577.421 342.056 575.405 344.264C573.389 346.44 570.909 347.528 567.965 347.528C565.021 347.528 562.845 346.424 561.437 344.216V358.28H557.645V324.056H560.765L561.197 327.56ZM567.773 344.168C569.565 344.168 571.133 343.4 572.477 341.864C573.853 340.328 574.541 338.232 574.541 335.576C574.541 332.888 573.885 330.76 572.573 329.192C571.293 327.624 569.725 326.84 567.869 326.84C566.013 326.84 564.493 327.432 563.309 328.616C562.125 329.768 561.501 331.336 561.437 333.32V337.688C561.437 339.704 562.045 341.288 563.261 342.44C564.477 343.592 565.981 344.168 567.773 344.168ZM602.244 324.008H606.036V347H602.244V324.008ZM604.116 318.632C603.348 318.632 602.74 318.424 602.292 318.008C601.876 317.56 601.668 316.984 601.668 316.28C601.668 315.544 601.876 314.968 602.292 314.552C602.74 314.104 603.348 313.88 604.116 313.88C604.884 313.88 605.492 314.104 605.94 314.552C606.42 314.968 606.66 315.544 606.66 316.28C606.66 316.984 606.42 317.56 605.94 318.008C605.492 318.424 604.884 318.632 604.116 318.632ZM615.148 329.672C615.148 327.784 615.948 326.28 617.548 325.16C619.18 324.04 621.372 323.48 624.124 323.48C626.876 323.48 629.02 324.056 630.556 325.208C632.124 326.36 632.94 327.816 633.004 329.576H629.308C629.02 327.496 627.26 326.456 624.028 326.456C622.46 326.456 621.244 326.808 620.38 327.512C619.548 328.216 619.132 328.984 619.132 329.816C619.132 330.616 619.452 331.304 620.092 331.88C620.732 332.424 621.756 332.904 623.164 333.32L627.772 334.856C629.724 335.464 631.212 336.248 632.236 337.208C633.292 338.136 633.82 339.432 633.82 341.096C633.82 342.728 632.972 344.216 631.276 345.56C629.58 346.872 627.212 347.528 624.172 347.528C621.132 347.528 618.764 346.856 617.068 345.512C615.372 344.136 614.476 342.376 614.38 340.232H618.028C618.092 341.672 618.668 342.76 619.756 343.496C620.876 344.2 622.268 344.552 623.932 344.552C625.596 344.552 626.972 344.2 628.06 343.496C629.148 342.792 629.692 341.96 629.692 341C629.692 340.008 629.372 339.256 628.732 338.744C628.092 338.232 627.052 337.784 625.612 337.4L621.148 335.912C617.148 334.728 615.148 332.648 615.148 329.672ZM657.761 324.056L664.673 343.016L671.633 324.056H675.905L666.785 347H662.609L653.489 324.056H657.761ZM689.534 344.456C692.702 344.456 694.51 343.064 694.958 340.28H698.846C698.494 342.584 697.47 344.376 695.774 345.656C694.11 346.904 692.03 347.528 689.534 347.528C686.462 347.528 683.966 346.44 682.046 344.264C680.126 342.056 679.166 339.128 679.166 335.48C679.166 331.832 680.126 328.92 682.046 326.744C683.998 324.568 686.574 323.48 689.774 323.48C693.006 323.48 695.406 324.728 696.974 327.224C698.574 329.72 699.134 332.76 698.654 336.344H682.958C682.958 338.712 683.534 340.664 684.686 342.2C685.838 343.704 687.454 344.456 689.534 344.456ZM692.318 327.08C691.582 326.696 690.686 326.504 689.63 326.504C687.678 326.504 686.126 327.176 684.974 328.52C683.854 329.832 683.198 331.48 683.006 333.464H695.246C695.246 330.264 694.27 328.136 692.318 327.08ZM715.677 327.272C712.061 327.272 710.189 330.12 710.061 335.816V347H706.269V324.008H710.061V328.424C711.213 325.224 713.245 323.624 716.157 323.624C717.085 323.624 717.965 323.768 718.797 324.056L718.605 327.752C717.645 327.432 716.669 327.272 715.677 327.272ZM719.99 353.672C721.558 354.888 723.206 355.496 724.934 355.496C726.214 355.496 727.318 354.856 728.246 353.576C728.918 352.648 729.526 351.24 730.07 349.352L730.742 347L721.334 324.056H725.558L732.518 342.344L737.942 324.056H741.782L733.19 351.56C732.454 353.896 731.478 355.688 730.262 356.936C729.078 358.184 727.558 358.808 725.702 358.808C723.878 358.808 721.974 358.248 719.99 357.128V353.672ZM779.307 342.44C777.739 345.768 775.195 347.432 771.675 347.432C769.083 347.432 766.987 346.712 765.387 345.272C763.819 343.832 763.035 341.608 763.035 338.6V324.008H766.827V338.312C766.827 342.184 768.619 344.12 772.203 344.12C774.283 344.12 775.963 343.32 777.243 341.72C778.555 340.12 779.243 338.072 779.307 335.576V324.008H783.099V347H779.307V342.44ZM791.617 329.672C791.617 327.784 792.417 326.28 794.017 325.16C795.649 324.04 797.841 323.48 800.593 323.48C803.345 323.48 805.489 324.056 807.025 325.208C808.593 326.36 809.409 327.816 809.473 329.576H805.777C805.489 327.496 803.729 326.456 800.497 326.456C798.929 326.456 797.713 326.808 796.849 327.512C796.017 328.216 795.601 328.984 795.601 329.816C795.601 330.616 795.921 331.304 796.561 331.88C797.201 332.424 798.225 332.904 799.633 333.32L804.241 334.856C806.193 335.464 807.681 336.248 808.705 337.208C809.761 338.136 810.289 339.432 810.289 341.096C810.289 342.728 809.441 344.216 807.745 345.56C806.049 346.872 803.681 347.528 800.641 347.528C797.601 347.528 795.233 346.856 793.537 345.512C791.841 344.136 790.945 342.376 790.849 340.232H794.497C794.561 341.672 795.137 342.76 796.225 343.496C797.345 344.2 798.737 344.552 800.401 344.552C802.065 344.552 803.441 344.2 804.529 343.496C805.617 342.792 806.161 341.96 806.161 341C806.161 340.008 805.841 339.256 805.201 338.744C804.561 338.232 803.521 337.784 802.081 337.4L797.617 335.912C793.617 334.728 791.617 332.648 791.617 329.672ZM826.002 344.456C829.17 344.456 830.978 343.064 831.426 340.28H835.314C834.962 342.584 833.938 344.376 832.242 345.656C830.578 346.904 828.498 347.528 826.002 347.528C822.93 347.528 820.434 346.44 818.514 344.264C816.594 342.056 815.634 339.128 815.634 335.48C815.634 331.832 816.594 328.92 818.514 326.744C820.466 324.568 823.042 323.48 826.242 323.48C829.474 323.48 831.874 324.728 833.442 327.224C835.042 329.72 835.602 332.76 835.122 336.344H819.426C819.426 338.712 820.002 340.664 821.154 342.2C822.306 343.704 823.922 344.456 826.002 344.456ZM828.786 327.08C828.05 326.696 827.154 326.504 826.098 326.504C824.146 326.504 822.594 327.176 821.442 328.52C820.322 329.832 819.666 331.48 819.474 333.464H831.714C831.714 330.264 830.738 328.136 828.786 327.08ZM852.146 327.272C848.53 327.272 846.658 330.12 846.53 335.816V347H842.738V324.008H846.53V328.424C847.682 325.224 849.714 323.624 852.626 323.624C853.554 323.624 854.434 323.768 855.266 324.056L855.074 327.752C854.114 327.432 853.138 327.272 852.146 327.272ZM858.043 331.4H871.099V334.664H858.043V331.4ZM888.937 317.528C887.881 317.112 887.049 316.904 886.441 316.904C885.321 316.904 884.441 317.176 883.801 317.72C883.161 318.264 882.841 319.224 882.841 320.6V324.056H887.593V326.648H882.841V347H879.097V326.648H875.305V324.056H879.097V320.552C879.097 318.28 879.721 316.616 880.969 315.56C882.217 314.472 883.657 313.928 885.289 313.928C886.921 313.928 888.361 314.136 889.609 314.552L888.937 317.528ZM903.614 327.272C899.998 327.272 898.126 330.12 897.998 335.816V347H894.206V324.008H897.998V328.424C899.15 325.224 901.182 323.624 904.094 323.624C905.022 323.624 905.902 323.768 906.734 324.056L906.542 327.752C905.582 327.432 904.606 327.272 903.614 327.272ZM912.776 324.008H916.568V347H912.776V324.008ZM914.648 318.632C913.88 318.632 913.272 318.424 912.824 318.008C912.408 317.56 912.2 316.984 912.2 316.28C912.2 315.544 912.408 314.968 912.824 314.552C913.272 314.104 913.88 313.88 914.648 313.88C915.416 313.88 916.024 314.104 916.472 314.552C916.952 314.968 917.192 315.544 917.192 316.28C917.192 316.984 916.952 317.56 916.472 318.008C916.024 318.424 915.416 318.632 914.648 318.632ZM934.799 344.456C937.967 344.456 939.775 343.064 940.223 340.28H944.111C943.759 342.584 942.735 344.376 941.039 345.656C939.375 346.904 937.295 347.528 934.799 347.528C931.727 347.528 929.231 346.44 927.311 344.264C925.391 342.056 924.431 339.128 924.431 335.48C924.431 331.832 925.391 328.92 927.311 326.744C929.263 324.568 931.839 323.48 935.039 323.48C938.271 323.48 940.671 324.728 942.239 327.224C943.839 329.72 944.399 332.76 943.919 336.344H928.223C928.223 338.712 928.799 340.664 929.951 342.2C931.103 343.704 932.719 344.456 934.799 344.456ZM937.583 327.08C936.847 326.696 935.951 326.504 934.895 326.504C932.943 326.504 931.391 327.176 930.239 328.52C929.119 329.832 928.463 331.48 928.271 333.464H940.511C940.511 330.264 939.535 328.136 937.583 327.08ZM955.23 328.472C956.734 325.144 959.31 323.48 962.958 323.48C965.678 323.48 967.79 324.376 969.294 326.168C970.83 327.96 971.598 330.408 971.598 333.512V347H967.854V333.512C967.854 331.304 967.326 329.64 966.27 328.52C965.246 327.4 963.774 326.84 961.854 326.84C959.934 326.84 958.382 327.624 957.198 329.192C956.014 330.76 955.39 332.936 955.326 335.72V347H951.534V324.056H954.798L955.23 328.472ZM995.528 327.464V314.312H999.272V347H996.2L995.72 343.16C994.984 344.6 994.008 345.688 992.792 346.424C991.576 347.16 990.248 347.528 988.808 347.528C985.896 347.528 983.448 346.408 981.464 344.168C979.512 341.928 978.536 339.016 978.536 335.432C978.536 331.816 979.496 328.92 981.416 326.744C983.368 324.568 985.816 323.48 988.76 323.48C991.736 323.48 993.992 324.808 995.528 327.464ZM989 326.84C987.144 326.84 985.576 327.624 984.296 329.192C983.048 330.76 982.424 332.856 982.424 335.48C982.424 338.104 983.064 340.216 984.344 341.816C985.624 343.384 987.16 344.168 988.952 344.168C990.744 344.168 992.264 343.576 993.512 342.392C994.792 341.176 995.464 339.56 995.528 337.544V333.8C995.528 331.656 994.904 329.96 993.656 328.712C992.408 327.464 990.856 326.84 989 326.84ZM1009 314.312H1012.8V347H1009V314.312ZM1017.85 353.672C1019.42 354.888 1021.07 355.496 1022.79 355.496C1024.07 355.496 1025.18 354.856 1026.11 353.576C1026.78 352.648 1027.39 351.24 1027.93 349.352L1028.6 347L1019.19 324.056H1023.42L1030.38 342.344L1035.8 324.056H1039.64L1031.05 351.56C1030.31 353.896 1029.34 355.688 1028.12 356.936C1026.94 358.184 1025.42 358.808 1023.56 358.808C1021.74 358.808 1019.83 358.248 1017.85 357.128V353.672ZM1075.77 332.12C1075.77 330.04 1075.34 328.552 1074.48 327.656C1073.61 326.76 1072.35 326.312 1070.69 326.312C1069.05 326.312 1067.73 326.648 1066.7 327.32C1065.71 327.96 1065.21 328.984 1065.21 330.392H1061.04C1061.04 326.872 1062.93 324.696 1066.7 323.864C1067.85 323.608 1069.1 323.48 1070.45 323.48C1073.29 323.48 1075.52 324.2 1077.12 325.64C1078.72 327.08 1079.52 329.272 1079.52 332.216V347H1076.25L1075.87 343.16C1074.46 346.072 1071.92 347.528 1068.24 347.528C1065.77 347.528 1063.79 346.84 1062.29 345.464C1060.81 344.088 1060.08 342.376 1060.08 340.328C1060.08 338.28 1060.89 336.68 1062.53 335.528C1064.19 334.376 1066.25 333.8 1068.72 333.8C1071.18 333.8 1073.53 334.216 1075.77 335.048V332.12ZM1075.77 337.448C1073.5 336.808 1071.52 336.488 1069.82 336.488C1068.13 336.488 1066.75 336.792 1065.69 337.4C1064.64 338.008 1064.11 338.968 1064.11 340.28C1064.11 343.16 1065.74 344.6 1069.01 344.6C1070.86 344.6 1072.45 343.944 1073.76 342.632C1075.1 341.288 1075.77 339.56 1075.77 337.448ZM1092.07 328.472C1093.58 325.144 1096.15 323.48 1099.8 323.48C1102.52 323.48 1104.63 324.376 1106.14 326.168C1107.67 327.96 1108.44 330.408 1108.44 333.512V347H1104.7V333.512C1104.7 331.304 1104.17 329.64 1103.11 328.52C1102.09 327.4 1100.62 326.84 1098.7 326.84C1096.78 326.84 1095.23 327.624 1094.04 329.192C1092.86 330.76 1092.23 332.936 1092.17 335.72V347H1088.38V324.056H1091.64L1092.07 328.472ZM1132.37 327.464V314.312H1136.12V347H1133.04L1132.56 343.16C1131.83 344.6 1130.85 345.688 1129.64 346.424C1128.42 347.16 1127.09 347.528 1125.65 347.528C1122.74 347.528 1120.29 346.408 1118.31 344.168C1116.36 341.928 1115.38 339.016 1115.38 335.432C1115.38 331.816 1116.34 328.92 1118.26 326.744C1120.21 324.568 1122.66 323.48 1125.6 323.48C1128.58 323.48 1130.84 324.808 1132.37 327.464ZM1125.84 326.84C1123.99 326.84 1122.42 327.624 1121.14 329.192C1119.89 330.76 1119.27 332.856 1119.27 335.48C1119.27 338.104 1119.91 340.216 1121.19 341.816C1122.47 343.384 1124 344.168 1125.8 344.168C1127.59 344.168 1129.11 343.576 1130.36 342.392C1131.64 341.176 1132.31 339.56 1132.37 337.544V333.8C1132.37 331.656 1131.75 329.96 1130.5 328.712C1129.25 327.464 1127.7 326.84 1125.84 326.84ZM120.768 400.456C123.936 400.456 125.744 399.064 126.192 396.28H130.08C129.728 398.584 128.704 400.376 127.008 401.656C125.344 402.904 123.264 403.528 120.768 403.528C117.696 403.528 115.2 402.44 113.28 400.264C111.36 398.056 110.4 395.128 110.4 391.48C110.4 387.832 111.36 384.92 113.28 382.744C115.232 380.568 117.808 379.48 121.008 379.48C124.24 379.48 126.64 380.728 128.208 383.224C129.808 385.72 130.368 388.76 129.888 392.344H114.192C114.192 394.712 114.768 396.664 115.92 398.2C117.072 399.704 118.688 400.456 120.768 400.456ZM123.552 383.08C122.816 382.696 121.92 382.504 120.864 382.504C118.912 382.504 117.36 383.176 116.208 384.52C115.088 385.832 114.432 387.48 114.24 389.464H126.48C126.48 386.264 125.504 384.136 123.552 383.08ZM151.759 388.12C151.759 386.04 151.327 384.552 150.463 383.656C149.599 382.76 148.335 382.312 146.671 382.312C145.039 382.312 143.711 382.648 142.687 383.32C141.695 383.96 141.199 384.984 141.199 386.392H137.023C137.023 382.872 138.911 380.696 142.687 379.864C143.839 379.608 145.087 379.48 146.431 379.48C149.279 379.48 151.503 380.2 153.103 381.64C154.703 383.08 155.503 385.272 155.503 388.216V403H152.239L151.855 399.16C150.447 402.072 147.903 403.528 144.223 403.528C141.759 403.528 139.775 402.84 138.271 401.464C136.799 400.088 136.063 398.376 136.063 396.328C136.063 394.28 136.879 392.68 138.511 391.528C140.175 390.376 142.239 389.8 144.703 389.8C147.167 389.8 149.519 390.216 151.759 391.048V388.12ZM151.759 393.448C149.487 392.808 147.503 392.488 145.807 392.488C144.111 392.488 142.735 392.792 141.679 393.4C140.623 394.008 140.095 394.968 140.095 396.28C140.095 399.16 141.727 400.6 144.991 400.6C146.847 400.6 148.431 399.944 149.743 398.632C151.087 397.288 151.759 395.56 151.759 393.448ZM172.043 379.48C174.763 379.48 176.923 380.184 178.523 381.592C180.123 382.968 181.163 384.696 181.643 386.776L177.803 387.112C177.387 385.768 176.715 384.728 175.787 383.992C174.859 383.224 173.835 382.84 172.715 382.84C170.667 382.84 169.003 383.608 167.723 385.144C166.475 386.68 165.851 388.776 165.851 391.432C165.851 394.056 166.459 396.168 167.675 397.768C168.923 399.368 170.459 400.168 172.283 400.168C174.139 400.168 175.515 399.752 176.411 398.92C177.339 398.056 177.803 396.84 177.803 395.272H181.691C181.691 397.736 180.827 399.736 179.099 401.272C177.403 402.776 175.179 403.528 172.427 403.528C169.515 403.528 167.035 402.424 164.987 400.216C162.971 398.008 161.963 395.08 161.963 391.432C161.963 387.752 162.971 384.84 164.987 382.696C167.003 380.552 169.355 379.48 172.043 379.48ZM192.906 384.28C194.442 381.08 196.986 379.48 200.538 379.48C203.258 379.48 205.37 380.376 206.874 382.168C208.41 383.96 209.178 386.408 209.178 389.512V403H205.434V389.512C205.434 387.304 204.906 385.64 203.85 384.52C202.826 383.4 201.338 382.84 199.386 382.84C197.434 382.84 195.866 383.672 194.682 385.336C193.498 386.968 192.906 389.24 192.906 392.152V403H189.114V370.312H192.906V384.28ZM240.656 373.528C239.6 373.112 238.768 372.904 238.16 372.904C237.04 372.904 236.16 373.176 235.52 373.72C234.88 374.264 234.56 375.224 234.56 376.6V380.056H239.312V382.648H234.56V403H230.816V382.648H227.024V380.056H230.816V376.552C230.816 374.28 231.44 372.616 232.688 371.56C233.936 370.472 235.376 369.928 237.008 369.928C238.64 369.928 240.08 370.136 241.328 370.552L240.656 373.528ZM253.893 400.456C257.061 400.456 258.869 399.064 259.317 396.28H263.205C262.853 398.584 261.829 400.376 260.133 401.656C258.469 402.904 256.389 403.528 253.893 403.528C250.821 403.528 248.325 402.44 246.405 400.264C244.485 398.056 243.525 395.128 243.525 391.48C243.525 387.832 244.485 384.92 246.405 382.744C248.357 380.568 250.933 379.48 254.133 379.48C257.365 379.48 259.765 380.728 261.333 383.224C262.933 385.72 263.493 388.76 263.013 392.344H247.317C247.317 394.712 247.893 396.664 249.045 398.2C250.197 399.704 251.813 400.456 253.893 400.456ZM256.677 383.08C255.941 382.696 255.045 382.504 253.989 382.504C252.037 382.504 250.485 383.176 249.333 384.52C248.213 385.832 247.557 387.48 247.365 389.464H259.605C259.605 386.264 258.629 384.136 256.677 383.08ZM284.884 388.12C284.884 386.04 284.452 384.552 283.588 383.656C282.724 382.76 281.46 382.312 279.796 382.312C278.164 382.312 276.836 382.648 275.812 383.32C274.82 383.96 274.324 384.984 274.324 386.392H270.148C270.148 382.872 272.036 380.696 275.812 379.864C276.964 379.608 278.212 379.48 279.556 379.48C282.404 379.48 284.628 380.2 286.228 381.64C287.828 383.08 288.628 385.272 288.628 388.216V403H285.364L284.98 399.16C283.572 402.072 281.028 403.528 277.348 403.528C274.884 403.528 272.9 402.84 271.396 401.464C269.924 400.088 269.188 398.376 269.188 396.328C269.188 394.28 270.004 392.68 271.636 391.528C273.3 390.376 275.364 389.8 277.828 389.8C280.292 389.8 282.644 390.216 284.884 391.048V388.12ZM284.884 393.448C282.612 392.808 280.628 392.488 278.932 392.488C277.236 392.488 275.86 392.792 274.804 393.4C273.748 394.008 273.22 394.968 273.22 396.28C273.22 399.16 274.852 400.6 278.116 400.6C279.972 400.6 281.556 399.944 282.868 398.632C284.212 397.288 284.884 395.56 284.884 393.448ZM309.536 402.328C306.784 403.608 304.272 403.88 302 403.144C300.368 402.632 299.216 401.56 298.544 399.928C298.192 399.128 298.016 398.168 298.016 397.048V382.936H294.32V380.056H298.016V373.672H301.76V380.056H308.96V382.936H301.76V397C301.76 399.336 302.848 400.504 305.023 400.504C306.207 400.504 307.536 400.216 309.008 399.64L309.536 402.328ZM331.182 398.44C329.614 401.768 327.07 403.432 323.55 403.432C320.958 403.432 318.862 402.712 317.262 401.272C315.694 399.832 314.91 397.608 314.91 394.6V380.008H318.702V394.312C318.702 398.184 320.494 400.12 324.078 400.12C326.158 400.12 327.838 399.32 329.118 397.72C330.43 396.12 331.118 394.072 331.182 391.576V380.008H334.974V403H331.182V398.44ZM354.052 383.272C350.436 383.272 348.564 386.12 348.436 391.816V403H344.644V380.008H348.436V384.424C349.588 381.224 351.62 379.624 354.532 379.624C355.46 379.624 356.34 379.768 357.172 380.056L356.98 383.752C356.02 383.432 355.044 383.272 354.052 383.272ZM370.893 400.456C374.061 400.456 375.869 399.064 376.317 396.28H380.205C379.853 398.584 378.829 400.376 377.133 401.656C375.469 402.904 373.389 403.528 370.893 403.528C367.821 403.528 365.325 402.44 363.405 400.264C361.485 398.056 360.525 395.128 360.525 391.48C360.525 387.832 361.485 384.92 363.405 382.744C365.357 380.568 367.933 379.48 371.133 379.48C374.365 379.48 376.765 380.728 378.333 383.224C379.933 385.72 380.493 388.76 380.013 392.344H364.317C364.317 394.712 364.893 396.664 366.045 398.2C367.197 399.704 368.813 400.456 370.893 400.456ZM373.677 383.08C372.941 382.696 372.045 382.504 370.989 382.504C369.037 382.504 367.485 383.176 366.333 384.52C365.213 385.832 364.557 387.48 364.365 389.464H376.605C376.605 386.264 375.629 384.136 373.677 383.08ZM399.354 380.008H403.146V403H399.354V380.008ZM401.226 374.632C400.458 374.632 399.85 374.424 399.402 374.008C398.986 373.56 398.778 372.984 398.778 372.28C398.778 371.544 398.986 370.968 399.402 370.552C399.85 370.104 400.458 369.88 401.226 369.88C401.994 369.88 402.602 370.104 403.05 370.552C403.53 370.968 403.77 371.544 403.77 372.28C403.77 372.984 403.53 373.56 403.05 374.008C402.602 374.424 401.994 374.632 401.226 374.632ZM412.257 385.672C412.257 383.784 413.057 382.28 414.657 381.16C416.289 380.04 418.481 379.48 421.233 379.48C423.985 379.48 426.129 380.056 427.665 381.208C429.233 382.36 430.049 383.816 430.113 385.576H426.417C426.129 383.496 424.369 382.456 421.137 382.456C419.569 382.456 418.353 382.808 417.489 383.512C416.657 384.216 416.241 384.984 416.241 385.816C416.241 386.616 416.561 387.304 417.201 387.88C417.841 388.424 418.865 388.904 420.273 389.32L424.881 390.856C426.833 391.464 428.321 392.248 429.345 393.208C430.401 394.136 430.929 395.432 430.929 397.096C430.929 398.728 430.081 400.216 428.385 401.56C426.689 402.872 424.321 403.528 421.281 403.528C418.241 403.528 415.873 402.856 414.177 401.512C412.481 400.136 411.585 398.376 411.489 396.232H415.137C415.201 397.672 415.777 398.76 416.865 399.496C417.985 400.2 419.377 400.552 421.041 400.552C422.705 400.552 424.081 400.2 425.169 399.496C426.257 398.792 426.801 397.96 426.801 397C426.801 396.008 426.481 395.256 425.841 394.744C425.201 394.232 424.161 393.784 422.721 393.4L418.257 391.912C414.257 390.728 412.257 388.648 412.257 385.672ZM457.793 379.48C460.513 379.48 462.673 380.184 464.273 381.592C465.873 382.968 466.913 384.696 467.393 386.776L463.553 387.112C463.137 385.768 462.465 384.728 461.537 383.992C460.609 383.224 459.585 382.84 458.465 382.84C456.417 382.84 454.753 383.608 453.473 385.144C452.225 386.68 451.601 388.776 451.601 391.432C451.601 394.056 452.209 396.168 453.425 397.768C454.673 399.368 456.209 400.168 458.033 400.168C459.889 400.168 461.265 399.752 462.161 398.92C463.089 398.056 463.553 396.84 463.553 395.272H467.441C467.441 397.736 466.577 399.736 464.849 401.272C463.153 402.776 460.929 403.528 458.177 403.528C455.265 403.528 452.785 402.424 450.737 400.216C448.721 398.008 447.713 395.08 447.713 391.432C447.713 387.752 448.721 384.84 450.737 382.696C452.753 380.552 455.105 379.48 457.793 379.48ZM474.864 370.312H478.656V403H474.864V370.312ZM496.237 400.456C499.405 400.456 501.213 399.064 501.661 396.28H505.549C505.197 398.584 504.173 400.376 502.477 401.656C500.813 402.904 498.733 403.528 496.237 403.528C493.165 403.528 490.669 402.44 488.749 400.264C486.829 398.056 485.869 395.128 485.869 391.48C485.869 387.832 486.829 384.92 488.749 382.744C490.701 380.568 493.277 379.48 496.477 379.48C499.709 379.48 502.109 380.728 503.677 383.224C505.277 385.72 505.837 388.76 505.357 392.344H489.661C489.661 394.712 490.237 396.664 491.389 398.2C492.541 399.704 494.157 400.456 496.237 400.456ZM499.021 383.08C498.285 382.696 497.389 382.504 496.333 382.504C494.381 382.504 492.829 383.176 491.677 384.52C490.557 385.832 489.901 387.48 489.709 389.464H501.949C501.949 386.264 500.973 384.136 499.021 383.08ZM527.228 388.12C527.228 386.04 526.796 384.552 525.932 383.656C525.068 382.76 523.804 382.312 522.14 382.312C520.508 382.312 519.18 382.648 518.156 383.32C517.164 383.96 516.668 384.984 516.668 386.392H512.492C512.492 382.872 514.38 380.696 518.156 379.864C519.308 379.608 520.556 379.48 521.9 379.48C524.748 379.48 526.972 380.2 528.572 381.64C530.172 383.08 530.972 385.272 530.972 388.216V403H527.708L527.324 399.16C525.916 402.072 523.372 403.528 519.692 403.528C517.228 403.528 515.244 402.84 513.74 401.464C512.268 400.088 511.532 398.376 511.532 396.328C511.532 394.28 512.348 392.68 513.98 391.528C515.644 390.376 517.708 389.8 520.172 389.8C522.636 389.8 524.988 390.216 527.228 391.048V388.12ZM527.228 393.448C524.956 392.808 522.972 392.488 521.276 392.488C519.58 392.488 518.204 392.792 517.148 393.4C516.092 394.008 515.564 394.968 515.564 396.28C515.564 399.16 517.196 400.6 520.46 400.6C522.316 400.6 523.9 399.944 525.212 398.632C526.556 397.288 527.228 395.56 527.228 393.448ZM549.239 383.272C545.623 383.272 543.751 386.12 543.623 391.816V403H539.831V380.008H543.623V384.424C544.775 381.224 546.807 379.624 549.719 379.624C550.647 379.624 551.527 379.768 552.359 380.056L552.167 383.752C551.207 383.432 550.231 383.272 549.239 383.272ZM558.161 370.312H561.953V403H558.161V370.312ZM567.006 409.672C568.574 410.888 570.222 411.496 571.95 411.496C573.23 411.496 574.334 410.856 575.262 409.576C575.934 408.648 576.542 407.24 577.086 405.352L577.758 403L568.35 380.056H572.574L579.534 398.344L584.958 380.056H588.798L580.206 407.56C579.47 409.896 578.494 411.688 577.278 412.936C576.094 414.184 574.574 414.808 572.718 414.808C570.894 414.808 568.99 414.248 567.006 413.128V409.672ZM621.325 383.464V370.312H625.069V403H621.997L621.517 399.16C620.781 400.6 619.805 401.688 618.589 402.424C617.373 403.16 616.045 403.528 614.605 403.528C611.693 403.528 609.245 402.408 607.261 400.168C605.309 397.928 604.333 395.016 604.333 391.432C604.333 387.816 605.293 384.92 607.213 382.744C609.165 380.568 611.613 379.48 614.557 379.48C617.533 379.48 619.789 380.808 621.325 383.464ZM614.797 382.84C612.941 382.84 611.373 383.624 610.093 385.192C608.845 386.76 608.221 388.856 608.221 391.48C608.221 394.104 608.861 396.216 610.141 397.816C611.421 399.384 612.957 400.168 614.749 400.168C616.541 400.168 618.061 399.576 619.309 398.392C620.589 397.176 621.261 395.56 621.325 393.544V389.8C621.325 387.656 620.701 385.96 619.453 384.712C618.205 383.464 616.653 382.84 614.797 382.84ZM642.721 400.456C645.889 400.456 647.697 399.064 648.145 396.28H652.033C651.681 398.584 650.657 400.376 648.961 401.656C647.297 402.904 645.217 403.528 642.721 403.528C639.649 403.528 637.153 402.44 635.233 400.264C633.313 398.056 632.353 395.128 632.353 391.48C632.353 387.832 633.313 384.92 635.233 382.744C637.185 380.568 639.761 379.48 642.961 379.48C646.193 379.48 648.593 380.728 650.161 383.224C651.761 385.72 652.321 388.76 651.841 392.344H636.145C636.145 394.712 636.721 396.664 637.873 398.2C639.025 399.704 640.641 400.456 642.721 400.456ZM645.505 383.08C644.769 382.696 643.873 382.504 642.817 382.504C640.865 382.504 639.313 383.176 638.161 384.52C637.041 385.832 636.385 387.48 636.193 389.464H648.433C648.433 386.264 647.457 384.136 645.505 383.08ZM670.64 373.528C669.584 373.112 668.752 372.904 668.144 372.904C667.024 372.904 666.144 373.176 665.504 373.72C664.864 374.264 664.544 375.224 664.544 376.6V380.056H669.296V382.648H664.544V403H660.8V382.648H657.008V380.056H660.8V376.552C660.8 374.28 661.424 372.616 662.672 371.56C663.92 370.472 665.36 369.928 666.992 369.928C668.624 369.928 670.064 370.136 671.312 370.552L670.64 373.528ZM676.197 380.008H679.989V403H676.197V380.008ZM678.069 374.632C677.301 374.632 676.693 374.424 676.245 374.008C675.829 373.56 675.621 372.984 675.621 372.28C675.621 371.544 675.829 370.968 676.245 370.552C676.693 370.104 677.301 369.88 678.069 369.88C678.837 369.88 679.445 370.104 679.893 370.552C680.373 370.968 680.613 371.544 680.613 372.28C680.613 372.984 680.373 373.56 679.893 374.008C679.445 374.424 678.837 374.632 678.069 374.632ZM693.949 384.472C695.453 381.144 698.029 379.48 701.677 379.48C704.397 379.48 706.509 380.376 708.013 382.168C709.549 383.96 710.317 386.408 710.317 389.512V403H706.573V389.512C706.573 387.304 706.045 385.64 704.989 384.52C703.965 383.4 702.493 382.84 700.573 382.84C698.653 382.84 697.101 383.624 695.917 385.192C694.733 386.76 694.109 388.936 694.045 391.72V403H690.253V380.056H693.517L693.949 384.472ZM727.143 400.456C730.311 400.456 732.119 399.064 732.567 396.28H736.455C736.103 398.584 735.079 400.376 733.383 401.656C731.719 402.904 729.639 403.528 727.143 403.528C724.071 403.528 721.575 402.44 719.655 400.264C717.735 398.056 716.775 395.128 716.775 391.48C716.775 387.832 717.735 384.92 719.655 382.744C721.607 380.568 724.183 379.48 727.383 379.48C730.615 379.48 733.015 380.728 734.583 383.224C736.183 385.72 736.743 388.76 736.263 392.344H720.567C720.567 394.712 721.143 396.664 722.295 398.2C723.447 399.704 725.063 400.456 727.143 400.456ZM729.927 383.08C729.191 382.696 728.295 382.504 727.239 382.504C725.287 382.504 723.735 383.176 722.583 384.52C721.463 385.832 720.807 387.48 720.615 389.464H732.855C732.855 386.264 731.879 384.136 729.927 383.08ZM758.95 383.464V370.312H762.694V403H759.622L759.142 399.16C758.406 400.6 757.43 401.688 756.214 402.424C754.998 403.16 753.67 403.528 752.23 403.528C749.318 403.528 746.87 402.408 744.886 400.168C742.934 397.928 741.958 395.016 741.958 391.432C741.958 387.816 742.918 384.92 744.838 382.744C746.79 380.568 749.238 379.48 752.182 379.48C755.158 379.48 757.414 380.808 758.95 383.464ZM752.422 382.84C750.566 382.84 748.998 383.624 747.718 385.192C746.47 386.76 745.846 388.856 745.846 391.48C745.846 394.104 746.486 396.216 747.766 397.816C749.046 399.384 750.582 400.168 752.374 400.168C754.166 400.168 755.686 399.576 756.934 398.392C758.214 397.176 758.886 395.56 758.95 393.544V389.8C758.95 387.656 758.326 385.96 757.078 384.712C755.83 383.464 754.278 382.84 752.422 382.84ZM771.802 403.432C771.002 403.432 770.33 403.176 769.786 402.664C769.274 402.12 769.018 401.48 769.018 400.744C769.018 399.976 769.274 399.336 769.786 398.824C770.33 398.28 771.002 398.008 771.802 398.008C772.634 398.008 773.322 398.28 773.866 398.824C774.41 399.336 774.682 399.976 774.682 400.744C774.682 401.48 774.41 402.12 773.866 402.664C773.322 403.176 772.634 403.432 771.802 403.432Z" fill="black" fill-opacity="0.7"/>
<defs>
<filter id="filter0_d" x="0" y="0" width="1249" height="525" filterUnits="userSpaceOnUse" color-interpolation-filters="sRGB">
<feFlood flood-opacity="0" result="BackgroundImageFix"/>
<feColorMatrix in="SourceAlpha" type="matrix" values="0 0 0 0 0 0 0 0 0 0 0 0 0 0 0 0 0 0 127 0"/>
<feMorphology radius="20" operator="dilate" in="SourceAlpha" result="effect1_dropShadow"/>
<feOffset/>
<feGaussianBlur stdDeviation="20"/>
<feColorMatrix type="matrix" values="0 0 0 0 0 0 0 0 0 0 0 0 0 0 0 0 0 0 0.25 0"/>
<feBlend mode="normal" in2="BackgroundImageFix" result="effect1_dropShadow"/>
<feBlend mode="normal" in="SourceGraphic" in2="effect1_dropShadow" result="shape"/>
</filter>
</defs>
</svg>
