<svg width="1249" height="525" viewBox="0 0 1249 525" fill="none" xmlns="http://www.w3.org/2000/svg">
<g filter="url(#filter0_d)">
<rect x="60" y="60" width="1129" height="405" rx="50" fill="white"/>
</g>
<path d="M124.513 100.116C125.138 98.1912 127.862 98.1912 128.487 100.116L131.98 110.867C132.26 111.728 133.063 112.311 133.968 112.311H145.272C147.296 112.311 148.138 114.901 146.5 116.091L137.355 122.736C136.623 123.268 136.316 124.211 136.596 125.072L140.089 135.823C140.715 137.748 138.511 139.349 136.873 138.159L127.728 131.514C126.996 130.982 126.004 130.982 125.272 131.514L116.127 138.159C114.489 139.349 112.285 137.748 112.911 135.823L116.404 125.072C116.684 124.211 116.377 123.268 115.645 122.736L106.5 116.091C104.862 114.901 105.704 112.311 107.728 112.311H119.032C119.937 112.311 120.74 111.728 121.02 110.867L124.513 100.116Z" fill="#F2BD00"/>
<path d="M177.513 100.116C178.138 98.1912 180.862 98.1912 181.487 100.116L184.98 110.867C185.26 111.728 186.063 112.311 186.968 112.311H198.272C200.296 112.311 201.138 114.901 199.5 116.091L190.355 122.736C189.623 123.268 189.316 124.211 189.596 125.072L193.089 135.823C193.715 137.748 191.511 139.349 189.873 138.159L180.728 131.514C179.996 130.982 179.004 130.982 178.272 131.514L169.127 138.159C167.489 139.349 165.285 137.748 165.911 135.823L169.404 125.072C169.684 124.211 169.377 123.268 168.645 122.736L159.5 116.091C157.862 114.901 158.704 112.311 160.728 112.311H172.032C172.937 112.311 173.74 111.728 174.02 110.867L177.513 100.116Z" fill="#F2BD00"/>
<path d="M230.513 100.116C231.138 98.1912 233.862 98.1912 234.487 100.116L237.98 110.867C238.26 111.728 239.063 112.311 239.968 112.311H251.272C253.296 112.311 254.138 114.901 252.5 116.091L243.355 122.736C242.623 123.268 242.316 124.211 242.596 125.072L246.089 135.823C246.715 137.748 244.511 139.349 242.873 138.159L233.728 131.514C232.996 130.982 232.004 130.982 231.272 131.514L222.127 138.159C220.489 139.349 218.285 137.748 218.911 135.823L222.404 125.072C222.684 124.211 222.377 123.268 221.645 122.736L212.5 116.091C210.862 114.901 211.704 112.311 213.728 112.311H225.032C225.937 112.311 226.74 111.728 227.02 110.867L230.513 100.116Z" fill="#F2BD00"/>
<path d="M283.513 100.116C284.138 98.1912 286.862 98.1912 287.487 100.116L290.98 110.867C291.26 111.728 292.063 112.311 292.968 112.311H304.272C306.296 112.311 307.138 114.901 305.5 116.091L296.355 122.736C295.623 123.268 295.316 124.211 295.596 125.072L299.089 135.823C299.715 137.748 297.511 139.349 295.873 138.159L286.728 131.514C285.996 130.982 285.004 130.982 284.272 131.514L275.127 138.159C273.489 139.349 271.285 137.748 271.911 135.823L275.404 125.072C275.684 124.211 275.377 123.268 274.645 122.736L265.5 116.091C263.862 114.901 264.704 112.311 266.728 112.311H278.032C278.937 112.311 279.74 111.728 280.02 110.867L283.513 100.116Z" fill="#F2BD00"/>
<path d="M336.513 100.116C337.138 98.1912 339.862 98.1912 340.487 100.116L343.98 110.867C344.26 111.728 345.063 112.311 345.968 112.311H357.272C359.296 112.311 360.138 114.901 358.5 116.091L349.355 122.736C348.623 123.268 348.316 124.211 348.596 125.072L352.089 135.823C352.715 137.748 350.511 139.349 348.873 138.159L339.728 131.514C338.996 130.982 338.004 130.982 337.272 131.514L328.127 138.159C326.489 139.349 324.285 137.748 324.911 135.823L328.404 125.072C328.684 124.211 328.377 123.268 327.645 122.736L318.5 116.091C316.862 114.901 317.704 112.311 319.728 112.311H331.032C331.937 112.311 332.74 111.728 333.02 110.867L336.513 100.116Z" fill="#F2BD00"/>
<path fill-rule="evenodd" clip-rule="evenodd" d="M339 131.176C339.257 131.239 339.505 131.352 339.728 131.514L348.873 138.159C350.511 139.349 352.715 137.748 352.089 135.822L348.596 125.072C348.316 124.211 348.623 123.268 349.355 122.735L358.5 116.091C360.138 114.901 359.296 112.311 357.272 112.311H345.968C345.063 112.311 344.26 111.728 343.98 110.867L340.487 100.116C340.237 99.3469 339.652 98.885 339 98.7306V131.176Z" fill="#A8A8A8"/>
<path d="M415.552 126.264C415.552 129.56 414.8 131.928 413.296 133.368C411.824 134.808 409.936 135.528 407.632 135.528C405.328 135.528 402.912 134.856 400.384 133.512V129.576C402.624 131.112 404.72 131.88 406.672 131.88C408.656 131.88 410 131.4 410.704 130.44C411.408 129.48 411.76 128.088 411.76 126.264V104.808H415.552V126.264ZM438.462 120.12C438.462 118.04 438.03 116.552 437.166 115.656C436.302 114.76 435.038 114.312 433.374 114.312C431.742 114.312 430.414 114.648 429.39 115.32C428.398 115.96 427.902 116.984 427.902 118.392H423.726C423.726 114.872 425.614 112.696 429.39 111.864C430.542 111.608 431.79 111.48 433.134 111.48C435.982 111.48 438.206 112.2 439.806 113.64C441.406 115.08 442.206 117.272 442.206 120.216V135H438.942L438.558 131.16C437.15 134.072 434.606 135.528 430.926 135.528C428.462 135.528 426.478 134.84 424.974 133.464C423.502 132.088 422.766 130.376 422.766 128.328C422.766 126.28 423.582 124.68 425.214 123.528C426.878 122.376 428.942 121.8 431.406 121.8C433.87 121.8 436.222 122.216 438.462 123.048V120.12ZM438.462 125.448C436.19 124.808 434.206 124.488 432.51 124.488C430.814 124.488 429.438 124.792 428.382 125.4C427.326 126.008 426.798 126.968 426.798 128.28C426.798 131.16 428.43 132.6 431.694 132.6C433.55 132.6 435.134 131.944 436.446 130.632C437.79 129.288 438.462 127.56 438.462 125.448ZM454.762 116.472C456.266 113.144 458.842 111.48 462.49 111.48C465.21 111.48 467.322 112.376 468.826 114.168C470.362 115.96 471.13 118.408 471.13 121.512V135H467.386V121.512C467.386 119.304 466.858 117.64 465.802 116.52C464.778 115.4 463.306 114.84 461.386 114.84C459.466 114.84 457.914 115.624 456.73 117.192C455.546 118.76 454.922 120.936 454.858 123.72V135H451.066V112.056H454.33L454.762 116.472ZM487.956 132.456C491.124 132.456 492.932 131.064 493.38 128.28H497.268C496.916 130.584 495.892 132.376 494.196 133.656C492.532 134.904 490.452 135.528 487.956 135.528C484.884 135.528 482.388 134.44 480.468 132.264C478.548 130.056 477.588 127.128 477.588 123.48C477.588 119.832 478.548 116.92 480.468 114.744C482.42 112.568 484.996 111.48 488.196 111.48C491.428 111.48 493.828 112.728 495.396 115.224C496.996 117.72 497.556 120.76 497.076 124.344H481.38C481.38 126.712 481.956 128.664 483.108 130.2C484.26 131.704 485.876 132.456 487.956 132.456ZM490.74 115.08C490.004 114.696 489.108 114.504 488.052 114.504C486.1 114.504 484.548 115.176 483.396 116.52C482.276 117.832 481.62 119.48 481.428 121.464H493.668C493.668 118.264 492.692 116.136 490.74 115.08ZM526.64 104.28C529.872 104.28 532.464 105.096 534.416 106.728C536.4 108.328 537.76 110.424 538.496 113.016L534.416 113.832C533.776 111.944 532.768 110.456 531.392 109.368C530.048 108.248 528.464 107.688 526.64 107.688C524.112 107.688 522.016 108.744 520.352 110.856C518.688 112.968 517.856 115.912 517.856 119.688C517.856 123.432 518.592 126.44 520.064 128.712C521.568 130.984 523.76 132.12 526.64 132.12C529.04 132.12 530.928 131.496 532.304 130.248C533.712 128.968 534.416 127.288 534.416 125.208H538.496C538.496 128.376 537.408 130.888 535.232 132.744C533.088 134.6 530.128 135.528 526.352 135.528C522.608 135.528 519.568 134.088 517.232 131.208C514.928 128.328 513.776 124.472 513.776 119.64C513.776 114.808 514.976 111.048 517.376 108.36C519.776 105.64 522.864 104.28 526.64 104.28ZM553.87 111.48C557.07 111.48 559.646 112.52 561.598 114.6C563.582 116.68 564.574 119.656 564.574 123.528C564.574 127.368 563.582 130.328 561.598 132.408C559.646 134.488 557.07 135.528 553.87 135.528C550.67 135.528 548.078 134.488 546.094 132.408C544.142 130.328 543.166 127.368 543.166 123.528C543.166 119.656 544.142 116.68 546.094 114.6C548.078 112.52 550.67 111.48 553.87 111.48ZM560.734 123.528C560.734 120.776 560.158 118.632 559.006 117.096C557.854 115.528 556.158 114.744 553.918 114.744C551.71 114.744 550.014 115.528 548.83 117.096C547.646 118.632 547.054 120.776 547.054 123.528C547.054 126.248 547.614 128.392 548.734 129.96C549.854 131.496 551.518 132.264 553.726 132.264C555.966 132.264 557.694 131.496 558.91 129.96C560.126 128.392 560.734 126.248 560.734 123.528ZM580.073 111.48C583.273 111.48 585.849 112.52 587.801 114.6C589.785 116.68 590.777 119.656 590.777 123.528C590.777 127.368 589.785 130.328 587.801 132.408C585.849 134.488 583.273 135.528 580.073 135.528C576.873 135.528 574.281 134.488 572.297 132.408C570.345 130.328 569.369 127.368 569.369 123.528C569.369 119.656 570.345 116.68 572.297 114.6C574.281 112.52 576.873 111.48 580.073 111.48ZM586.937 123.528C586.937 120.776 586.361 118.632 585.209 117.096C584.057 115.528 582.361 114.744 580.121 114.744C577.913 114.744 576.217 115.528 575.033 117.096C573.849 118.632 573.257 120.776 573.257 123.528C573.257 126.248 573.817 128.392 574.937 129.96C576.057 131.496 577.721 132.264 579.929 132.264C582.169 132.264 583.897 131.496 585.113 129.96C586.329 128.392 586.937 126.248 586.937 123.528ZM601.572 115.56C603.076 112.84 605.316 111.48 608.292 111.48C611.3 111.48 613.796 112.584 615.78 114.792C617.796 117 618.804 119.912 618.804 123.528C618.804 127.144 617.796 130.056 615.78 132.264C613.764 134.44 611.284 135.528 608.34 135.528C605.396 135.528 603.22 134.424 601.812 132.216V146.28H598.02V112.056H601.14L601.572 115.56ZM608.148 132.168C609.94 132.168 611.508 131.4 612.852 129.864C614.228 128.328 614.916 126.232 614.916 123.576C614.916 120.888 614.26 118.76 612.948 117.192C611.668 115.624 610.1 114.84 608.244 114.84C606.388 114.84 604.868 115.432 603.684 116.616C602.5 117.768 601.876 119.336 601.812 121.32V125.688C601.812 127.704 602.42 129.288 603.636 130.44C604.852 131.592 606.356 132.168 608.148 132.168ZM634.44 132.456C637.608 132.456 639.416 131.064 639.864 128.28H643.752C643.4 130.584 642.376 132.376 640.68 133.656C639.016 134.904 636.936 135.528 634.44 135.528C631.368 135.528 628.872 134.44 626.952 132.264C625.032 130.056 624.072 127.128 624.072 123.48C624.072 119.832 625.032 116.92 626.952 114.744C628.904 112.568 631.48 111.48 634.68 111.48C637.912 111.48 640.312 112.728 641.88 115.224C643.48 117.72 644.04 120.76 643.56 124.344H627.864C627.864 126.712 628.44 128.664 629.592 130.2C630.744 131.704 632.36 132.456 634.44 132.456ZM637.224 115.08C636.488 114.696 635.592 114.504 634.536 114.504C632.584 114.504 631.032 115.176 629.88 116.52C628.76 117.832 628.104 119.48 627.912 121.464H640.152C640.152 118.264 639.176 116.136 637.224 115.08ZM660.583 115.272C656.967 115.272 655.095 118.12 654.967 123.816V135H651.175V112.008H654.967V116.424C656.119 113.224 658.151 111.624 661.063 111.624C661.991 111.624 662.871 111.768 663.703 112.056L663.511 115.752C662.551 115.432 661.575 115.272 660.583 115.272Z" fill="black"/>
<path d="M112.949 203.179H116.82V234H112.949V203.179ZM138.05 203.914C136.972 203.489 136.123 203.277 135.502 203.277C134.359 203.277 133.461 203.555 132.807 204.11C132.154 204.665 131.827 205.645 131.827 207.05V210.578H136.678V213.224H131.827V234H128.005V213.224H124.134V210.578H128.005V207.001C128.005 204.682 128.642 202.983 129.916 201.905C131.19 200.794 132.66 200.239 134.326 200.239C135.992 200.239 137.462 200.451 138.736 200.876L138.05 203.914ZM151.662 240.811C153.263 242.052 154.945 242.673 156.709 242.673C158.016 242.673 159.143 242.02 160.09 240.713C160.776 239.766 161.397 238.328 161.952 236.401L162.638 234L153.034 210.578H157.346L164.451 229.247L169.988 210.578H173.908L165.137 238.655C164.386 241.04 163.389 242.869 162.148 244.143C160.939 245.417 159.388 246.054 157.493 246.054C155.631 246.054 153.687 245.482 151.662 244.339V240.811ZM188.528 209.99C191.795 209.99 194.425 211.052 196.417 213.175C198.443 215.298 199.455 218.336 199.455 222.289C199.455 226.209 198.443 229.231 196.417 231.354C194.425 233.477 191.795 234.539 188.528 234.539C185.262 234.539 182.616 233.477 180.59 231.354C178.598 229.231 177.601 226.209 177.601 222.289C177.601 218.336 178.598 215.298 180.59 213.175C182.616 211.052 185.262 209.99 188.528 209.99ZM195.535 222.289C195.535 219.48 194.947 217.291 193.771 215.723C192.595 214.122 190.864 213.322 188.577 213.322C186.323 213.322 184.592 214.122 183.383 215.723C182.175 217.291 181.57 219.48 181.57 222.289C181.57 225.066 182.142 227.254 183.285 228.855C184.429 230.423 186.127 231.207 188.381 231.207C190.668 231.207 192.432 230.423 193.673 228.855C194.915 227.254 195.535 225.066 195.535 222.289ZM222.774 229.345C221.174 232.742 218.577 234.441 214.983 234.441C212.337 234.441 210.198 233.706 208.564 232.236C206.964 230.766 206.163 228.496 206.163 225.425V210.529H210.034V225.131C210.034 229.084 211.864 231.06 215.522 231.06C217.646 231.06 219.361 230.243 220.667 228.61C222.007 226.977 222.709 224.886 222.774 222.338V210.529H226.645V234H222.774V229.345ZM253.177 215.086C254.712 211.689 257.342 209.99 261.066 209.99C263.842 209.99 265.998 210.905 267.534 212.734C269.102 214.563 269.886 217.062 269.886 220.231V234H266.064V220.231C266.064 217.977 265.525 216.278 264.447 215.135C263.401 213.992 261.899 213.42 259.939 213.42C257.979 213.42 256.394 214.22 255.186 215.821C253.977 217.422 253.34 219.643 253.275 222.485V234H249.404V210.578H252.736L253.177 215.086ZM287.062 231.403C290.296 231.403 292.142 229.982 292.599 227.14H296.568C296.209 229.492 295.163 231.321 293.432 232.628C291.733 233.902 289.61 234.539 287.062 234.539C283.926 234.539 281.378 233.428 279.418 231.207C277.458 228.953 276.478 225.964 276.478 222.24C276.478 218.516 277.458 215.543 279.418 213.322C281.411 211.101 284.04 209.99 287.307 209.99C290.606 209.99 293.056 211.264 294.657 213.812C296.29 216.36 296.862 219.463 296.372 223.122H280.349C280.349 225.539 280.937 227.532 282.113 229.1C283.289 230.635 284.939 231.403 287.062 231.403ZM289.904 213.665C289.153 213.273 288.238 213.077 287.16 213.077C285.167 213.077 283.583 213.763 282.407 215.135C281.264 216.474 280.594 218.157 280.398 220.182H292.893C292.893 216.915 291.897 214.743 289.904 213.665ZM312.28 231.403C315.514 231.403 317.36 229.982 317.817 227.14H321.786C321.427 229.492 320.381 231.321 318.65 232.628C316.951 233.902 314.828 234.539 312.28 234.539C309.144 234.539 306.596 233.428 304.636 231.207C302.676 228.953 301.696 225.964 301.696 222.24C301.696 218.516 302.676 215.543 304.636 213.322C306.629 211.101 309.258 209.99 312.525 209.99C315.824 209.99 318.274 211.264 319.875 213.812C321.508 216.36 322.08 219.463 321.59 223.122H305.567C305.567 225.539 306.155 227.532 307.331 229.1C308.507 230.635 310.157 231.403 312.28 231.403ZM315.122 213.665C314.371 213.273 313.456 213.077 312.378 213.077C310.385 213.077 308.801 213.763 307.625 215.135C306.482 216.474 305.812 218.157 305.616 220.182H318.111C318.111 216.915 317.115 214.743 315.122 213.665ZM344.75 214.057V200.631H348.572V234H345.436L344.946 230.08C344.194 231.55 343.198 232.661 341.957 233.412C340.715 234.163 339.36 234.539 337.89 234.539C334.917 234.539 332.418 233.396 330.393 231.109C328.4 228.822 327.404 225.85 327.404 222.191C327.404 218.5 328.384 215.543 330.344 213.322C332.336 211.101 334.835 209.99 337.841 209.99C340.879 209.99 343.182 211.346 344.75 214.057ZM338.086 213.42C336.191 213.42 334.59 214.22 333.284 215.821C332.01 217.422 331.373 219.561 331.373 222.24C331.373 224.919 332.026 227.075 333.333 228.708C334.639 230.309 336.207 231.109 338.037 231.109C339.866 231.109 341.418 230.505 342.692 229.296C343.998 228.055 344.684 226.405 344.75 224.347V220.525C344.75 218.336 344.113 216.605 342.839 215.331C341.565 214.057 339.98 213.42 338.086 213.42ZM385.898 218.81C385.898 216.687 385.457 215.168 384.575 214.253C383.693 213.338 382.403 212.881 380.704 212.881C379.038 212.881 377.682 213.224 376.637 213.91C375.624 214.563 375.118 215.609 375.118 217.046H370.855C370.855 213.453 372.782 211.231 376.637 210.382C377.813 210.121 379.087 209.99 380.459 209.99C383.366 209.99 385.637 210.725 387.27 212.195C388.903 213.665 389.72 215.903 389.72 218.908V234H386.388L385.996 230.08C384.559 233.053 381.962 234.539 378.205 234.539C375.69 234.539 373.664 233.837 372.129 232.432C370.626 231.027 369.875 229.28 369.875 227.189C369.875 225.098 370.708 223.465 372.374 222.289C374.073 221.113 376.18 220.525 378.695 220.525C381.21 220.525 383.611 220.95 385.898 221.799V218.81ZM385.898 224.249C383.579 223.596 381.553 223.269 379.822 223.269C378.091 223.269 376.686 223.579 375.608 224.2C374.53 224.821 373.991 225.801 373.991 227.14C373.991 230.08 375.657 231.55 378.989 231.55C380.884 231.55 382.501 230.88 383.84 229.541C385.212 228.169 385.898 226.405 385.898 224.249ZM402.537 215.086C404.072 211.689 406.702 209.99 410.426 209.99C413.203 209.99 415.359 210.905 416.894 212.734C418.462 214.563 419.246 217.062 419.246 220.231V234H415.424V220.231C415.424 217.977 414.885 216.278 413.807 215.135C412.762 213.992 411.259 213.42 409.299 213.42C407.339 213.42 405.755 214.22 404.546 215.821C403.337 217.422 402.7 219.643 402.635 222.485V234H398.764V210.578H402.096L402.537 215.086ZM455.729 218.81C455.729 216.687 455.288 215.168 454.406 214.253C453.524 213.338 452.234 212.881 450.535 212.881C448.869 212.881 447.513 213.224 446.468 213.91C445.455 214.563 444.949 215.609 444.949 217.046H440.686C440.686 213.453 442.613 211.231 446.468 210.382C447.644 210.121 448.918 209.99 450.29 209.99C453.197 209.99 455.468 210.725 457.101 212.195C458.734 213.665 459.551 215.903 459.551 218.908V234H456.219L455.827 230.08C454.39 233.053 451.793 234.539 448.036 234.539C445.521 234.539 443.495 233.837 441.96 232.432C440.457 231.027 439.706 229.28 439.706 227.189C439.706 225.098 440.539 223.465 442.205 222.289C443.904 221.113 446.011 220.525 448.526 220.525C451.041 220.525 453.442 220.95 455.729 221.799V218.81ZM455.729 224.249C453.41 223.596 451.384 223.269 449.653 223.269C447.922 223.269 446.517 223.579 445.439 224.2C444.361 224.821 443.822 225.801 443.822 227.14C443.822 230.08 445.488 231.55 448.82 231.55C450.715 231.55 452.332 230.88 453.671 229.541C455.043 228.169 455.729 226.405 455.729 224.249ZM472.27 214.155C473.805 211.378 476.092 209.99 479.13 209.99C482.2 209.99 484.748 211.117 486.774 213.371C488.832 215.625 489.861 218.598 489.861 222.289C489.861 225.98 488.832 228.953 486.774 231.207C484.716 233.428 482.184 234.539 479.179 234.539C476.173 234.539 473.952 233.412 472.515 231.158V245.515H468.644V210.578H471.829L472.27 214.155ZM478.983 231.109C480.812 231.109 482.413 230.325 483.785 228.757C485.189 227.189 485.892 225.049 485.892 222.338C485.892 219.594 485.222 217.422 483.883 215.821C482.576 214.22 480.975 213.42 479.081 213.42C477.186 213.42 475.634 214.024 474.426 215.233C473.217 216.409 472.58 218.01 472.515 220.035V224.494C472.515 226.552 473.135 228.169 474.377 229.345C475.618 230.521 477.153 231.109 478.983 231.109ZM501.364 214.155C502.899 211.378 505.186 209.99 508.224 209.99C511.294 209.99 513.842 211.117 515.868 213.371C517.926 215.625 518.955 218.598 518.955 222.289C518.955 225.98 517.926 228.953 515.868 231.207C513.81 233.428 511.278 234.539 508.273 234.539C505.267 234.539 503.046 233.412 501.609 231.158V245.515H497.738V210.578H500.923L501.364 214.155ZM508.077 231.109C509.906 231.109 511.507 230.325 512.879 228.757C514.283 227.189 514.986 225.049 514.986 222.338C514.986 219.594 514.316 217.422 512.977 215.821C511.67 214.22 510.069 213.42 508.175 213.42C506.28 213.42 504.728 214.024 503.52 215.233C502.311 216.409 501.674 218.01 501.609 220.035V224.494C501.609 226.552 502.229 228.169 503.471 229.345C504.712 230.521 506.247 231.109 508.077 231.109ZM551.087 203.914C550.009 203.489 549.16 203.277 548.539 203.277C547.396 203.277 546.497 203.555 545.844 204.11C545.191 204.665 544.864 205.645 544.864 207.05V210.578H549.715V213.224H544.864V234H541.042V213.224H537.171V210.578H541.042V207.001C541.042 204.682 541.679 202.983 542.953 201.905C544.227 200.794 545.697 200.239 547.363 200.239C549.029 200.239 550.499 200.451 551.773 200.876L551.087 203.914ZM564.943 209.99C568.209 209.99 570.839 211.052 572.832 213.175C574.857 215.298 575.87 218.336 575.87 222.289C575.87 226.209 574.857 229.231 572.832 231.354C570.839 233.477 568.209 234.539 564.943 234.539C561.676 234.539 559.03 233.477 557.005 231.354C555.012 229.231 554.016 226.209 554.016 222.289C554.016 218.336 555.012 215.298 557.005 213.175C559.03 211.052 561.676 209.99 564.943 209.99ZM571.95 222.289C571.95 219.48 571.362 217.291 570.186 215.723C569.01 214.122 567.278 213.322 564.992 213.322C562.738 213.322 561.006 214.122 559.798 215.723C558.589 217.291 557.985 219.48 557.985 222.289C557.985 225.066 558.556 227.254 559.7 228.855C560.843 230.423 562.542 231.207 564.796 231.207C567.082 231.207 568.846 230.423 570.088 228.855C571.329 227.254 571.95 225.066 571.95 222.289ZM592.819 213.861C589.127 213.861 587.216 216.768 587.086 222.583V234H583.215V210.529H587.086V215.037C588.262 211.77 590.336 210.137 593.309 210.137C594.256 210.137 595.154 210.284 596.004 210.578L595.808 214.351C594.828 214.024 593.831 213.861 592.819 213.861ZM618.44 214.155C619.975 211.378 622.262 209.99 625.3 209.99C628.37 209.99 630.918 211.117 632.944 213.371C635.002 215.625 636.031 218.598 636.031 222.289C636.031 225.98 635.002 228.953 632.944 231.207C630.886 233.428 628.354 234.539 625.349 234.539C622.343 234.539 620.122 233.412 618.685 231.158V245.515H614.814V210.578H617.999L618.44 214.155ZM625.153 231.109C626.982 231.109 628.583 230.325 629.955 228.757C631.359 227.189 632.062 225.049 632.062 222.338C632.062 219.594 631.392 217.422 630.053 215.821C628.746 214.22 627.145 213.42 625.251 213.42C623.356 213.42 621.804 214.024 620.596 215.233C619.387 216.409 618.75 218.01 618.685 220.035V224.494C618.685 226.552 619.305 228.169 620.547 229.345C621.788 230.521 623.323 231.109 625.153 231.109ZM653.462 213.861C649.771 213.861 647.86 216.768 647.729 222.583V234H643.858V210.529H647.729V215.037C648.905 211.77 650.98 210.137 653.952 210.137C654.9 210.137 655.798 210.284 656.647 210.578L656.451 214.351C655.471 214.024 654.475 213.861 653.462 213.861ZM670.997 209.99C674.264 209.99 676.894 211.052 678.886 213.175C680.912 215.298 681.924 218.336 681.924 222.289C681.924 226.209 680.912 229.231 678.886 231.354C676.894 233.477 674.264 234.539 670.997 234.539C667.731 234.539 665.085 233.477 663.059 231.354C661.067 229.231 660.07 226.209 660.07 222.289C660.07 218.336 661.067 215.298 663.059 213.175C665.085 211.052 667.731 209.99 670.997 209.99ZM678.004 222.289C678.004 219.48 677.416 217.291 676.24 215.723C675.064 214.122 673.333 213.322 671.046 213.322C668.792 213.322 667.061 214.122 665.852 215.723C664.644 217.291 664.039 219.48 664.039 222.289C664.039 225.066 664.611 227.254 665.754 228.855C666.898 230.423 668.596 231.207 670.85 231.207C673.137 231.207 674.901 230.423 676.142 228.855C677.384 227.254 678.004 225.066 678.004 222.289ZM700.686 203.914C699.608 203.489 698.759 203.277 698.138 203.277C696.995 203.277 696.097 203.555 695.443 204.11C694.79 204.665 694.463 205.645 694.463 207.05V210.578H699.314V213.224H694.463V234H690.641V213.224H686.77V210.578H690.641V207.001C690.641 204.682 691.278 202.983 692.552 201.905C693.826 200.794 695.296 200.239 696.962 200.239C698.628 200.239 700.098 200.451 701.372 200.876L700.686 203.914ZM714.199 231.403C717.433 231.403 719.279 229.982 719.736 227.14H723.705C723.346 229.492 722.301 231.321 720.569 232.628C718.871 233.902 716.747 234.539 714.199 234.539C711.063 234.539 708.515 233.428 706.555 231.207C704.595 228.953 703.615 225.964 703.615 222.24C703.615 218.516 704.595 215.543 706.555 213.322C708.548 211.101 711.178 209.99 714.444 209.99C717.744 209.99 720.194 211.264 721.794 213.812C723.428 216.36 723.999 219.463 723.509 223.122H707.486C707.486 225.539 708.074 227.532 709.25 229.1C710.426 230.635 712.076 231.403 714.199 231.403ZM717.041 213.665C716.29 213.273 715.375 213.077 714.297 213.077C712.305 213.077 710.72 213.763 709.544 215.135C708.401 216.474 707.731 218.157 707.535 220.182H720.03C720.03 216.915 719.034 214.743 717.041 213.665ZM730.107 216.311C730.107 214.384 730.924 212.848 732.557 211.705C734.223 210.562 736.461 209.99 739.27 209.99C742.079 209.99 744.268 210.578 745.836 211.754C747.437 212.93 748.27 214.416 748.335 216.213H744.562C744.268 214.09 742.471 213.028 739.172 213.028C737.571 213.028 736.33 213.387 735.448 214.106C734.599 214.825 734.174 215.609 734.174 216.458C734.174 217.275 734.501 217.977 735.154 218.565C735.807 219.12 736.853 219.61 738.29 220.035L742.994 221.603C744.987 222.224 746.506 223.024 747.551 224.004C748.629 224.951 749.168 226.274 749.168 227.973C749.168 229.639 748.302 231.158 746.571 232.53C744.84 233.869 742.422 234.539 739.319 234.539C736.216 234.539 733.798 233.853 732.067 232.481C730.336 231.076 729.421 229.28 729.323 227.091H733.047C733.112 228.561 733.7 229.672 734.811 230.423C735.954 231.142 737.375 231.501 739.074 231.501C740.773 231.501 742.177 231.142 743.288 230.423C744.399 229.704 744.954 228.855 744.954 227.875C744.954 226.862 744.627 226.095 743.974 225.572C743.321 225.049 742.259 224.592 740.789 224.2L736.232 222.681C732.149 221.472 730.107 219.349 730.107 216.311ZM755.899 216.311C755.899 214.384 756.716 212.848 758.349 211.705C760.015 210.562 762.253 209.99 765.062 209.99C767.871 209.99 770.06 210.578 771.628 211.754C773.229 212.93 774.062 214.416 774.127 216.213H770.354C770.06 214.09 768.263 213.028 764.964 213.028C763.363 213.028 762.122 213.387 761.24 214.106C760.391 214.825 759.966 215.609 759.966 216.458C759.966 217.275 760.293 217.977 760.946 218.565C761.599 219.12 762.645 219.61 764.082 220.035L768.786 221.603C770.779 222.224 772.298 223.024 773.343 224.004C774.421 224.951 774.96 226.274 774.96 227.973C774.96 229.639 774.094 231.158 772.363 232.53C770.632 233.869 768.214 234.539 765.111 234.539C762.008 234.539 759.59 233.853 757.859 232.481C756.128 231.076 755.213 229.28 755.115 227.091H758.839C758.904 228.561 759.492 229.672 760.603 230.423C761.746 231.142 763.167 231.501 764.866 231.501C766.565 231.501 767.969 231.142 769.08 230.423C770.191 229.704 770.746 228.855 770.746 227.875C770.746 226.862 770.419 226.095 769.766 225.572C769.113 225.049 768.051 224.592 766.581 224.2L762.024 222.681C757.941 221.472 755.899 219.349 755.899 216.311ZM783.161 210.529H787.032V234H783.161V210.529ZM785.072 205.041C784.288 205.041 783.667 204.829 783.21 204.404C782.785 203.947 782.573 203.359 782.573 202.64C782.573 201.889 782.785 201.301 783.21 200.876C783.667 200.419 784.288 200.19 785.072 200.19C785.856 200.19 786.477 200.419 786.934 200.876C787.424 201.301 787.669 201.889 787.669 202.64C787.669 203.359 787.424 203.947 786.934 204.404C786.477 204.829 785.856 205.041 785.072 205.041ZM805.987 209.99C809.253 209.99 811.883 211.052 813.876 213.175C815.901 215.298 816.914 218.336 816.914 222.289C816.914 226.209 815.901 229.231 813.876 231.354C811.883 233.477 809.253 234.539 805.987 234.539C802.72 234.539 800.074 233.477 798.049 231.354C796.056 229.231 795.06 226.209 795.06 222.289C795.06 218.336 796.056 215.298 798.049 213.175C800.074 211.052 802.72 209.99 805.987 209.99ZM812.994 222.289C812.994 219.48 812.406 217.291 811.23 215.723C810.054 214.122 808.322 213.322 806.036 213.322C803.782 213.322 802.05 214.122 800.842 215.723C799.633 217.291 799.029 219.48 799.029 222.289C799.029 225.066 799.6 227.254 800.744 228.855C801.887 230.423 803.586 231.207 805.84 231.207C808.126 231.207 809.89 230.423 811.132 228.855C812.373 227.254 812.994 225.066 812.994 222.289ZM828.032 215.086C829.567 211.689 832.197 209.99 835.921 209.99C838.697 209.99 840.853 210.905 842.389 212.734C843.957 214.563 844.741 217.062 844.741 220.231V234H840.919V220.231C840.919 217.977 840.38 216.278 839.302 215.135C838.256 213.992 836.754 213.42 834.794 213.42C832.834 213.42 831.249 214.22 830.041 215.821C828.832 217.422 828.195 219.643 828.13 222.485V234H824.259V210.578H827.591L828.032 215.086ZM868.336 218.81C868.336 216.687 867.895 215.168 867.013 214.253C866.131 213.338 864.841 212.881 863.142 212.881C861.476 212.881 860.12 213.224 859.075 213.91C858.062 214.563 857.556 215.609 857.556 217.046H853.293C853.293 213.453 855.22 211.231 859.075 210.382C860.251 210.121 861.525 209.99 862.897 209.99C865.804 209.99 868.075 210.725 869.708 212.195C871.341 213.665 872.158 215.903 872.158 218.908V234H868.826L868.434 230.08C866.997 233.053 864.4 234.539 860.643 234.539C858.128 234.539 856.102 233.837 854.567 232.432C853.064 231.027 852.313 229.28 852.313 227.189C852.313 225.098 853.146 223.465 854.812 222.289C856.511 221.113 858.618 220.525 861.133 220.525C863.648 220.525 866.049 220.95 868.336 221.799V218.81ZM868.336 224.249C866.017 223.596 863.991 223.269 862.26 223.269C860.529 223.269 859.124 223.579 858.046 224.2C856.968 224.821 856.429 225.801 856.429 227.14C856.429 230.08 858.095 231.55 861.427 231.55C863.322 231.55 864.939 230.88 866.278 229.541C867.65 228.169 868.336 226.405 868.336 224.249ZM881.251 200.631H885.122V234H881.251V200.631ZM923.797 229.345C922.196 232.742 919.599 234.441 916.006 234.441C913.36 234.441 911.22 233.706 909.587 232.236C907.986 230.766 907.186 228.496 907.186 225.425V210.529H911.057V225.131C911.057 229.084 912.886 231.06 916.545 231.06C918.668 231.06 920.383 230.243 921.69 228.61C923.029 226.977 923.732 224.886 923.797 222.338V210.529H927.668V234H923.797V229.345ZM936.363 216.311C936.363 214.384 937.179 212.848 938.813 211.705C940.479 210.562 942.716 209.99 945.526 209.99C948.335 209.99 950.524 210.578 952.092 211.754C953.692 212.93 954.525 214.416 954.591 216.213H950.818C950.524 214.09 948.727 213.028 945.428 213.028C943.827 213.028 942.586 213.387 941.704 214.106C940.854 214.825 940.43 215.609 940.43 216.458C940.43 217.275 940.756 217.977 941.41 218.565C942.063 219.12 943.108 219.61 944.546 220.035L949.25 221.603C951.242 222.224 952.761 223.024 953.807 224.004C954.885 224.951 955.424 226.274 955.424 227.973C955.424 229.639 954.558 231.158 952.827 232.53C951.095 233.869 948.678 234.539 945.575 234.539C942.471 234.539 940.054 233.853 938.323 232.481C936.591 231.076 935.677 229.28 935.579 227.091H939.303C939.368 228.561 939.956 229.672 941.067 230.423C942.21 231.142 943.631 231.501 945.33 231.501C947.028 231.501 948.433 231.142 949.544 230.423C950.654 229.704 951.21 228.855 951.21 227.875C951.21 226.862 950.883 226.095 950.23 225.572C949.576 225.049 948.515 224.592 947.045 224.2L942.488 222.681C938.404 221.472 936.363 219.349 936.363 216.311ZM971.465 231.403C974.699 231.403 976.544 229.982 977.002 227.14H980.971C980.611 229.492 979.566 231.321 977.835 232.628C976.136 233.902 974.013 234.539 971.465 234.539C968.329 234.539 965.781 233.428 963.821 231.207C961.861 228.953 960.881 225.964 960.881 222.24C960.881 218.516 961.861 215.543 963.821 213.322C965.813 211.101 968.443 209.99 971.71 209.99C975.009 209.99 977.459 211.264 979.06 213.812C980.693 216.36 981.265 219.463 980.775 223.122H964.752C964.752 225.539 965.34 227.532 966.516 229.1C967.692 230.635 969.341 231.403 971.465 231.403ZM974.307 213.665C973.555 213.273 972.641 213.077 971.563 213.077C969.57 213.077 967.986 213.763 966.81 215.135C965.666 216.474 964.997 218.157 964.801 220.182H977.296C977.296 216.915 976.299 214.743 974.307 213.665ZM988.794 234.245C988.042 234.18 987.422 233.935 986.932 233.51C986.442 233.085 986.197 232.514 986.197 231.795C986.197 231.076 986.442 230.472 986.932 229.982C987.454 229.492 988.173 229.247 989.088 229.247C990.035 229.247 990.819 229.623 991.44 230.374C992.06 231.093 992.371 232.007 992.371 233.118C992.371 234.229 992.011 235.356 991.293 236.499C990.574 237.675 989.48 238.622 988.01 239.341L985.119 237.92C987.144 236.94 988.369 235.715 988.794 234.245ZM1011.72 210.578L1017.41 229.247L1022.99 211.705H1026.23L1031.77 229.443L1037.5 210.578H1041.32L1033.68 234H1029.9L1024.51 217.585L1019.22 234H1015.5L1007.71 210.578H1011.72ZM1051.15 214.89C1052.72 211.623 1055.32 209.99 1058.94 209.99C1061.72 209.99 1063.87 210.905 1065.41 212.734C1066.98 214.563 1067.76 217.062 1067.76 220.231V234H1063.94V220.231C1063.94 217.977 1063.4 216.278 1062.32 215.135C1061.28 213.992 1059.76 213.42 1057.77 213.42C1055.77 213.42 1054.17 214.269 1052.96 215.968C1051.75 217.634 1051.15 219.953 1051.15 222.926V234H1047.28V200.631H1051.15V214.89ZM1084.94 231.403C1088.17 231.403 1090.02 229.982 1090.47 227.14H1094.44C1094.08 229.492 1093.04 231.321 1091.31 232.628C1089.61 233.902 1087.48 234.539 1084.94 234.539C1081.8 234.539 1079.25 233.428 1077.29 231.207C1075.33 228.953 1074.35 225.964 1074.35 222.24C1074.35 218.516 1075.33 215.543 1077.29 213.322C1079.29 211.101 1081.91 209.99 1085.18 209.99C1088.48 209.99 1090.93 211.264 1092.53 213.812C1094.16 216.36 1094.74 219.463 1094.25 223.122H1078.22C1078.22 225.539 1078.81 227.532 1079.99 229.1C1081.16 230.635 1082.81 231.403 1084.94 231.403ZM1087.78 213.665C1087.03 213.273 1086.11 213.077 1085.03 213.077C1083.04 213.077 1081.46 213.763 1080.28 215.135C1079.14 216.474 1078.47 218.157 1078.27 220.182H1090.77C1090.77 216.915 1089.77 214.743 1087.78 213.665ZM1111.62 213.861C1107.93 213.861 1106.02 216.768 1105.89 222.583V234H1102.02V210.529H1105.89V215.037C1107.07 211.77 1109.14 210.137 1112.11 210.137C1113.06 210.137 1113.96 210.284 1114.81 210.578L1114.61 214.351C1113.63 214.024 1112.64 213.861 1111.62 213.861ZM1128.82 231.403C1132.05 231.403 1133.9 229.982 1134.35 227.14H1138.32C1137.96 229.492 1136.92 231.321 1135.19 232.628C1133.49 233.902 1131.36 234.539 1128.82 234.539C1125.68 234.539 1123.13 233.428 1121.17 231.207C1119.21 228.953 1118.23 225.964 1118.23 222.24C1118.23 218.516 1119.21 215.543 1121.17 213.322C1123.16 211.101 1125.79 209.99 1129.06 209.99C1132.36 209.99 1134.81 211.264 1136.41 213.812C1138.04 216.36 1138.62 219.463 1138.13 223.122H1122.1C1122.1 225.539 1122.69 227.532 1123.87 229.1C1125.04 230.635 1126.69 231.403 1128.82 231.403ZM1131.66 213.665C1130.91 213.273 1129.99 213.077 1128.91 213.077C1126.92 213.077 1125.34 213.763 1124.16 215.135C1123.02 216.474 1122.35 218.157 1122.15 220.182H1134.65C1134.65 216.915 1133.65 214.743 1131.66 213.665ZM128.286 271.057V257.631H132.108V291H128.972L128.482 287.08C127.731 288.55 126.734 289.661 125.493 290.412C124.252 291.163 122.896 291.539 121.426 291.539C118.453 291.539 115.954 290.396 113.929 288.109C111.936 285.822 110.94 282.85 110.94 279.191C110.94 275.5 111.92 272.543 113.88 270.322C115.873 268.101 118.372 266.99 121.377 266.99C124.415 266.99 126.718 268.346 128.286 271.057ZM121.622 270.42C119.727 270.42 118.127 271.22 116.82 272.821C115.546 274.422 114.909 276.561 114.909 279.24C114.909 281.919 115.562 284.075 116.869 285.708C118.176 287.309 119.744 288.109 121.573 288.109C123.402 288.109 124.954 287.505 126.228 286.296C127.535 285.055 128.221 283.405 128.286 281.347V277.525C128.286 275.336 127.649 273.605 126.375 272.331C125.101 271.057 123.517 270.42 121.622 270.42ZM157.968 286.345C156.367 289.742 153.77 291.441 150.177 291.441C147.531 291.441 145.391 290.706 143.758 289.236C142.157 287.766 141.357 285.496 141.357 282.425V267.529H145.228V282.131C145.228 286.084 147.057 288.06 150.716 288.06C152.839 288.06 154.554 287.243 155.861 285.61C157.2 283.977 157.902 281.886 157.968 279.338V267.529H161.839V291H157.968V286.345ZM179.844 288.403C183.078 288.403 184.923 286.982 185.381 284.14H189.35C188.99 286.492 187.945 288.321 186.214 289.628C184.515 290.902 182.392 291.539 179.844 291.539C176.708 291.539 174.16 290.428 172.2 288.207C170.24 285.953 169.26 282.964 169.26 279.24C169.26 275.516 170.24 272.543 172.2 270.322C174.192 268.101 176.822 266.99 180.089 266.99C183.388 266.99 185.838 268.264 187.439 270.812C189.072 273.36 189.644 276.463 189.154 280.122H173.131C173.131 282.539 173.719 284.532 174.895 286.1C176.071 287.635 177.72 288.403 179.844 288.403ZM182.686 270.665C181.934 270.273 181.02 270.077 179.942 270.077C177.949 270.077 176.365 270.763 175.189 272.135C174.045 273.474 173.376 275.157 173.18 277.182H185.675C185.675 273.915 184.678 271.743 182.686 270.665ZM234.049 271.057V257.631H237.871V291H234.735L234.245 287.08C233.493 288.55 232.497 289.661 231.256 290.412C230.014 291.163 228.659 291.539 227.189 291.539C224.216 291.539 221.717 290.396 219.692 288.109C217.699 285.822 216.703 282.85 216.703 279.191C216.703 275.5 217.683 272.543 219.643 270.322C221.635 268.101 224.134 266.99 227.14 266.99C230.178 266.99 232.481 268.346 234.049 271.057ZM227.385 270.42C225.49 270.42 223.889 271.22 222.583 272.821C221.309 274.422 220.672 276.561 220.672 279.24C220.672 281.919 221.325 284.075 222.632 285.708C223.938 287.309 225.506 288.109 227.336 288.109C229.165 288.109 230.717 287.505 231.991 286.296C233.298 285.055 233.984 283.405 234.049 281.347V277.525C234.049 275.336 233.412 273.605 232.138 272.331C230.864 271.057 229.28 270.42 227.385 270.42ZM262.31 275.81C262.31 273.687 261.869 272.168 260.987 271.253C260.105 270.338 258.814 269.881 257.116 269.881C255.45 269.881 254.094 270.224 253.049 270.91C252.036 271.563 251.53 272.609 251.53 274.046H247.267C247.267 270.453 249.194 268.231 253.049 267.382C254.225 267.121 255.499 266.99 256.871 266.99C259.778 266.99 262.048 267.725 263.682 269.195C265.315 270.665 266.132 272.903 266.132 275.908V291H262.8L262.408 287.08C260.97 290.053 258.373 291.539 254.617 291.539C252.101 291.539 250.076 290.837 248.541 289.432C247.038 288.027 246.287 286.28 246.287 284.189C246.287 282.098 247.12 280.465 248.786 279.289C250.484 278.113 252.591 277.525 255.107 277.525C257.622 277.525 260.023 277.95 262.31 278.799V275.81ZM262.31 281.249C259.99 280.596 257.965 280.269 256.234 280.269C254.502 280.269 253.098 280.579 252.02 281.2C250.942 281.821 250.403 282.801 250.403 284.14C250.403 287.08 252.069 288.55 255.401 288.55C257.295 288.55 258.912 287.88 260.252 286.541C261.624 285.169 262.31 283.405 262.31 281.249ZM287.475 290.314C284.665 291.621 282.101 291.898 279.782 291.147C278.116 290.624 276.94 289.53 276.254 287.864C275.894 287.047 275.715 286.067 275.715 284.924V270.518H271.942V267.578H275.715V261.061H279.537V267.578H286.887V270.518H279.537V284.875C279.537 287.26 280.647 288.452 282.869 288.452C284.077 288.452 285.433 288.158 286.936 287.57L287.475 290.314ZM301.732 288.403C304.966 288.403 306.812 286.982 307.269 284.14H311.238C310.879 286.492 309.834 288.321 308.102 289.628C306.404 290.902 304.28 291.539 301.732 291.539C298.596 291.539 296.048 290.428 294.088 288.207C292.128 285.953 291.148 282.964 291.148 279.24C291.148 275.516 292.128 272.543 294.088 270.322C296.081 268.101 298.711 266.99 301.977 266.99C305.277 266.99 307.727 268.264 309.327 270.812C310.961 273.36 311.532 276.463 311.042 280.122H295.019C295.019 282.539 295.607 284.532 296.783 286.1C297.959 287.635 299.609 288.403 301.732 288.403ZM304.574 270.665C303.823 270.273 302.908 270.077 301.83 270.077C299.838 270.077 298.253 270.763 297.077 272.135C295.934 273.474 295.264 275.157 295.068 277.182H307.563C307.563 273.915 306.567 271.743 304.574 270.665ZM317.64 273.311C317.64 271.384 318.457 269.848 320.09 268.705C321.756 267.562 323.994 266.99 326.803 266.99C329.612 266.99 331.801 267.578 333.369 268.754C334.97 269.93 335.803 271.416 335.868 273.213H332.095C331.801 271.09 330.004 270.028 326.705 270.028C325.104 270.028 323.863 270.387 322.981 271.106C322.132 271.825 321.707 272.609 321.707 273.458C321.707 274.275 322.034 274.977 322.687 275.565C323.34 276.12 324.386 276.61 325.823 277.035L330.527 278.603C332.52 279.224 334.039 280.024 335.084 281.004C336.162 281.951 336.701 283.274 336.701 284.973C336.701 286.639 335.835 288.158 334.104 289.53C332.373 290.869 329.955 291.539 326.852 291.539C323.749 291.539 321.331 290.853 319.6 289.481C317.869 288.076 316.954 286.28 316.856 284.091H320.58C320.645 285.561 321.233 286.672 322.344 287.423C323.487 288.142 324.908 288.501 326.607 288.501C328.306 288.501 329.71 288.142 330.821 287.423C331.932 286.704 332.487 285.855 332.487 284.875C332.487 283.862 332.16 283.095 331.507 282.572C330.854 282.049 329.792 281.592 328.322 281.2L323.765 279.681C319.682 278.472 317.64 276.349 317.64 273.311ZM380.897 275.81C380.897 273.687 380.456 272.168 379.574 271.253C378.692 270.338 377.401 269.881 375.703 269.881C374.037 269.881 372.681 270.224 371.636 270.91C370.623 271.563 370.117 272.609 370.117 274.046H365.854C365.854 270.453 367.781 268.231 371.636 267.382C372.812 267.121 374.086 266.99 375.458 266.99C378.365 266.99 380.635 267.725 382.269 269.195C383.902 270.665 384.719 272.903 384.719 275.908V291H381.387L380.995 287.08C379.557 290.053 376.96 291.539 373.204 291.539C370.688 291.539 368.663 290.837 367.128 289.432C365.625 288.027 364.874 286.28 364.874 284.189C364.874 282.098 365.707 280.465 367.373 279.289C369.071 278.113 371.178 277.525 373.694 277.525C376.209 277.525 378.61 277.95 380.897 278.799V275.81ZM380.897 281.249C378.577 280.596 376.552 280.269 374.821 280.269C373.089 280.269 371.685 280.579 370.607 281.2C369.529 281.821 368.99 282.801 368.99 284.14C368.99 287.08 370.656 288.55 373.988 288.55C375.882 288.55 377.499 287.88 378.839 286.541C380.211 285.169 380.897 283.405 380.897 281.249ZM397.536 272.086C399.071 268.689 401.701 266.99 405.425 266.99C408.201 266.99 410.357 267.905 411.893 269.734C413.461 271.563 414.245 274.062 414.245 277.231V291H410.423V277.231C410.423 274.977 409.884 273.278 408.806 272.135C407.76 270.992 406.258 270.42 404.298 270.42C402.338 270.42 400.753 271.22 399.545 272.821C398.336 274.422 397.699 276.643 397.634 279.485V291H393.763V267.578H397.095L397.536 272.086ZM438.673 271.057V257.631H442.495V291H439.359L438.869 287.08C438.118 288.55 437.121 289.661 435.88 290.412C434.639 291.163 433.283 291.539 431.813 291.539C428.84 291.539 426.341 290.396 424.316 288.109C422.323 285.822 421.327 282.85 421.327 279.191C421.327 275.5 422.307 272.543 424.267 270.322C426.26 268.101 428.759 266.99 431.764 266.99C434.802 266.99 437.105 268.346 438.673 271.057ZM432.009 270.42C430.114 270.42 428.514 271.22 427.207 272.821C425.933 274.422 425.296 276.561 425.296 279.24C425.296 281.919 425.949 284.075 427.256 285.708C428.563 287.309 430.131 288.109 431.96 288.109C433.789 288.109 435.341 287.505 436.615 286.296C437.922 285.055 438.608 283.405 438.673 281.347V277.525C438.673 275.336 438.036 273.605 436.762 272.331C435.488 271.057 433.904 270.42 432.009 270.42ZM486.415 290.314C483.606 291.621 481.042 291.898 478.722 291.147C477.056 290.624 475.88 289.53 475.194 287.864C474.835 287.047 474.655 286.067 474.655 284.924V270.518H470.882V267.578H474.655V261.061H478.477V267.578H485.827V270.518H478.477V284.875C478.477 287.26 479.588 288.452 481.809 288.452C483.018 288.452 484.374 288.158 485.876 287.57L486.415 290.314ZM492.833 267.529H496.704V291H492.833V267.529ZM494.744 262.041C493.96 262.041 493.339 261.829 492.882 261.404C492.457 260.947 492.245 260.359 492.245 259.64C492.245 258.889 492.457 258.301 492.882 257.876C493.339 257.419 493.96 257.19 494.744 257.19C495.528 257.19 496.149 257.419 496.606 257.876C497.096 258.301 497.341 258.889 497.341 259.64C497.341 260.359 497.096 260.947 496.606 261.404C496.149 261.829 495.528 262.041 494.744 262.041ZM510.955 272.086C512.49 268.689 515.12 266.99 518.844 266.99C520.869 266.99 522.568 267.496 523.94 268.509C525.312 269.489 526.308 270.861 526.929 272.625C528.399 268.868 531.126 266.99 535.112 266.99C537.921 266.99 540.093 267.905 541.629 269.734C543.164 271.563 543.932 274.062 543.932 277.231V291H540.11V277.231C540.11 274.977 539.571 273.278 538.493 272.135C537.447 270.992 535.928 270.42 533.936 270.42C531.943 270.42 530.391 271.237 529.281 272.87C528.203 274.503 527.664 276.757 527.664 279.632V291H523.842V277.231C523.842 274.977 523.303 273.278 522.225 272.135C521.179 270.992 519.677 270.42 517.717 270.42C515.757 270.42 514.172 271.22 512.964 272.821C511.755 274.422 511.118 276.643 511.053 279.485V291H507.182V267.578H510.514L510.955 272.086ZM561.11 288.403C564.344 288.403 566.189 286.982 566.647 284.14H570.616C570.256 286.492 569.211 288.321 567.48 289.628C565.781 290.902 563.658 291.539 561.11 291.539C557.974 291.539 555.426 290.428 553.466 288.207C551.506 285.953 550.526 282.964 550.526 279.24C550.526 275.516 551.506 272.543 553.466 270.322C555.458 268.101 558.088 266.99 561.355 266.99C564.654 266.99 567.104 268.264 568.705 270.812C570.338 273.36 570.91 276.463 570.42 280.122H554.397C554.397 282.539 554.985 284.532 556.161 286.1C557.337 287.635 558.986 288.403 561.11 288.403ZM563.952 270.665C563.2 270.273 562.286 270.077 561.208 270.077C559.215 270.077 557.631 270.763 556.455 272.135C555.311 273.474 554.642 275.157 554.446 277.182H566.941C566.941 273.915 565.944 271.743 563.952 270.665ZM577.017 273.311C577.017 271.384 577.834 269.848 579.467 268.705C581.133 267.562 583.371 266.99 586.18 266.99C588.99 266.99 591.178 267.578 592.746 268.754C594.347 269.93 595.18 271.416 595.245 273.213H591.472C591.178 271.09 589.382 270.028 586.082 270.028C584.482 270.028 583.24 270.387 582.358 271.106C581.509 271.825 581.084 272.609 581.084 273.458C581.084 274.275 581.411 274.977 582.064 275.565C582.718 276.12 583.763 276.61 585.2 277.035L589.904 278.603C591.897 279.224 593.416 280.024 594.461 281.004C595.539 281.951 596.078 283.274 596.078 284.973C596.078 286.639 595.213 288.158 593.481 289.53C591.75 290.869 589.333 291.539 586.229 291.539C583.126 291.539 580.709 290.853 578.977 289.481C577.246 288.076 576.331 286.28 576.233 284.091H579.957C580.023 285.561 580.611 286.672 581.721 287.423C582.865 288.142 584.286 288.501 585.984 288.501C587.683 288.501 589.088 288.142 590.198 287.423C591.309 286.704 591.864 285.855 591.864 284.875C591.864 283.862 591.538 283.095 590.884 282.572C590.231 282.049 589.169 281.592 587.699 281.2L583.142 279.681C579.059 278.472 577.017 276.349 577.017 273.311ZM640.274 275.81C640.274 273.687 639.833 272.168 638.951 271.253C638.069 270.338 636.779 269.881 635.08 269.881C633.414 269.881 632.058 270.224 631.013 270.91C630 271.563 629.494 272.609 629.494 274.046H625.231C625.231 270.453 627.158 268.231 631.013 267.382C632.189 267.121 633.463 266.99 634.835 266.99C637.742 266.99 640.013 267.725 641.646 269.195C643.279 270.665 644.096 272.903 644.096 275.908V291H640.764L640.372 287.08C638.935 290.053 636.338 291.539 632.581 291.539C630.066 291.539 628.04 290.837 626.505 289.432C625.002 288.027 624.251 286.28 624.251 284.189C624.251 282.098 625.084 280.465 626.75 279.289C628.449 278.113 630.556 277.525 633.071 277.525C635.586 277.525 637.987 277.95 640.274 278.799V275.81ZM640.274 281.249C637.955 280.596 635.929 280.269 634.198 280.269C632.467 280.269 631.062 280.579 629.984 281.2C628.906 281.821 628.367 282.801 628.367 284.14C628.367 287.08 630.033 288.55 633.365 288.55C635.26 288.55 636.877 287.88 638.216 286.541C639.588 285.169 640.274 283.405 640.274 281.249ZM662.744 270.861C659.052 270.861 657.141 273.768 657.011 279.583V291H653.14V267.529H657.011V272.037C658.187 268.77 660.261 267.137 663.234 267.137C664.181 267.137 665.079 267.284 665.929 267.578L665.733 271.351C664.753 271.024 663.756 270.861 662.744 270.861ZM679.936 288.403C683.17 288.403 685.016 286.982 685.473 284.14H689.442C689.083 286.492 688.037 288.321 686.306 289.628C684.607 290.902 682.484 291.539 679.936 291.539C676.8 291.539 674.252 290.428 672.292 288.207C670.332 285.953 669.352 282.964 669.352 279.24C669.352 275.516 670.332 272.543 672.292 270.322C674.285 268.101 676.914 266.99 680.181 266.99C683.48 266.99 685.93 268.264 687.531 270.812C689.164 273.36 689.736 276.463 689.246 280.122H673.223C673.223 282.539 673.811 284.532 674.987 286.1C676.163 287.635 677.813 288.403 679.936 288.403ZM682.778 270.665C682.027 270.273 681.112 270.077 680.034 270.077C678.041 270.077 676.457 270.763 675.281 272.135C674.138 273.474 673.468 275.157 673.272 277.182H685.767C685.767 273.915 684.771 271.743 682.778 270.665ZM722.528 272.086C724.063 268.689 726.693 266.99 730.417 266.99C733.194 266.99 735.35 267.905 736.885 269.734C738.453 271.563 739.237 274.062 739.237 277.231V291H735.415V277.231C735.415 274.977 734.876 273.278 733.798 272.135C732.753 270.992 731.25 270.42 729.29 270.42C727.33 270.42 725.746 271.22 724.537 272.821C723.328 274.422 722.691 276.643 722.626 279.485V291H718.755V267.578H722.087L722.528 272.086ZM756.757 266.99C760.023 266.99 762.653 268.052 764.646 270.175C766.671 272.298 767.684 275.336 767.684 279.289C767.684 283.209 766.671 286.231 764.646 288.354C762.653 290.477 760.023 291.539 756.757 291.539C753.49 291.539 750.844 290.477 748.819 288.354C746.826 286.231 745.83 283.209 745.83 279.289C745.83 275.336 746.826 272.298 748.819 270.175C750.844 268.052 753.49 266.99 756.757 266.99ZM763.764 279.289C763.764 276.48 763.176 274.291 762 272.723C760.824 271.122 759.092 270.322 756.806 270.322C754.552 270.322 752.82 271.122 751.612 272.723C750.403 274.291 749.799 276.48 749.799 279.289C749.799 282.066 750.37 284.254 751.514 285.855C752.657 287.423 754.356 288.207 756.61 288.207C758.896 288.207 760.66 287.423 761.902 285.855C763.143 284.254 763.764 282.066 763.764 279.289ZM787.328 290.314C784.518 291.621 781.954 291.898 779.635 291.147C777.969 290.624 776.793 289.53 776.107 287.864C775.747 287.047 775.568 286.067 775.568 284.924V270.518H771.795V267.578H775.568V261.061H779.39V267.578H786.74V270.518H779.39V284.875C779.39 287.26 780.5 288.452 782.722 288.452C783.93 288.452 785.286 288.158 786.789 287.57L787.328 290.314ZM818.96 272.086C820.495 268.689 823.125 266.99 826.849 266.99C828.874 266.99 830.573 267.496 831.945 268.509C833.317 269.489 834.313 270.861 834.934 272.625C836.404 268.868 839.132 266.99 843.117 266.99C845.926 266.99 848.099 267.905 849.634 269.734C851.169 271.563 851.937 274.062 851.937 277.231V291H848.115V277.231C848.115 274.977 847.576 273.278 846.498 272.135C845.453 270.992 843.934 270.42 841.941 270.42C839.948 270.42 838.397 271.237 837.286 272.87C836.208 274.503 835.669 276.757 835.669 279.632V291H831.847V277.231C831.847 274.977 831.308 273.278 830.23 272.135C829.185 270.992 827.682 270.42 825.722 270.42C823.762 270.42 822.178 271.22 820.969 272.821C819.76 274.422 819.123 276.643 819.058 279.485V291H815.187V267.578H818.519L818.96 272.086ZM869.115 288.403C872.349 288.403 874.195 286.982 874.652 284.14H878.621C878.262 286.492 877.216 288.321 875.485 289.628C873.786 290.902 871.663 291.539 869.115 291.539C865.979 291.539 863.431 290.428 861.471 288.207C859.511 285.953 858.531 282.964 858.531 279.24C858.531 275.516 859.511 272.543 861.471 270.322C863.464 268.101 866.093 266.99 869.36 266.99C872.659 266.99 875.109 268.264 876.71 270.812C878.343 273.36 878.915 276.463 878.425 280.122H862.402C862.402 282.539 862.99 284.532 864.166 286.1C865.342 287.635 866.992 288.403 869.115 288.403ZM871.957 270.665C871.206 270.273 870.291 270.077 869.213 270.077C867.22 270.077 865.636 270.763 864.46 272.135C863.317 273.474 862.647 275.157 862.451 277.182H874.946C874.946 273.915 873.95 271.743 871.957 270.665ZM895.803 270.861C892.111 270.861 890.2 273.768 890.07 279.583V291H886.199V267.529H890.07V272.037C891.246 268.77 893.32 267.137 896.293 267.137C897.24 267.137 898.138 267.284 898.988 267.578L898.792 271.351C897.812 271.024 896.815 270.861 895.803 270.861ZM912.995 288.403C916.229 288.403 918.074 286.982 918.532 284.14H922.501C922.141 286.492 921.096 288.321 919.365 289.628C917.666 290.902 915.543 291.539 912.995 291.539C909.859 291.539 907.311 290.428 905.351 288.207C903.391 285.953 902.411 282.964 902.411 279.24C902.411 275.516 903.391 272.543 905.351 270.322C907.343 268.101 909.973 266.99 913.24 266.99C916.539 266.99 918.989 268.264 920.59 270.812C922.223 273.36 922.795 276.463 922.305 280.122H906.282C906.282 282.539 906.87 284.532 908.046 286.1C909.222 287.635 910.871 288.403 912.995 288.403ZM915.837 270.665C915.085 270.273 914.171 270.077 913.093 270.077C911.1 270.077 909.516 270.763 908.34 272.135C907.196 273.474 906.527 275.157 906.331 277.182H918.826C918.826 273.915 917.829 271.743 915.837 270.665ZM930.128 257.631H933.999V291H930.128V257.631ZM939.157 297.811C940.758 299.052 942.44 299.673 944.204 299.673C945.511 299.673 946.638 299.02 947.585 297.713C948.271 296.766 948.892 295.328 949.447 293.401L950.133 291L940.529 267.578H944.841L951.946 286.247L957.483 267.578H961.403L952.632 295.655C951.881 298.04 950.884 299.869 949.643 301.143C948.434 302.417 946.883 303.054 944.988 303.054C943.126 303.054 941.182 302.482 939.157 301.339V297.811ZM1001.38 256.014C1000.93 257.909 1000.47 259.967 1000.01 262.188C999.556 264.377 999.196 266.32 998.935 268.019H994.28L993.937 267.48C994.394 265.749 995.015 263.854 995.799 261.796C996.583 259.705 997.383 257.778 998.2 256.014H1001.38ZM992.32 256.014C991.863 257.909 991.405 259.967 990.948 262.188C990.491 264.377 990.131 266.32 989.87 268.019H985.264L984.97 267.48C985.427 265.749 986.032 263.854 986.783 261.796C987.567 259.705 988.367 257.778 989.184 256.014H992.32ZM1007.92 290.265C1005.96 289.318 1004.98 287.864 1004.98 285.904C1004.98 284.891 1005.36 284.009 1006.11 283.258C1006.89 282.474 1007.85 281.951 1009 281.69C1007.23 280.122 1006.35 278.064 1006.35 275.516C1006.35 272.968 1007.25 270.91 1009.05 269.342C1010.88 267.774 1013.03 266.99 1015.52 266.99C1018 266.99 1020.1 267.578 1021.84 268.754C1022.06 267.023 1022.75 265.634 1023.89 264.589C1025.07 263.544 1026.61 263.021 1028.5 263.021L1028.16 266.843C1025.28 266.843 1023.78 268.052 1023.65 270.469C1024.79 271.874 1025.36 273.556 1025.36 275.516C1025.36 278.031 1024.45 280.106 1022.62 281.739C1020.82 283.34 1018.57 284.14 1015.86 284.14C1014 284.14 1012.35 283.764 1010.91 283.013C1010.26 283.144 1009.67 283.454 1009.15 283.944C1008.62 284.401 1008.36 285.038 1008.36 285.855C1008.36 287.586 1009.8 288.452 1012.67 288.452H1021.79C1023.98 288.452 1025.71 288.926 1026.98 289.873C1028.26 290.788 1028.89 292.078 1028.89 293.744C1028.89 296.227 1027.63 298.399 1025.12 300.261C1022.64 302.123 1019.48 303.054 1015.66 303.054C1011.84 303.054 1008.83 302.335 1006.65 300.898C1004.46 299.493 1003.36 297.713 1003.36 295.557C1003.36 294.152 1003.77 293.009 1004.59 292.127C1005.44 291.245 1006.55 290.624 1007.92 290.265ZM1007.19 295.41C1007.19 296.651 1007.85 297.713 1009.19 298.595C1010.57 299.51 1012.62 299.967 1015.37 299.967C1018.14 299.967 1020.45 299.363 1022.28 298.154C1024.14 296.978 1025.07 295.59 1025.07 293.989C1025.07 293.238 1024.79 292.584 1024.24 292.029C1023.71 291.506 1022.9 291.245 1021.79 291.245H1012.33C1010.66 291.31 1009.39 291.702 1008.51 292.421C1007.63 293.172 1007.19 294.169 1007.19 295.41ZM1021.59 275.516C1021.59 273.817 1021.08 272.445 1020.07 271.4C1019.06 270.322 1017.65 269.783 1015.86 269.783C1014.09 269.783 1012.71 270.322 1011.69 271.4C1010.68 272.445 1010.17 273.817 1010.17 275.516C1010.17 277.215 1010.68 278.619 1011.69 279.73C1012.74 280.808 1014.14 281.347 1015.91 281.347C1017.67 281.347 1019.06 280.792 1020.07 279.681C1021.08 278.57 1021.59 277.182 1021.59 275.516ZM1043.07 266.99C1046.34 266.99 1048.97 268.052 1050.96 270.175C1052.99 272.298 1054 275.336 1054 279.289C1054 283.209 1052.99 286.231 1050.96 288.354C1048.97 290.477 1046.34 291.539 1043.07 291.539C1039.81 291.539 1037.16 290.477 1035.14 288.354C1033.14 286.231 1032.15 283.209 1032.15 279.289C1032.15 275.336 1033.14 272.298 1035.14 270.175C1037.16 268.052 1039.81 266.99 1043.07 266.99ZM1050.08 279.289C1050.08 276.48 1049.49 274.291 1048.32 272.723C1047.14 271.122 1045.41 270.322 1043.12 270.322C1040.87 270.322 1039.14 271.122 1037.93 272.723C1036.72 274.291 1036.12 276.48 1036.12 279.289C1036.12 282.066 1036.69 284.254 1037.83 285.855C1038.97 287.423 1040.67 288.207 1042.93 288.207C1045.21 288.207 1046.98 287.423 1048.22 285.855C1049.46 284.254 1050.08 282.066 1050.08 279.289ZM1075.9 275.81C1075.9 273.687 1075.46 272.168 1074.58 271.253C1073.69 270.338 1072.4 269.881 1070.71 269.881C1069.04 269.881 1067.68 270.224 1066.64 270.91C1065.63 271.563 1065.12 272.609 1065.12 274.046H1060.86C1060.86 270.453 1062.78 268.231 1066.64 267.382C1067.81 267.121 1069.09 266.99 1070.46 266.99C1073.37 266.99 1075.64 267.725 1077.27 269.195C1078.9 270.665 1079.72 272.903 1079.72 275.908V291H1076.39L1076 287.08C1074.56 290.053 1071.96 291.539 1068.21 291.539C1065.69 291.539 1063.67 290.837 1062.13 289.432C1060.63 288.027 1059.88 286.28 1059.88 284.189C1059.88 282.098 1060.71 280.465 1062.38 279.289C1064.07 278.113 1066.18 277.525 1068.7 277.525C1071.21 277.525 1073.61 277.95 1075.9 278.799V275.81ZM1075.9 281.249C1073.58 280.596 1071.55 280.269 1069.82 280.269C1068.09 280.269 1066.69 280.579 1065.61 281.2C1064.53 281.821 1063.99 282.801 1063.99 284.14C1063.99 287.08 1065.66 288.55 1068.99 288.55C1070.88 288.55 1072.5 287.88 1073.84 286.541C1075.21 285.169 1075.9 283.405 1075.9 281.249ZM1088.81 257.631H1092.69V291H1088.81V257.631ZM1101.32 273.311C1101.32 271.384 1102.14 269.848 1103.77 268.705C1105.44 267.562 1107.68 266.99 1110.49 266.99C1113.29 266.99 1115.48 267.578 1117.05 268.754C1118.65 269.93 1119.49 271.416 1119.55 273.213H1115.78C1115.48 271.09 1113.69 270.028 1110.39 270.028C1108.79 270.028 1107.55 270.387 1106.66 271.106C1105.81 271.825 1105.39 272.609 1105.39 273.458C1105.39 274.275 1105.72 274.977 1106.37 275.565C1107.02 276.12 1108.07 276.61 1109.51 277.035L1114.21 278.603C1116.2 279.224 1117.72 280.024 1118.77 281.004C1119.84 281.951 1120.38 283.274 1120.38 284.973C1120.38 286.639 1119.52 288.158 1117.79 289.53C1116.06 290.869 1113.64 291.539 1110.53 291.539C1107.43 291.539 1105.01 290.853 1103.28 289.481C1101.55 288.076 1100.64 286.28 1100.54 284.091H1104.26C1104.33 285.561 1104.92 286.672 1106.03 287.423C1107.17 288.142 1108.59 288.501 1110.29 288.501C1111.99 288.501 1113.39 288.142 1114.5 287.423C1115.61 286.704 1116.17 285.855 1116.17 284.875C1116.17 283.862 1115.84 283.095 1115.19 282.572C1114.54 282.049 1113.47 281.592 1112 281.2L1107.45 279.681C1103.36 278.472 1101.32 276.349 1101.32 273.311ZM1140.39 256.553C1139.97 258.284 1139.35 260.195 1138.53 262.286C1137.75 264.377 1136.96 266.288 1136.18 268.019H1132.95C1133.27 266.778 1133.58 265.455 1133.88 264.05C1134.2 262.613 1134.5 261.208 1134.76 259.836C1135.05 258.431 1135.28 257.157 1135.44 256.014H1140.05L1140.39 256.553ZM1131.33 256.553C1130.9 258.284 1130.28 260.195 1129.47 262.286C1128.68 264.377 1127.9 266.288 1127.11 268.019H1123.98C1124.31 266.778 1124.62 265.455 1124.91 264.05C1125.2 262.613 1125.48 261.208 1125.74 259.836C1126 258.431 1126.22 257.157 1126.38 256.014H1130.99L1131.33 256.553ZM116.82 328.057C118.388 325.346 120.675 323.99 123.68 323.99C126.685 323.99 129.184 325.117 131.177 327.371C133.17 329.592 134.166 332.549 134.166 336.24C134.166 339.899 133.153 342.871 131.128 345.158C129.103 347.412 126.636 348.539 123.729 348.539C122.161 348.539 120.74 348.147 119.466 347.363C118.225 346.579 117.245 345.419 116.526 343.884L115.644 348H112.949V314.631H116.82V328.057ZM123.435 327.42C121.573 327.42 120.021 328.024 118.78 329.233C117.539 330.409 116.885 332.059 116.82 334.182V338.004C116.82 340.16 117.457 341.891 118.731 343.198C120.038 344.472 121.606 345.109 123.435 345.109C125.264 345.109 126.849 344.309 128.188 342.708C129.527 341.075 130.197 338.919 130.197 336.24C130.197 333.561 129.527 331.422 128.188 329.821C126.881 328.22 125.297 327.42 123.435 327.42ZM157.489 343.345C155.889 346.742 153.292 348.441 149.698 348.441C147.052 348.441 144.913 347.706 143.279 346.236C141.679 344.766 140.878 342.496 140.878 339.425V324.529H144.749V339.131C144.749 343.084 146.579 345.06 150.237 345.06C152.361 345.06 154.076 344.243 155.382 342.61C156.722 340.977 157.424 338.886 157.489 336.338V324.529H161.36V348H157.489V343.345ZM183.53 347.314C180.721 348.621 178.156 348.898 175.837 348.147C174.171 347.624 172.995 346.53 172.309 344.864C171.95 344.047 171.77 343.067 171.77 341.924V327.518H167.997V324.578H171.77V318.061H175.592V324.578H182.942V327.518H175.592V341.875C175.592 344.26 176.703 345.452 178.924 345.452C180.133 345.452 181.488 345.158 182.991 344.57L183.53 347.314ZM226.667 332.81C226.667 330.687 226.226 329.168 225.344 328.253C224.462 327.338 223.172 326.881 221.473 326.881C219.807 326.881 218.451 327.224 217.406 327.91C216.393 328.563 215.887 329.609 215.887 331.046H211.624C211.624 327.453 213.551 325.231 217.406 324.382C218.582 324.121 219.856 323.99 221.228 323.99C224.135 323.99 226.406 324.725 228.039 326.195C229.672 327.665 230.489 329.903 230.489 332.908V348H227.157L226.765 344.08C225.328 347.053 222.731 348.539 218.974 348.539C216.459 348.539 214.433 347.837 212.898 346.432C211.395 345.027 210.644 343.28 210.644 341.189C210.644 339.098 211.477 337.465 213.143 336.289C214.842 335.113 216.949 334.525 219.464 334.525C221.979 334.525 224.38 334.95 226.667 335.799V332.81ZM226.667 338.249C224.348 337.596 222.322 337.269 220.591 337.269C218.86 337.269 217.455 337.579 216.377 338.2C215.299 338.821 214.76 339.801 214.76 341.14C214.76 344.08 216.426 345.55 219.758 345.55C221.653 345.55 223.27 344.88 224.609 343.541C225.981 342.169 226.667 340.405 226.667 338.249ZM249.137 327.861C245.446 327.861 243.535 330.768 243.404 336.583V348H239.533V324.529H243.404V329.037C244.58 325.77 246.654 324.137 249.627 324.137C250.574 324.137 251.473 324.284 252.322 324.578L252.126 328.351C251.146 328.024 250.15 327.861 249.137 327.861ZM266.329 345.403C269.563 345.403 271.409 343.982 271.866 341.14H275.835C275.476 343.492 274.43 345.321 272.699 346.628C271 347.902 268.877 348.539 266.329 348.539C263.193 348.539 260.645 347.428 258.685 345.207C256.725 342.953 255.745 339.964 255.745 336.24C255.745 332.516 256.725 329.543 258.685 327.322C260.678 325.101 263.307 323.99 266.574 323.99C269.873 323.99 272.323 325.264 273.924 327.812C275.557 330.36 276.129 333.463 275.639 337.122H259.616C259.616 339.539 260.204 341.532 261.38 343.1C262.556 344.635 264.206 345.403 266.329 345.403ZM269.171 327.665C268.42 327.273 267.505 327.077 266.427 327.077C264.434 327.077 262.85 327.763 261.674 329.135C260.531 330.474 259.861 332.157 259.665 334.182H272.16C272.16 330.915 271.164 328.743 269.171 327.665ZM320.426 332.81C320.426 330.687 319.985 329.168 319.103 328.253C318.221 327.338 316.931 326.881 315.232 326.881C313.566 326.881 312.21 327.224 311.165 327.91C310.152 328.563 309.646 329.609 309.646 331.046H305.383C305.383 327.453 307.31 325.231 311.165 324.382C312.341 324.121 313.615 323.99 314.987 323.99C317.894 323.99 320.165 324.725 321.798 326.195C323.431 327.665 324.248 329.903 324.248 332.908V348H320.916L320.524 344.08C319.087 347.053 316.49 348.539 312.733 348.539C310.218 348.539 308.192 347.837 306.657 346.432C305.154 345.027 304.403 343.28 304.403 341.189C304.403 339.098 305.236 337.465 306.902 336.289C308.601 335.113 310.708 334.525 313.223 334.525C315.738 334.525 318.139 334.95 320.426 335.799V332.81ZM320.426 338.249C318.107 337.596 316.081 337.269 314.35 337.269C312.619 337.269 311.214 337.579 310.136 338.2C309.058 338.821 308.519 339.801 308.519 341.14C308.519 344.08 310.185 345.55 313.517 345.55C315.412 345.55 317.029 344.88 318.368 343.541C319.74 342.169 320.426 340.405 320.426 338.249ZM341.132 323.99C343.909 323.99 346.114 324.709 347.747 326.146C349.38 327.551 350.442 329.315 350.932 331.438L347.012 331.781C346.587 330.409 345.901 329.347 344.954 328.596C344.007 327.812 342.961 327.42 341.818 327.42C339.727 327.42 338.029 328.204 336.722 329.772C335.448 331.34 334.811 333.48 334.811 336.191C334.811 338.87 335.432 341.026 336.673 342.659C337.947 344.292 339.515 345.109 341.377 345.109C343.272 345.109 344.676 344.684 345.591 343.835C346.538 342.953 347.012 341.712 347.012 340.111H350.981C350.981 342.626 350.099 344.668 348.335 346.236C346.604 347.771 344.333 348.539 341.524 348.539C338.551 348.539 336.02 347.412 333.929 345.158C331.871 342.904 330.842 339.915 330.842 336.191C330.842 332.434 331.871 329.462 333.929 327.273C335.987 325.084 338.388 323.99 341.132 323.99ZM370.809 347.314C367.999 348.621 365.435 348.898 363.116 348.147C361.45 347.624 360.274 346.53 359.588 344.864C359.228 344.047 359.049 343.067 359.049 341.924V327.518H355.276V324.578H359.049V318.061H362.871V324.578H370.221V327.518H362.871V341.875C362.871 344.26 363.981 345.452 366.203 345.452C367.411 345.452 368.767 345.158 370.27 344.57L370.809 347.314ZM392.907 343.345C391.306 346.742 388.709 348.441 385.116 348.441C382.47 348.441 380.33 347.706 378.697 346.236C377.096 344.766 376.296 342.496 376.296 339.425V324.529H380.167V339.131C380.167 343.084 381.996 345.06 385.655 345.06C387.778 345.06 389.493 344.243 390.8 342.61C392.139 340.977 392.841 338.886 392.907 336.338V324.529H396.778V348H392.907V343.345ZM421.201 332.81C421.201 330.687 420.76 329.168 419.878 328.253C418.996 327.338 417.706 326.881 416.007 326.881C414.341 326.881 412.986 327.224 411.94 327.91C410.928 328.563 410.421 329.609 410.421 331.046H406.158C406.158 327.453 408.086 325.231 411.94 324.382C413.116 324.121 414.39 323.99 415.762 323.99C418.67 323.99 420.94 324.725 422.573 326.195C424.207 327.665 425.023 329.903 425.023 332.908V348H421.691L421.299 344.08C419.862 347.053 417.265 348.539 413.508 348.539C410.993 348.539 408.968 347.837 407.432 346.432C405.93 345.027 405.178 343.28 405.178 341.189C405.178 339.098 406.011 337.465 407.677 336.289C409.376 335.113 411.483 334.525 413.998 334.525C416.514 334.525 418.915 334.95 421.201 335.799V332.81ZM421.201 338.249C418.882 337.596 416.857 337.269 415.125 337.269C413.394 337.269 411.989 337.579 410.911 338.2C409.833 338.821 409.294 339.801 409.294 341.14C409.294 344.08 410.96 345.55 414.292 345.55C416.187 345.55 417.804 344.88 419.143 343.541C420.515 342.169 421.201 340.405 421.201 338.249ZM434.116 314.631H437.987V348H434.116V314.631ZM479.865 327.861C476.173 327.861 474.262 330.768 474.132 336.583V348H470.261V324.529H474.132V329.037C475.308 325.77 477.382 324.137 480.355 324.137C481.302 324.137 482.2 324.284 483.05 324.578L482.854 328.351C481.874 328.024 480.877 327.861 479.865 327.861ZM497.057 345.403C500.291 345.403 502.137 343.982 502.594 341.14H506.563C506.204 343.492 505.158 345.321 503.427 346.628C501.728 347.902 499.605 348.539 497.057 348.539C493.921 348.539 491.373 347.428 489.413 345.207C487.453 342.953 486.473 339.964 486.473 336.24C486.473 332.516 487.453 329.543 489.413 327.322C491.406 325.101 494.035 323.99 497.302 323.99C500.601 323.99 503.051 325.264 504.652 327.812C506.285 330.36 506.857 333.463 506.367 337.122H490.344C490.344 339.539 490.932 341.532 492.108 343.1C493.284 344.635 494.934 345.403 497.057 345.403ZM499.899 327.665C499.148 327.273 498.233 327.077 497.155 327.077C495.162 327.077 493.578 327.763 492.402 329.135C491.259 330.474 490.589 332.157 490.393 334.182H502.888C502.888 330.915 501.892 328.743 499.899 327.665ZM528.694 332.81C528.694 330.687 528.253 329.168 527.371 328.253C526.489 327.338 525.198 326.881 523.5 326.881C521.834 326.881 520.478 327.224 519.433 327.91C518.42 328.563 517.914 329.609 517.914 331.046H513.651C513.651 327.453 515.578 325.231 519.433 324.382C520.609 324.121 521.883 323.99 523.255 323.99C526.162 323.99 528.432 324.725 530.066 326.195C531.699 327.665 532.516 329.903 532.516 332.908V348H529.184L528.792 344.08C527.354 347.053 524.757 348.539 521.001 348.539C518.485 348.539 516.46 347.837 514.925 346.432C513.422 345.027 512.671 343.28 512.671 341.189C512.671 339.098 513.504 337.465 515.17 336.289C516.868 335.113 518.975 334.525 521.491 334.525C524.006 334.525 526.407 334.95 528.694 335.799V332.81ZM528.694 338.249C526.374 337.596 524.349 337.269 522.618 337.269C520.886 337.269 519.482 337.579 518.404 338.2C517.326 338.821 516.787 339.801 516.787 341.14C516.787 344.08 518.453 345.55 521.785 345.55C523.679 345.55 525.296 344.88 526.636 343.541C528.008 342.169 528.694 340.405 528.694 338.249ZM541.609 314.631H545.48V348H541.609V314.631ZM577.753 324.578L583.437 343.247L589.023 325.705H592.257L597.794 343.443L603.527 324.578H607.349L599.705 348H595.932L590.542 331.585L585.25 348H581.526L573.735 324.578H577.753ZM621.736 323.99C625.003 323.99 627.632 325.052 629.625 327.175C631.65 329.298 632.663 332.336 632.663 336.289C632.663 340.209 631.65 343.231 629.625 345.354C627.632 347.477 625.003 348.539 621.736 348.539C618.469 348.539 615.823 347.477 613.798 345.354C611.805 343.231 610.809 340.209 610.809 336.289C610.809 332.336 611.805 329.298 613.798 327.175C615.823 325.052 618.469 323.99 621.736 323.99ZM628.743 336.289C628.743 333.48 628.155 331.291 626.979 329.723C625.803 328.122 624.072 327.322 621.785 327.322C619.531 327.322 617.8 328.122 616.591 329.723C615.382 331.291 614.778 333.48 614.778 336.289C614.778 339.066 615.35 341.254 616.493 342.855C617.636 344.423 619.335 345.207 621.589 345.207C623.876 345.207 625.64 344.423 626.881 342.855C628.122 341.254 628.743 339.066 628.743 336.289ZM649.612 327.861C645.921 327.861 644.01 330.768 643.879 336.583V348H640.008V324.529H643.879V329.037C645.055 325.77 647.129 324.137 650.102 324.137C651.049 324.137 651.948 324.284 652.797 324.578L652.601 328.351C651.621 328.024 650.625 327.861 649.612 327.861ZM658.719 314.631H662.59V348H658.719V314.631ZM687.789 328.057V314.631H691.611V348H688.475L687.985 344.08C687.234 345.55 686.238 346.661 684.996 347.412C683.755 348.163 682.399 348.539 680.929 348.539C677.957 348.539 675.458 347.396 673.432 345.109C671.44 342.822 670.443 339.85 670.443 336.191C670.443 332.5 671.423 329.543 673.383 327.322C675.376 325.101 677.875 323.99 680.88 323.99C683.918 323.99 686.221 325.346 687.789 328.057ZM681.125 327.42C679.231 327.42 677.63 328.22 676.323 329.821C675.049 331.422 674.412 333.561 674.412 336.24C674.412 338.919 675.066 341.075 676.372 342.708C677.679 344.309 679.247 345.109 681.076 345.109C682.906 345.109 684.457 344.505 685.731 343.296C687.038 342.055 687.724 340.405 687.789 338.347V334.525C687.789 332.336 687.152 330.605 685.878 329.331C684.604 328.057 683.02 327.42 681.125 327.42ZM731.797 323.99C734.574 323.99 736.779 324.709 738.412 326.146C740.046 327.551 741.107 329.315 741.597 331.438L737.677 331.781C737.253 330.409 736.567 329.347 735.619 328.596C734.672 327.812 733.627 327.42 732.483 327.42C730.393 327.42 728.694 328.204 727.387 329.772C726.113 331.34 725.476 333.48 725.476 336.191C725.476 338.87 726.097 341.026 727.338 342.659C728.612 344.292 730.18 345.109 732.042 345.109C733.937 345.109 735.342 344.684 736.256 343.835C737.204 342.953 737.677 341.712 737.677 340.111H741.646C741.646 342.626 740.764 344.668 739 346.236C737.269 347.771 734.999 348.539 732.189 348.539C729.217 348.539 726.685 347.412 724.594 345.158C722.536 342.904 721.507 339.915 721.507 336.191C721.507 332.434 722.536 329.462 724.594 327.273C726.652 325.084 729.053 323.99 731.797 323.99ZM763.728 332.81C763.728 330.687 763.287 329.168 762.405 328.253C761.523 327.338 760.233 326.881 758.534 326.881C756.868 326.881 755.512 327.224 754.467 327.91C753.454 328.563 752.948 329.609 752.948 331.046H748.685C748.685 327.453 750.612 325.231 754.467 324.382C755.643 324.121 756.917 323.99 758.289 323.99C761.196 323.99 763.467 324.725 765.1 326.195C766.733 327.665 767.55 329.903 767.55 332.908V348H764.218L763.826 344.08C762.389 347.053 759.792 348.539 756.035 348.539C753.52 348.539 751.494 347.837 749.959 346.432C748.456 345.027 747.705 343.28 747.705 341.189C747.705 339.098 748.538 337.465 750.204 336.289C751.903 335.113 754.01 334.525 756.525 334.525C759.04 334.525 761.441 334.95 763.728 335.799V332.81ZM763.728 338.249C761.409 337.596 759.383 337.269 757.652 337.269C755.921 337.269 754.516 337.579 753.438 338.2C752.36 338.821 751.821 339.801 751.821 341.14C751.821 344.08 753.487 345.55 756.819 345.55C758.714 345.55 760.331 344.88 761.67 343.541C763.042 342.169 763.728 340.405 763.728 338.249ZM780.367 329.086C781.902 325.689 784.532 323.99 788.256 323.99C791.033 323.99 793.189 324.905 794.724 326.734C796.292 328.563 797.076 331.062 797.076 334.231V348H793.254V334.231C793.254 331.977 792.715 330.278 791.637 329.135C790.592 327.992 789.089 327.42 787.129 327.42C785.169 327.42 783.585 328.22 782.376 329.821C781.167 331.422 780.53 333.643 780.465 336.485V348H776.594V324.578H779.926L780.367 329.086ZM809.891 329.086C811.427 325.689 814.056 323.99 817.78 323.99C820.557 323.99 822.713 324.905 824.248 326.734C825.816 328.563 826.6 331.062 826.6 334.231V348H822.778V334.231C822.778 331.977 822.239 330.278 821.161 329.135C820.116 327.992 818.613 327.42 816.653 327.42C814.693 327.42 813.109 328.22 811.9 329.821C810.692 331.422 810.055 333.643 809.989 336.485V348H806.118V324.578H809.45L809.891 329.086ZM844.12 323.99C847.387 323.99 850.016 325.052 852.009 327.175C854.034 329.298 855.047 332.336 855.047 336.289C855.047 340.209 854.034 343.231 852.009 345.354C850.016 347.477 847.387 348.539 844.12 348.539C840.853 348.539 838.207 347.477 836.182 345.354C834.189 343.231 833.193 340.209 833.193 336.289C833.193 332.336 834.189 329.298 836.182 327.175C838.207 325.052 840.853 323.99 844.12 323.99ZM851.127 336.289C851.127 333.48 850.539 331.291 849.363 329.723C848.187 328.122 846.456 327.322 844.169 327.322C841.915 327.322 840.184 328.122 838.975 329.723C837.766 331.291 837.162 333.48 837.162 336.289C837.162 339.066 837.734 341.254 838.877 342.855C840.02 344.423 841.719 345.207 843.973 345.207C846.26 345.207 848.024 344.423 849.265 342.855C850.506 341.254 851.127 339.066 851.127 336.289ZM874.691 347.314C871.882 348.621 869.317 348.898 866.998 348.147C865.332 347.624 864.156 346.53 863.47 344.864C863.111 344.047 862.931 343.067 862.931 341.924V327.518H859.158V324.578H862.931V318.061H866.753V324.578H874.103V327.518H866.753V341.875C866.753 344.26 867.864 345.452 870.085 345.452C871.294 345.452 872.649 345.158 874.152 344.57L874.691 347.314ZM907.195 328.057C908.763 325.346 911.05 323.99 914.055 323.99C917.06 323.99 919.559 325.117 921.552 327.371C923.545 329.592 924.541 332.549 924.541 336.24C924.541 339.899 923.528 342.871 921.503 345.158C919.478 347.412 917.011 348.539 914.104 348.539C912.536 348.539 911.115 348.147 909.841 347.363C908.6 346.579 907.62 345.419 906.901 343.884L906.019 348H903.324V314.631H907.195V328.057ZM913.81 327.42C911.948 327.42 910.396 328.024 909.155 329.233C907.914 330.409 907.26 332.059 907.195 334.182V338.004C907.195 340.16 907.832 341.891 909.106 343.198C910.413 344.472 911.981 345.109 913.81 345.109C915.639 345.109 917.224 344.309 918.563 342.708C919.902 341.075 920.572 338.919 920.572 336.24C920.572 333.561 919.902 331.422 918.563 329.821C917.256 328.22 915.672 327.42 913.81 327.42ZM940.024 345.403C943.258 345.403 945.104 343.982 945.561 341.14H949.53C949.171 343.492 948.125 345.321 946.394 346.628C944.695 347.902 942.572 348.539 940.024 348.539C936.888 348.539 934.34 347.428 932.38 345.207C930.42 342.953 929.44 339.964 929.44 336.24C929.44 332.516 930.42 329.543 932.38 327.322C934.373 325.101 937.002 323.99 940.269 323.99C943.568 323.99 946.018 325.264 947.619 327.812C949.252 330.36 949.824 333.463 949.334 337.122H933.311C933.311 339.539 933.899 341.532 935.075 343.1C936.251 344.635 937.901 345.403 940.024 345.403ZM942.866 327.665C942.115 327.273 941.2 327.077 940.122 327.077C938.129 327.077 936.545 327.763 935.369 329.135C934.226 330.474 933.556 332.157 933.36 334.182H945.855C945.855 330.915 944.859 328.743 942.866 327.665ZM983.341 329.086C984.876 325.689 987.506 323.99 991.23 323.99C993.255 323.99 994.954 324.496 996.326 325.509C997.698 326.489 998.694 327.861 999.315 329.625C1000.78 325.868 1003.51 323.99 1007.5 323.99C1010.31 323.99 1012.48 324.905 1014.01 326.734C1015.55 328.563 1016.32 331.062 1016.32 334.231V348H1012.5V334.231C1012.5 331.977 1011.96 330.278 1010.88 329.135C1009.83 327.992 1008.31 327.42 1006.32 327.42C1004.33 327.42 1002.78 328.237 1001.67 329.87C1000.59 331.503 1000.05 333.757 1000.05 336.632V348H996.228V334.231C996.228 331.977 995.689 330.278 994.611 329.135C993.566 327.992 992.063 327.42 990.103 327.42C988.143 327.42 986.559 328.22 985.35 329.821C984.141 331.422 983.504 333.643 983.439 336.485V348H979.568V324.578H982.9L983.341 329.086ZM1025.66 324.529H1029.53V348H1025.66V324.529ZM1027.57 319.041C1026.78 319.041 1026.16 318.829 1025.7 318.404C1025.28 317.947 1025.07 317.359 1025.07 316.64C1025.07 315.889 1025.28 315.301 1025.7 314.876C1026.16 314.419 1026.78 314.19 1027.57 314.19C1028.35 314.19 1028.97 314.419 1029.43 314.876C1029.92 315.301 1030.16 315.889 1030.16 316.64C1030.16 317.359 1029.92 317.947 1029.43 318.404C1028.97 318.829 1028.35 319.041 1027.57 319.041ZM1038.83 330.311C1038.83 328.384 1039.65 326.848 1041.28 325.705C1042.94 324.562 1045.18 323.99 1047.99 323.99C1050.8 323.99 1052.99 324.578 1054.56 325.754C1056.16 326.93 1056.99 328.416 1057.06 330.213H1053.28C1052.99 328.09 1051.19 327.028 1047.89 327.028C1046.29 327.028 1045.05 327.387 1044.17 328.106C1043.32 328.825 1042.9 329.609 1042.9 330.458C1042.9 331.275 1043.22 331.977 1043.88 332.565C1044.53 333.12 1045.57 333.61 1047.01 334.035L1051.72 335.603C1053.71 336.224 1055.23 337.024 1056.27 338.004C1057.35 338.951 1057.89 340.274 1057.89 341.973C1057.89 343.639 1057.02 345.158 1055.29 346.53C1053.56 347.869 1051.14 348.539 1048.04 348.539C1044.94 348.539 1042.52 347.853 1040.79 346.481C1039.06 345.076 1038.14 343.28 1038.04 341.091H1041.77C1041.83 342.561 1042.42 343.672 1043.53 344.423C1044.68 345.142 1046.1 345.501 1047.8 345.501C1049.49 345.501 1050.9 345.142 1052.01 344.423C1053.12 343.704 1053.68 342.855 1053.68 341.875C1053.68 340.862 1053.35 340.095 1052.7 339.572C1052.04 339.049 1050.98 338.592 1049.51 338.2L1044.95 336.681C1040.87 335.472 1038.83 333.349 1038.83 330.311ZM1064.62 330.311C1064.62 328.384 1065.44 326.848 1067.07 325.705C1068.74 324.562 1070.97 323.99 1073.78 323.99C1076.59 323.99 1078.78 324.578 1080.35 325.754C1081.95 326.93 1082.78 328.416 1082.85 330.213H1079.08C1078.78 328.09 1076.98 327.028 1073.69 327.028C1072.08 327.028 1070.84 327.387 1069.96 328.106C1069.11 328.825 1068.69 329.609 1068.69 330.458C1068.69 331.275 1069.01 331.977 1069.67 332.565C1070.32 333.12 1071.37 333.61 1072.8 334.035L1077.51 335.603C1079.5 336.224 1081.02 337.024 1082.06 338.004C1083.14 338.951 1083.68 340.274 1083.68 341.973C1083.68 343.639 1082.82 345.158 1081.08 346.53C1079.35 347.869 1076.94 348.539 1073.83 348.539C1070.73 348.539 1068.31 347.853 1066.58 346.481C1064.85 345.076 1063.93 343.28 1063.84 341.091H1067.56C1067.63 342.561 1068.21 343.672 1069.32 344.423C1070.47 345.142 1071.89 345.501 1073.59 345.501C1075.29 345.501 1076.69 345.142 1077.8 344.423C1078.91 343.704 1079.47 342.855 1079.47 341.875C1079.47 340.862 1079.14 340.095 1078.49 339.572C1077.83 339.049 1076.77 338.592 1075.3 338.2L1070.75 336.681C1066.66 335.472 1064.62 333.349 1064.62 330.311ZM1099.72 345.403C1102.96 345.403 1104.8 343.982 1105.26 341.14H1109.23C1108.87 343.492 1107.82 345.321 1106.09 346.628C1104.39 347.902 1102.27 348.539 1099.72 348.539C1096.59 348.539 1094.04 347.428 1092.08 345.207C1090.12 342.953 1089.14 339.964 1089.14 336.24C1089.14 332.516 1090.12 329.543 1092.08 327.322C1094.07 325.101 1096.7 323.99 1099.97 323.99C1103.27 323.99 1105.72 325.264 1107.32 327.812C1108.95 330.36 1109.52 333.463 1109.03 337.122H1093.01C1093.01 339.539 1093.6 341.532 1094.77 343.1C1095.95 344.635 1097.6 345.403 1099.72 345.403ZM1102.56 327.665C1101.81 327.273 1100.9 327.077 1099.82 327.077C1097.83 327.077 1096.24 327.763 1095.07 329.135C1093.92 330.474 1093.25 332.157 1093.06 334.182H1105.55C1105.55 330.915 1104.56 328.743 1102.56 327.665ZM1132.19 328.057V314.631H1136.01V348H1132.88L1132.39 344.08C1131.64 345.55 1130.64 346.661 1129.4 347.412C1128.16 348.163 1126.8 348.539 1125.33 348.539C1122.36 348.539 1119.86 347.396 1117.84 345.109C1115.84 342.822 1114.85 339.85 1114.85 336.191C1114.85 332.5 1115.83 329.543 1117.79 327.322C1119.78 325.101 1122.28 323.99 1125.28 323.99C1128.32 323.99 1130.62 325.346 1132.19 328.057ZM1125.53 327.42C1123.63 327.42 1122.03 328.22 1120.73 329.821C1119.45 331.422 1118.82 333.561 1118.82 336.24C1118.82 338.919 1119.47 341.075 1120.78 342.708C1122.08 344.309 1123.65 345.109 1125.48 345.109C1127.31 345.109 1128.86 344.505 1130.13 343.296C1131.44 342.055 1132.13 340.405 1132.19 338.347V334.525C1132.19 332.336 1131.56 330.605 1130.28 329.331C1129.01 328.057 1127.42 327.42 1125.53 327.42ZM128.286 385.057V371.631H132.108V405H128.972L128.482 401.08C127.731 402.55 126.734 403.661 125.493 404.412C124.252 405.163 122.896 405.539 121.426 405.539C118.453 405.539 115.954 404.396 113.929 402.109C111.936 399.822 110.94 396.85 110.94 393.191C110.94 389.5 111.92 386.543 113.88 384.322C115.873 382.101 118.372 380.99 121.377 380.99C124.415 380.99 126.718 382.346 128.286 385.057ZM121.622 384.42C119.727 384.42 118.127 385.22 116.82 386.821C115.546 388.422 114.909 390.561 114.909 393.24C114.909 395.919 115.562 398.075 116.869 399.708C118.176 401.309 119.744 402.109 121.573 402.109C123.402 402.109 124.954 401.505 126.228 400.296C127.535 399.055 128.221 397.405 128.286 395.347V391.525C128.286 389.336 127.649 387.605 126.375 386.331C125.101 385.057 123.517 384.42 121.622 384.42ZM150.128 402.403C153.362 402.403 155.207 400.982 155.665 398.14H159.634C159.274 400.492 158.229 402.321 156.498 403.628C154.799 404.902 152.676 405.539 150.128 405.539C146.992 405.539 144.444 404.428 142.484 402.207C140.524 399.953 139.544 396.964 139.544 393.24C139.544 389.516 140.524 386.543 142.484 384.322C144.476 382.101 147.106 380.99 150.373 380.99C153.672 380.99 156.122 382.264 157.723 384.812C159.356 387.36 159.928 390.463 159.438 394.122H143.415C143.415 396.539 144.003 398.532 145.179 400.1C146.355 401.635 148.004 402.403 150.128 402.403ZM152.97 384.665C152.218 384.273 151.304 384.077 150.226 384.077C148.233 384.077 146.649 384.763 145.473 386.135C144.329 387.474 143.66 389.157 143.464 391.182H155.959C155.959 387.915 154.962 385.743 152.97 384.665ZM181.765 389.81C181.765 387.687 181.324 386.168 180.442 385.253C179.56 384.338 178.269 383.881 176.571 383.881C174.905 383.881 173.549 384.224 172.504 384.91C171.491 385.563 170.985 386.609 170.985 388.046H166.722C166.722 384.453 168.649 382.231 172.504 381.382C173.68 381.121 174.954 380.99 176.326 380.99C179.233 380.99 181.503 381.725 183.137 383.195C184.77 384.665 185.587 386.903 185.587 389.908V405H182.255L181.863 401.08C180.425 404.053 177.828 405.539 174.072 405.539C171.556 405.539 169.531 404.837 167.996 403.432C166.493 402.027 165.742 400.28 165.742 398.189C165.742 396.098 166.575 394.465 168.241 393.289C169.939 392.113 172.046 391.525 174.562 391.525C177.077 391.525 179.478 391.95 181.765 392.799V389.81ZM181.765 395.249C179.445 394.596 177.42 394.269 175.689 394.269C173.957 394.269 172.553 394.579 171.475 395.2C170.397 395.821 169.858 396.801 169.858 398.14C169.858 401.08 171.524 402.55 174.856 402.55C176.75 402.55 178.367 401.88 179.707 400.541C181.079 399.169 181.765 397.405 181.765 395.249ZM210.016 385.057V371.631H213.838V405H210.702L210.212 401.08C209.461 402.55 208.465 403.661 207.223 404.412C205.982 405.163 204.626 405.539 203.156 405.539C200.184 405.539 197.685 404.396 195.659 402.109C193.667 399.822 192.67 396.85 192.67 393.191C192.67 389.5 193.65 386.543 195.61 384.322C197.603 382.101 200.102 380.99 203.107 380.99C206.145 380.99 208.448 382.346 210.016 385.057ZM203.352 384.42C201.458 384.42 199.857 385.22 198.55 386.821C197.276 388.422 196.639 390.561 196.639 393.24C196.639 395.919 197.293 398.075 198.599 399.708C199.906 401.309 201.474 402.109 203.303 402.109C205.133 402.109 206.684 401.505 207.958 400.296C209.265 399.055 209.951 397.405 210.016 395.347V391.525C210.016 389.336 209.379 387.605 208.105 386.331C206.831 385.057 205.247 384.42 203.352 384.42ZM223.773 371.631H227.644V405H223.773V371.631ZM237.752 381.529H241.623V405H237.752V381.529ZM239.663 376.041C238.879 376.041 238.258 375.829 237.801 375.404C237.376 374.947 237.164 374.359 237.164 373.64C237.164 372.889 237.376 372.301 237.801 371.876C238.258 371.419 238.879 371.19 239.663 371.19C240.447 371.19 241.067 371.419 241.525 371.876C242.015 372.301 242.26 372.889 242.26 373.64C242.26 374.359 242.015 374.947 241.525 375.404C241.067 375.829 240.447 376.041 239.663 376.041ZM255.873 386.086C257.409 382.689 260.038 380.99 263.762 380.99C266.539 380.99 268.695 381.905 270.23 383.734C271.798 385.563 272.582 388.062 272.582 391.231V405H268.76V391.231C268.76 388.977 268.221 387.278 267.143 386.135C266.098 384.992 264.595 384.42 262.635 384.42C260.675 384.42 259.091 385.22 257.882 386.821C256.674 388.422 256.037 390.643 255.971 393.485V405H252.1V381.578H255.432L255.873 386.086ZM289.759 402.403C292.993 402.403 294.838 400.982 295.296 398.14H299.265C298.905 400.492 297.86 402.321 296.129 403.628C294.43 404.902 292.307 405.539 289.759 405.539C286.623 405.539 284.075 404.428 282.115 402.207C280.155 399.953 279.175 396.964 279.175 393.24C279.175 389.516 280.155 386.543 282.115 384.322C284.107 382.101 286.737 380.99 290.004 380.99C293.303 380.99 295.753 382.264 297.354 384.812C298.987 387.36 299.559 390.463 299.069 394.122H283.046C283.046 396.539 283.634 398.532 284.81 400.1C285.986 401.635 287.635 402.403 289.759 402.403ZM292.601 384.665C291.849 384.273 290.935 384.077 289.857 384.077C287.864 384.077 286.28 384.763 285.104 386.135C283.96 387.474 283.291 389.157 283.095 391.182H295.59C295.59 387.915 294.593 385.743 292.601 384.665ZM305.666 387.311C305.666 385.384 306.483 383.848 308.116 382.705C309.782 381.562 312.02 380.99 314.829 380.99C317.639 380.99 319.827 381.578 321.395 382.754C322.996 383.93 323.829 385.416 323.894 387.213H320.121C319.827 385.09 318.031 384.028 314.731 384.028C313.131 384.028 311.889 384.387 311.007 385.106C310.158 385.825 309.733 386.609 309.733 387.458C309.733 388.275 310.06 388.977 310.713 389.565C311.367 390.12 312.412 390.61 313.849 391.035L318.553 392.603C320.546 393.224 322.065 394.024 323.11 395.004C324.188 395.951 324.727 397.274 324.727 398.973C324.727 400.639 323.862 402.158 322.13 403.53C320.399 404.869 317.982 405.539 314.878 405.539C311.775 405.539 309.358 404.853 307.626 403.481C305.895 402.076 304.98 400.28 304.882 398.091H308.606C308.672 399.561 309.26 400.672 310.37 401.423C311.514 402.142 312.935 402.501 314.633 402.501C316.332 402.501 317.737 402.142 318.847 401.423C319.958 400.704 320.513 399.855 320.513 398.875C320.513 397.862 320.187 397.095 319.533 396.572C318.88 396.049 317.818 395.592 316.348 395.2L311.791 393.681C307.708 392.472 305.666 390.349 305.666 387.311ZM332.879 405.245C332.128 405.18 331.507 404.935 331.017 404.51C330.527 404.085 330.282 403.514 330.282 402.795C330.282 402.076 330.527 401.472 331.017 400.982C331.54 400.492 332.259 400.247 333.173 400.247C334.121 400.247 334.905 400.623 335.525 401.374C336.146 402.093 336.456 403.007 336.456 404.118C336.456 405.229 336.097 406.356 335.378 407.499C334.66 408.675 333.565 409.622 332.095 410.341L329.204 408.92C331.23 407.94 332.455 406.715 332.879 405.245ZM366.897 404.314C364.088 405.621 361.524 405.898 359.204 405.147C357.538 404.624 356.362 403.53 355.676 401.864C355.317 401.047 355.137 400.067 355.137 398.924V384.518H351.364V381.578H355.137V375.061H358.959V381.578H366.309V384.518H358.959V398.875C358.959 401.26 360.07 402.452 362.291 402.452C363.5 402.452 364.856 402.158 366.358 401.57L366.897 404.314ZM376.941 385.89C378.509 382.623 381.106 380.99 384.732 380.99C387.509 380.99 389.665 381.905 391.2 383.734C392.768 385.563 393.552 388.062 393.552 391.231V405H389.73V391.231C389.73 388.977 389.191 387.278 388.113 386.135C387.068 384.992 385.549 384.42 383.556 384.42C381.563 384.42 379.963 385.269 378.754 386.968C377.545 388.634 376.941 390.953 376.941 393.926V405H373.07V371.631H376.941V385.89ZM402.887 381.529H406.758V405H402.887V381.529ZM404.798 376.041C404.014 376.041 403.394 375.829 402.936 375.404C402.512 374.947 402.299 374.359 402.299 373.64C402.299 372.889 402.512 372.301 402.936 371.876C403.394 371.419 404.014 371.19 404.798 371.19C405.582 371.19 406.203 371.419 406.66 371.876C407.15 372.301 407.395 372.889 407.395 373.64C407.395 374.359 407.15 374.947 406.66 375.404C406.203 375.829 405.582 376.041 404.798 376.041ZM416.06 387.311C416.06 385.384 416.877 383.848 418.51 382.705C420.176 381.562 422.414 380.99 425.223 380.99C428.032 380.99 430.221 381.578 431.789 382.754C433.39 383.93 434.223 385.416 434.288 387.213H430.515C430.221 385.09 428.424 384.028 425.125 384.028C423.524 384.028 422.283 384.387 421.401 385.106C420.552 385.825 420.127 386.609 420.127 387.458C420.127 388.275 420.454 388.977 421.107 389.565C421.76 390.12 422.806 390.61 424.243 391.035L428.947 392.603C430.94 393.224 432.459 394.024 433.504 395.004C434.582 395.951 435.121 397.274 435.121 398.973C435.121 400.639 434.255 402.158 432.524 403.53C430.793 404.869 428.375 405.539 425.272 405.539C422.169 405.539 419.751 404.853 418.02 403.481C416.289 402.076 415.374 400.28 415.276 398.091H419C419.065 399.561 419.653 400.672 420.764 401.423C421.907 402.142 423.328 402.501 425.027 402.501C426.726 402.501 428.13 402.142 429.241 401.423C430.352 400.704 430.907 399.855 430.907 398.875C430.907 397.862 430.58 397.095 429.927 396.572C429.274 396.049 428.212 395.592 426.742 395.2L422.185 393.681C418.102 392.472 416.06 390.349 416.06 387.311ZM454.998 381.529H458.869V405H454.998V381.529ZM456.909 376.041C456.125 376.041 455.504 375.829 455.047 375.404C454.622 374.947 454.41 374.359 454.41 373.64C454.41 372.889 454.622 372.301 455.047 371.876C455.504 371.419 456.125 371.19 456.909 371.19C457.693 371.19 458.313 371.419 458.771 371.876C459.261 372.301 459.506 372.889 459.506 373.64C459.506 374.359 459.261 374.947 458.771 375.404C458.313 375.829 457.693 376.041 456.909 376.041ZM468.17 387.311C468.17 385.384 468.987 383.848 470.62 382.705C472.286 381.562 474.524 380.99 477.333 380.99C480.143 380.99 482.331 381.578 483.899 382.754C485.5 383.93 486.333 385.416 486.398 387.213H482.625C482.331 385.09 480.535 384.028 477.235 384.028C475.635 384.028 474.393 384.387 473.511 385.106C472.662 385.825 472.237 386.609 472.237 387.458C472.237 388.275 472.564 388.977 473.217 389.565C473.871 390.12 474.916 390.61 476.353 391.035L481.057 392.603C483.05 393.224 484.569 394.024 485.614 395.004C486.692 395.951 487.231 397.274 487.231 398.973C487.231 400.639 486.366 402.158 484.634 403.53C482.903 404.869 480.486 405.539 477.382 405.539C474.279 405.539 471.862 404.853 470.13 403.481C468.399 402.076 467.484 400.28 467.386 398.091H471.11C471.176 399.561 471.764 400.672 472.874 401.423C474.018 402.142 475.439 402.501 477.137 402.501C478.836 402.501 480.241 402.142 481.351 401.423C482.462 400.704 483.017 399.855 483.017 398.875C483.017 397.862 482.691 397.095 482.037 396.572C481.384 396.049 480.322 395.592 478.852 395.2L474.295 393.681C470.212 392.472 468.17 390.349 468.17 387.311ZM519.113 404.314C516.304 405.621 513.739 405.898 511.42 405.147C509.754 404.624 508.578 403.53 507.892 401.864C507.533 401.047 507.353 400.067 507.353 398.924V384.518H503.58V381.578H507.353V375.061H511.175V381.578H518.525V384.518H511.175V398.875C511.175 401.26 512.286 402.452 514.507 402.452C515.716 402.452 517.071 402.158 518.574 401.57L519.113 404.314ZM529.157 385.89C530.725 382.623 533.322 380.99 536.948 380.99C539.725 380.99 541.881 381.905 543.416 383.734C544.984 385.563 545.768 388.062 545.768 391.231V405H541.946V391.231C541.946 388.977 541.407 387.278 540.329 386.135C539.284 384.992 537.765 384.42 535.772 384.42C533.779 384.42 532.179 385.269 530.97 386.968C529.761 388.634 529.157 390.953 529.157 393.926V405H525.286V371.631H529.157V385.89ZM562.943 402.403C566.177 402.403 568.023 400.982 568.48 398.14H572.449C572.09 400.492 571.045 402.321 569.313 403.628C567.615 404.902 565.491 405.539 562.943 405.539C559.807 405.539 557.259 404.428 555.299 402.207C553.339 399.953 552.359 396.964 552.359 393.24C552.359 389.516 553.339 386.543 555.299 384.322C557.292 382.101 559.922 380.99 563.188 380.99C566.488 380.99 568.938 382.264 570.538 384.812C572.172 387.36 572.743 390.463 572.253 394.122H556.23C556.23 396.539 556.818 398.532 557.994 400.1C559.17 401.635 560.82 402.403 562.943 402.403ZM565.785 384.665C565.034 384.273 564.119 384.077 563.041 384.077C561.049 384.077 559.464 384.763 558.288 386.135C557.145 387.474 556.475 389.157 556.279 391.182H568.774C568.774 387.915 567.778 385.743 565.785 384.665ZM606.256 389.81C606.256 387.687 605.815 386.168 604.933 385.253C604.051 384.338 602.76 383.881 601.062 383.881C599.396 383.881 598.04 384.224 596.995 384.91C595.982 385.563 595.476 386.609 595.476 388.046H591.213C591.213 384.453 593.14 382.231 596.995 381.382C598.171 381.121 599.445 380.99 600.817 380.99C603.724 380.99 605.994 381.725 607.628 383.195C609.261 384.665 610.078 386.903 610.078 389.908V405H606.746L606.354 401.08C604.916 404.053 602.319 405.539 598.563 405.539C596.047 405.539 594.022 404.837 592.487 403.432C590.984 402.027 590.233 400.28 590.233 398.189C590.233 396.098 591.066 394.465 592.732 393.289C594.43 392.113 596.537 391.525 599.053 391.525C601.568 391.525 603.969 391.95 606.256 392.799V389.81ZM606.256 395.249C603.936 394.596 601.911 394.269 600.18 394.269C598.448 394.269 597.044 394.579 595.966 395.2C594.888 395.821 594.349 396.801 594.349 398.14C594.349 401.08 596.015 402.55 599.347 402.55C601.241 402.55 602.858 401.88 604.198 400.541C605.57 399.169 606.256 397.405 606.256 395.249ZM622.797 385.155C624.332 382.378 626.619 380.99 629.657 380.99C632.727 380.99 635.275 382.117 637.301 384.371C639.359 386.625 640.388 389.598 640.388 393.289C640.388 396.98 639.359 399.953 637.301 402.207C635.243 404.428 632.711 405.539 629.706 405.539C626.7 405.539 624.479 404.412 623.042 402.158V416.515H619.171V381.578H622.356L622.797 385.155ZM629.51 402.109C631.339 402.109 632.94 401.325 634.312 399.757C635.716 398.189 636.419 396.049 636.419 393.338C636.419 390.594 635.749 388.422 634.41 386.821C633.103 385.22 631.502 384.42 629.608 384.42C627.713 384.42 626.161 385.024 624.953 386.233C623.744 387.409 623.107 389.01 623.042 391.035V395.494C623.042 397.552 623.662 399.169 624.904 400.345C626.145 401.521 627.68 402.109 629.51 402.109ZM651.89 385.155C653.426 382.378 655.712 380.99 658.75 380.99C661.821 380.99 664.369 382.117 666.394 384.371C668.452 386.625 669.481 389.598 669.481 393.289C669.481 396.98 668.452 399.953 666.394 402.207C664.336 404.428 661.805 405.539 658.799 405.539C655.794 405.539 653.573 404.412 652.135 402.158V416.515H648.264V381.578H651.449L651.89 385.155ZM658.603 402.109C660.433 402.109 662.033 401.325 663.405 399.757C664.81 398.189 665.512 396.049 665.512 393.338C665.512 390.594 664.843 388.422 663.503 386.821C662.197 385.22 660.596 384.42 658.701 384.42C656.807 384.42 655.255 385.024 654.046 386.233C652.838 387.409 652.201 389.01 652.135 391.035V395.494C652.135 397.552 652.756 399.169 653.997 400.345C655.239 401.521 656.774 402.109 658.603 402.109ZM676.721 405.441C675.905 405.441 675.219 405.18 674.663 404.657C674.141 404.102 673.879 403.448 673.879 402.697C673.879 401.913 674.141 401.26 674.663 400.737C675.219 400.182 675.905 399.904 676.721 399.904C677.571 399.904 678.273 400.182 678.828 400.737C679.384 401.26 679.661 401.913 679.661 402.697C679.661 403.448 679.384 404.102 678.828 404.657C678.273 405.18 677.571 405.441 676.721 405.441Z" fill="black" fill-opacity="0.7"/>
<defs>
<filter id="filter0_d" x="0" y="0" width="1249" height="525" filterUnits="userSpaceOnUse" color-interpolation-filters="sRGB">
<feFlood flood-opacity="0" result="BackgroundImageFix"/>
<feColorMatrix in="SourceAlpha" type="matrix" values="0 0 0 0 0 0 0 0 0 0 0 0 0 0 0 0 0 0 127 0"/>
<feMorphology radius="20" operator="dilate" in="SourceAlpha" result="effect1_dropShadow"/>
<feOffset/>
<feGaussianBlur stdDeviation="20"/>
<feColorMatrix type="matrix" values="0 0 0 0 0 0 0 0 0 0 0 0 0 0 0 0 0 0 0.25 0"/>
<feBlend mode="normal" in2="BackgroundImageFix" result="effect1_dropShadow"/>
<feBlend mode="normal" in="SourceGraphic" in2="effect1_dropShadow" result="shape"/>
</filter>
</defs>
</svg>
