<svg width="533" height="291" viewBox="0 0 533 291" fill="none" xmlns="http://www.w3.org/2000/svg">
<path d="M462.679 289.092C462.73 288.939 467.669 273.649 458.928 260.005L458.035 260.577C466.497 273.785 461.722 288.609 461.673 288.757L462.679 289.092Z" fill="#E4E4E4"/>
<path d="M452.677 261.967C452.865 262.861 453.228 263.709 453.744 264.462C454.259 265.216 454.919 265.86 455.683 266.359C456.448 266.857 457.303 267.2 458.201 267.368C459.098 267.536 460.019 267.525 460.912 267.337C461.806 267.149 462.653 266.786 463.406 266.27C464.159 265.754 464.803 265.094 465.301 264.329C465.8 263.564 466.143 262.708 466.31 261.81C466.478 260.913 466.467 259.991 466.279 259.097C465.487 255.339 458.771 245.986 455.015 246.778C451.259 247.571 451.885 258.209 452.677 261.967Z" fill="#E4E4E4"/>
<path d="M453.944 279.545C457.296 283.169 463.293 283.071 463.293 283.071C463.293 283.071 463.855 277.096 460.503 273.472C457.15 269.847 451.153 269.946 451.153 269.946C451.153 269.946 450.591 275.92 453.944 279.545Z" fill="#E4E4E4"/>
<path d="M504.752 290.153C504.872 289.792 516.528 253.708 495.899 221.51L493.793 222.861C513.762 254.029 502.495 289.012 502.379 289.362L504.752 290.153Z" fill="#E4E4E4"/>
<path d="M481.149 226.14C482.047 230.398 484.599 234.125 488.244 236.501C491.888 238.876 496.326 239.706 500.582 238.808C504.838 237.91 508.564 235.358 510.939 231.712C513.314 228.066 514.145 223.625 513.248 219.367C511.379 210.498 495.531 188.425 486.667 190.295C477.802 192.166 479.279 217.271 481.149 226.14Z" fill="#E4E4E4"/>
<path d="M484.137 267.622C492.048 276.175 506.201 275.943 506.201 275.943C506.201 275.943 507.527 261.843 499.616 253.29C491.705 244.736 477.553 244.968 477.553 244.968C477.553 244.968 476.226 259.068 484.137 267.622Z" fill="#E4E4E4"/>
<path d="M307.481 287.436L299.746 284.177L294.44 245.381H223.782L218.031 284.019L211.111 287.48C210.78 287.646 210.514 287.919 210.357 288.254C210.2 288.59 210.161 288.968 210.246 289.329C210.331 289.689 210.536 290.011 210.826 290.24C211.116 290.47 211.476 290.595 211.846 290.595H306.843C307.223 290.595 307.59 290.464 307.884 290.224C308.178 289.983 308.379 289.649 308.454 289.277C308.529 288.904 308.473 288.518 308.296 288.182C308.119 287.847 307.831 287.583 307.481 287.436V287.436Z" fill="#E6E6E6"/>
<path d="M433.046 250.543H85.9522C84.1311 250.539 82.386 249.812 81.0997 248.522C79.8135 247.232 79.0911 245.485 79.0911 243.663V194.69H439.907V243.663C439.907 245.485 439.184 247.232 437.898 248.522C436.612 249.812 434.867 250.539 433.046 250.543V250.543Z" fill="#CCCCCC"/>
<path d="M440.27 217.836H78.7744V8.29418C78.777 6.09515 79.6512 3.98693 81.2053 2.43201C82.7594 0.877093 84.8664 0.0024648 87.0642 0H431.98C434.177 0.00246336 436.285 0.877087 437.839 2.432C439.393 3.98692 440.267 6.09515 440.27 8.29418V217.836Z" fill="#3F3D56"/>
<path d="M418.681 15.208H100.364C98.6696 15.2101 97.0454 15.8848 95.8479 17.084C94.6504 18.2832 93.9775 19.9088 93.9768 21.604V196.232C93.9775 197.927 94.6504 199.553 95.8479 200.752C97.0454 201.951 98.6696 202.626 100.364 202.628H418.681C420.375 202.625 421.999 201.95 423.196 200.751C424.393 199.552 425.067 197.927 425.068 196.232V21.604C425.067 19.9091 424.393 18.284 423.196 17.085C421.999 15.886 420.375 15.211 418.681 15.208Z" fill="white"/>
<path d="M156.788 15.208V202.628H100.364C98.6696 202.626 97.0454 201.951 95.8479 200.752C94.6504 199.553 93.9775 197.927 93.9768 196.232V21.604C93.9775 19.9088 94.6504 18.2832 95.8479 17.084C97.0454 15.8848 98.6696 15.2101 100.364 15.208H156.788Z" fill="#F0F0F0"/>
<path d="M110.239 109.887C109.604 109.742 108.945 109.738 108.308 109.876C107.671 110.014 107.073 110.29 106.554 110.684C106.035 111.078 105.609 111.582 105.306 112.159C105.003 112.735 104.83 113.372 104.799 114.023L89.6116 118.503L95.8989 123.814L109.357 118.745C110.454 118.724 111.505 118.302 112.311 117.558C113.117 116.814 113.622 115.8 113.731 114.708C113.839 113.616 113.544 112.522 112.9 111.633C112.257 110.745 111.31 110.123 110.239 109.887H110.239Z" fill="#FFB6B6"/>
<path d="M48.8734 143.603C47.3719 143.601 45.9199 143.066 44.7764 142.092C43.6328 141.119 42.872 139.771 42.6295 138.288C42.3871 136.806 42.6788 135.285 43.4527 133.998C44.2266 132.71 45.4323 131.74 46.8549 131.259L77.6318 120.864L101.639 112.113L104.585 122.431L83.3917 136.404L50.198 143.464C49.7625 143.556 49.3186 143.603 48.8734 143.603V143.603Z" fill="#00B0FF"/>
<path d="M68.1334 285.748H72.4544L74.5104 269.071H68.1323L68.1334 285.748Z" fill="#FFB6B6"/>
<path d="M67.0308 284.337L75.5408 284.336H75.5412C76.9795 284.336 78.3589 284.908 79.3759 285.926C80.393 286.943 80.9644 288.323 80.9645 289.762V289.939L67.031 289.939L67.0308 284.337Z" fill="#2F2E41"/>
<path d="M35.0008 285.748H39.3218L41.3778 269.071H35.0002L35.0008 285.748Z" fill="#FFB6B6"/>
<path d="M33.8987 284.337L42.4088 284.336H42.4091C43.8474 284.336 45.2268 284.908 46.2438 285.926C47.2609 286.943 47.8323 288.323 47.8324 289.762V289.939L33.8989 289.939L33.8987 284.337Z" fill="#2F2E41"/>
<path d="M34.958 185.716C32.9805 190.325 32.5477 195.451 33.7244 200.327L32.4907 283.053H41.9811L47.2945 237.558L56.1063 207.581L65.623 230.858V279.369L74.7873 278.821L79.7219 227.331L74.0824 190.653L34.958 185.716Z" fill="#2F2E41"/>
<path d="M69.6765 121.354L61.5696 118.885L59.4548 114.653H49.0416L46.4133 119.238C46.4133 119.238 35.8392 123.117 35.4867 141.809C35.1343 160.5 33.7244 190.477 33.7244 190.477L75.4187 196.424L69.6765 121.354Z" fill="#00B0FF"/>
<path d="M81.6465 193.077C81.92 192.486 82.0605 191.841 82.0582 191.189C82.0559 190.538 81.9108 189.894 81.6331 189.305C81.3554 188.715 80.9519 188.194 80.451 187.777C79.9501 187.36 79.364 187.059 78.734 186.893L77.5119 171.098L71.0129 176.147L73.1698 190.373C72.9621 191.45 73.1566 192.566 73.7165 193.51C74.2764 194.453 75.1627 195.159 76.2076 195.492C77.2525 195.825 78.3832 195.764 79.3857 195.319C80.3881 194.873 81.1925 194.076 81.6465 193.077H81.6465Z" fill="#FFB6B6"/>
<path d="M70.5583 184.936L61.3047 161.289V127.334C61.3047 125.717 61.9226 124.161 63.0319 122.984C64.1411 121.808 65.6579 121.101 67.2715 121.007C68.8852 120.913 70.4736 121.44 71.7117 122.48C72.9497 123.519 73.7437 124.993 73.9309 126.6L77.6944 158.882L81.2577 184.197L70.5583 184.936Z" fill="#00B0FF"/>
<path d="M56.2458 109.163C61.993 109.163 66.652 104.502 66.652 98.7511C66.652 93.0007 61.993 88.3391 56.2458 88.3391C50.4986 88.3391 45.8396 93.0007 45.8396 98.7511C45.8396 104.502 50.4986 109.163 56.2458 109.163Z" fill="#FFB9B9"/>
<path d="M56.9271 95.5861C56.4402 96.2115 55.7728 96.776 55.6656 97.5614C55.5861 98.1434 55.8402 98.7186 55.8645 99.3055C55.8664 99.8977 55.6426 100.468 55.2386 100.901C54.8346 101.334 54.2808 101.597 53.6901 101.635C53.2787 101.117 52.6842 100.777 52.0293 100.685C51.7034 100.648 51.3742 100.717 51.0902 100.881C50.8062 101.045 50.5823 101.296 50.4515 101.597C50.1425 102.47 50.8578 103.358 50.9728 104.277C50.9881 104.957 50.8781 105.634 50.6484 106.275C50.3847 107.329 50.3143 108.445 49.8517 109.429C49.3891 110.413 48.3604 111.26 47.2956 111.042C46.4003 110.859 45.7944 109.992 45.544 109.112C45.2936 108.233 45.3049 107.301 45.1236 106.404C44.5348 103.492 42.0297 101.335 41.0468 98.5313C39.7874 94.939 41.3003 90.83 43.9078 88.0576C44.962 86.843 46.3381 85.9515 47.8772 85.4862C49.5021 85.0722 51.22 85.3698 52.8874 85.1928C54.6705 85.0034 56.3465 84.2784 58.0794 83.8177C59.8124 83.3569 61.748 83.1834 63.3231 84.0406C64.4218 84.6384 65.2174 85.6693 66.2411 86.3882C67.4146 87.2062 68.8373 87.5872 70.2623 87.4651L68.5607 88.2094C69.212 88.8075 69.9986 89.2385 70.853 89.4656C70.1576 90.0171 69.2974 90.3192 68.4101 90.3236C68.5952 90.6573 68.8466 90.9494 69.149 91.1821C69.4513 91.4147 69.7981 91.5828 70.1679 91.676C68.8758 92.2829 67.504 92.9047 66.0832 92.7678C65.3873 92.7008 64.722 92.4533 64.0346 92.3259C62.5692 92.0543 61.0644 92.3358 59.6007 92.6167C58.8321 92.7642 57.8889 92.9058 57.5007 93.6452C57.1775 94.261 57.4247 94.947 56.9271 95.5861Z" fill="#2F2E41"/>
<path d="M125.382 125.529C134.551 125.529 141.984 118.092 141.984 108.918C141.984 99.7444 134.551 92.3076 125.382 92.3076C116.214 92.3076 108.781 99.7444 108.781 108.918C108.781 118.092 116.214 125.529 125.382 125.529Z" fill="#00B0FF"/>
<path d="M135.343 108.918H126.379V99.9486H124.386V108.918H115.421V110.911H124.386V119.881H126.379V110.911H135.343V108.918Z" fill="white"/>
<path d="M266.751 37.1289C266.239 37.1295 265.749 37.3332 265.387 37.6954C265.025 38.0576 264.821 38.5487 264.82 39.061V71.4112C264.821 71.9235 265.025 72.4146 265.387 72.7769C265.749 73.1391 266.239 73.3429 266.751 73.3435H397.092C397.604 73.3429 398.095 73.1391 398.457 72.7769C398.819 72.4146 399.023 71.9235 399.023 71.4112V39.061C399.023 38.5487 398.819 38.0576 398.457 37.6954C398.095 37.3332 397.604 37.1294 397.092 37.1289H266.751Z" fill="white"/>
<path d="M266.751 37.1289C266.239 37.1295 265.749 37.3332 265.387 37.6954C265.025 38.0576 264.821 38.5487 264.82 39.061V71.4112C264.821 71.9235 265.025 72.4146 265.387 72.7769C265.749 73.1391 266.239 73.3429 266.751 73.3435H397.092C397.604 73.3429 398.095 73.1391 398.457 72.7769C398.819 72.4146 399.023 71.9235 399.023 71.4112V39.061C399.023 38.5487 398.819 38.0576 398.457 37.6954C398.095 37.3332 397.604 37.1294 397.092 37.1289H266.751Z" fill="#E6E6E6"/>
<path d="M266.993 71.1699H396.851V39.3026H266.993V71.1699Z" fill="white"/>
<path d="M281.757 48.474C281.309 48.474 280.879 48.6521 280.562 48.9691C280.246 49.2862 280.068 49.7162 280.068 50.1646C280.068 50.6129 280.246 51.0429 280.562 51.36C280.879 51.677 281.309 51.8551 281.757 51.8551H382.082C382.304 51.8552 382.524 51.8116 382.729 51.7267C382.934 51.6418 383.12 51.5174 383.277 51.3605C383.434 51.2036 383.558 51.0172 383.643 50.8122C383.728 50.6071 383.772 50.3873 383.772 50.1653C383.772 49.9433 383.729 49.7234 383.644 49.5183C383.559 49.3131 383.435 49.1267 383.278 48.9697C383.121 48.8126 382.935 48.688 382.73 48.603C382.525 48.5179 382.305 48.4741 382.083 48.474H281.757Z" fill="#E4E4E4"/>
<path d="M281.757 58.6173C281.31 58.6181 280.881 58.7966 280.564 59.1135C280.248 59.4305 280.071 59.86 280.071 60.3079C280.071 60.7557 280.248 61.1852 280.564 61.5022C280.881 61.8192 281.31 61.9976 281.757 61.9984H382.082C382.53 61.9994 382.96 61.8223 383.278 61.5059C383.595 61.1896 383.774 60.76 383.775 60.3116C383.776 59.8633 383.599 59.4329 383.283 59.1151C382.967 58.7974 382.538 58.6183 382.09 58.6173H281.757V58.6173Z" fill="#E4E4E4"/>
<path d="M176.113 92.02C175.601 92.0206 175.11 92.2243 174.748 92.5865C174.386 92.9487 174.182 93.4398 174.182 93.9521V126.302C174.182 126.815 174.386 127.306 174.748 127.668C175.11 128.03 175.601 128.234 176.113 128.235H306.454C306.966 128.234 307.457 128.03 307.819 127.668C308.181 127.306 308.384 126.815 308.385 126.302V93.9521C308.384 93.4398 308.181 92.9487 307.819 92.5865C307.456 92.2243 306.966 92.0206 306.454 92.02H176.113Z" fill="white"/>
<path d="M176.113 92.02C175.601 92.0206 175.11 92.2243 174.748 92.5865C174.386 92.9487 174.182 93.4398 174.182 93.9521V126.302C174.182 126.815 174.386 127.306 174.748 127.668C175.11 128.03 175.601 128.234 176.113 128.235H306.454C306.966 128.234 307.457 128.03 307.819 127.668C308.181 127.306 308.384 126.815 308.385 126.302V93.9521C308.384 93.4398 308.181 92.9487 307.819 92.5865C307.456 92.2243 306.966 92.0206 306.454 92.02H176.113Z" fill="#E6E6E6"/>
<path d="M176.354 126.061H306.212V94.1937H176.354V126.061Z" fill="white"/>
<path d="M191.118 103.365C190.67 103.365 190.241 103.543 189.924 103.86C189.607 104.177 189.429 104.607 189.429 105.056C189.429 105.504 189.607 105.934 189.924 106.251C190.241 106.568 190.67 106.746 191.118 106.746H291.443C291.665 106.746 291.885 106.703 292.09 106.618C292.295 106.533 292.481 106.409 292.638 106.252C292.795 106.095 292.92 105.908 293.005 105.703C293.09 105.498 293.134 105.278 293.134 105.056C293.134 104.834 293.09 104.615 293.005 104.409C292.92 104.204 292.796 104.018 292.639 103.861C292.482 103.704 292.296 103.579 292.091 103.494C291.886 103.409 291.667 103.365 291.445 103.365H191.118Z" fill="#E4E4E4"/>
<path d="M191.118 113.508C190.671 113.509 190.242 113.688 189.926 114.005C189.609 114.322 189.432 114.751 189.432 115.199C189.432 115.647 189.609 116.076 189.926 116.393C190.242 116.71 190.671 116.889 191.118 116.89H291.443C291.891 116.891 292.321 116.713 292.639 116.397C292.957 116.081 293.136 115.651 293.137 115.203C293.138 114.754 292.961 114.324 292.644 114.006C292.328 113.688 291.899 113.509 291.451 113.508H191.118V113.508Z" fill="#E4E4E4"/>
<path d="M334.989 178.845C335.569 178.781 336.128 178.591 336.627 178.287C337.126 177.983 337.553 177.574 337.876 177.087C338.2 176.601 338.413 176.049 338.501 175.472C338.588 174.894 338.548 174.304 338.383 173.744L349.935 165.488L343.051 162.836L333.137 171.082C332.214 171.422 331.448 172.088 330.983 172.955C330.519 173.822 330.388 174.83 330.616 175.787C330.845 176.743 331.416 177.583 332.222 178.147C333.028 178.711 334.012 178.959 334.989 178.845V178.845Z" fill="#FFB7B7"/>
<path d="M341.402 173.408L337.57 166.859L337.651 166.766L353.112 149.154L365.117 128.671L375.541 130L375.695 133.153L375.664 133.2L359.102 158.11L359.085 158.125L341.402 173.408Z" fill="#3F3D56"/>
<path d="M392.486 284.222L386.591 284.221L383.786 261.47L392.487 261.47L392.486 284.222Z" fill="#FFB7B7"/>
<path d="M393.989 289.939L374.981 289.939V289.698C374.981 287.735 375.76 285.852 377.148 284.464C378.535 283.075 380.417 282.296 382.379 282.295H382.38L393.99 282.296L393.989 289.939Z" fill="#2F2E41"/>
<path d="M341.75 284.029L336.016 282.659L338.568 259.878L347.031 261.899L341.75 284.029Z" fill="#FFB7B7"/>
<path d="M341.885 289.939L323.396 285.522L323.452 285.288C323.908 283.378 325.103 281.728 326.775 280.7C328.447 279.672 330.458 279.351 332.367 279.807L332.367 279.807L343.659 282.505L341.885 289.939Z" fill="#2F2E41"/>
<path d="M364.661 118.269V108.34C364.661 104.811 366.062 101.427 368.556 98.9323C371.049 96.4372 374.431 95.0355 377.958 95.0355C381.485 95.0355 384.867 96.4372 387.36 98.9323C389.854 101.427 391.255 104.811 391.255 108.34V118.269C391.254 118.743 391.066 119.197 390.731 119.532C390.396 119.867 389.942 120.055 389.469 120.056H366.447C365.974 120.055 365.519 119.867 365.185 119.532C364.85 119.197 364.661 118.743 364.661 118.269V118.269Z" fill="#2F2E41"/>
<path d="M374.676 119.905C380.06 119.905 384.425 115.538 384.425 110.151C384.425 104.763 380.06 100.396 374.676 100.396C369.292 100.396 364.927 104.763 364.927 110.151C364.927 115.538 369.292 119.905 374.676 119.905Z" fill="#FFB7B7"/>
<path d="M361.515 109.134C361.518 106.344 362.627 103.669 364.599 101.696C366.571 99.7228 369.245 98.613 372.034 98.6099H374.018C376.807 98.613 379.481 99.7228 381.453 101.696C383.425 103.669 384.534 106.344 384.537 109.134V109.333H380.343L378.912 105.325L378.626 109.333H376.459L375.737 107.311L375.592 109.333H361.515V109.134Z" fill="#2F2E41"/>
<path d="M380.363 161.634L355.541 160.688L354.153 144.44C353.083 141.466 353.065 138.912 354.102 136.85C354.993 135.157 356.49 133.862 358.293 133.225L363.725 126.662C364.424 125.818 365.301 125.14 366.294 124.677C367.287 124.214 368.37 123.977 369.465 123.985L383.577 124.081C383.917 123.876 385.98 122.827 390.049 124.592C394.463 126.507 393.438 133.156 393.427 133.223L393.417 133.285L393.369 133.326L383.982 141.236L380.363 161.634Z" fill="#3F3D56"/>
<path d="M355.738 158.943L343.997 180.361L335.095 277.806L345.153 280.879L362.956 204.652L383.617 278.717L395.673 279.018L387.465 193.548L380.291 160.456L355.738 158.943Z" fill="#2F2E41"/>
<path d="M279.748 143.066C279.261 142.908 278.731 142.951 278.275 143.184C277.819 143.417 277.474 143.821 277.316 144.308L267.346 175.082C267.188 175.569 267.231 176.099 267.463 176.556C267.696 177.012 268.1 177.357 268.587 177.516L392.576 217.731C393.063 217.889 393.593 217.846 394.049 217.614C394.505 217.381 394.85 216.976 395.009 216.489L404.979 185.715C405.136 185.228 405.094 184.698 404.861 184.242C404.628 183.785 404.224 183.44 403.737 183.282L279.748 143.066Z" fill="white"/>
<path d="M279.748 143.066C279.261 142.908 278.731 142.951 278.275 143.184C277.819 143.417 277.474 143.821 277.316 144.308L267.346 175.082C267.188 175.569 267.231 176.099 267.463 176.556C267.696 177.012 268.1 177.357 268.587 177.516L392.576 217.731C393.063 217.889 393.593 217.846 394.049 217.614C394.505 217.381 394.85 216.976 395.009 216.489L404.979 185.715C405.136 185.228 405.094 184.698 404.861 184.242C404.628 183.785 404.224 183.44 403.737 183.282L279.748 143.066Z" fill="#E6E6E6"/>
<path d="M269.487 175.522L393.017 215.589L402.838 185.275L279.308 145.208L269.487 175.522Z" fill="white"/>
<path d="M290.526 158.488C290.1 158.35 289.637 158.387 289.238 158.591C288.839 158.795 288.537 159.149 288.399 159.575C288.261 160.002 288.297 160.465 288.501 160.865C288.705 161.264 289.058 161.566 289.484 161.704L384.92 192.659C385.131 192.728 385.354 192.754 385.575 192.737C385.796 192.72 386.012 192.659 386.21 192.558C386.408 192.457 386.584 192.318 386.728 192.149C386.873 191.981 386.982 191.785 387.051 191.573C387.119 191.362 387.145 191.139 387.128 190.918C387.11 190.696 387.049 190.481 386.948 190.283C386.847 190.085 386.708 189.909 386.539 189.765C386.37 189.621 386.175 189.511 385.963 189.443L385.962 189.443L290.526 158.488Z" fill="#00B0FF"/>
<path d="M287.4 168.137C286.974 168 286.511 168.037 286.113 168.241C285.714 168.445 285.413 168.799 285.275 169.225C285.137 169.651 285.174 170.114 285.377 170.513C285.58 170.912 285.933 171.214 286.358 171.353L381.794 202.308C382.22 202.447 382.684 202.411 383.083 202.208C383.483 202.005 383.785 201.652 383.925 201.226C384.064 200.8 384.028 200.335 383.825 199.936C383.622 199.536 383.269 199.233 382.843 199.094L382.836 199.091L287.4 168.137Z" fill="#00B0FF"/>
<path d="M387.107 193.618C387.542 193.227 387.886 192.746 388.114 192.209C388.343 191.671 388.451 191.09 388.431 190.506C388.411 189.922 388.263 189.349 387.998 188.829C387.733 188.308 387.357 187.852 386.897 187.492L391.481 174.05L384.341 175.906L381.083 188.387C380.53 189.2 380.295 190.189 380.423 191.164C380.55 192.14 381.03 193.035 381.773 193.679C382.515 194.324 383.469 194.674 384.452 194.663C385.435 194.651 386.38 194.279 387.107 193.618V193.618Z" fill="#FFB7B7"/>
<path d="M389.155 185.46L382.228 182.37L384.555 158.921L382.389 135.275L391.637 130.28L393.597 132.753L393.599 132.809L394.638 162.71L394.632 162.732L389.155 185.46Z" fill="#3F3D56"/>
</svg>
